<svg width="24" height="24" viewBox="0 0 24 24" fill="none" xmlns="http://www.w3.org/2000/svg">
<path d="M14.1328 2.5C13.6376 2.5 13.1626 2.68762 12.8124 3.02157C12.4623 3.35553 12.2655 3.80848 12.2655 4.28076C12.2655 4.75305 12.4623 5.206 12.8124 5.53995C13.1626 5.87391 13.6376 6.06153 14.1328 6.06153C14.628 6.06153 15.1029 5.87391 15.4531 5.53995C15.8033 5.206 16 4.75305 16 4.28076C16 3.80848 15.8033 3.35553 15.4531 3.02157C15.1029 2.68762 14.628 2.5 14.1328 2.5ZM13.6846 8.16283C12.2033 8.28155 8.15764 11.3563 8.15764 11.3563C7.90868 11.5344 7.98337 11.5225 8.18254 11.8549C8.38171 12.1755 8.35682 12.1992 8.59333 12.0449C8.84229 11.8906 9.25308 11.6413 9.93773 11.2376C12.5767 9.62305 10.361 13.3508 9.22819 19.6309C8.78005 22.7413 11.7178 21.1387 12.4772 20.6638C13.2241 20.2008 15.2282 18.883 15.4274 18.7524C15.7012 18.5744 15.5021 18.4319 15.2905 18.1351C15.1411 17.9333 14.9917 18.0757 14.9917 18.0757C14.1826 18.5862 12.7012 19.6547 12.5021 18.978C12.2655 18.3013 13.7842 13.6595 14.6183 10.4659C14.7552 9.70616 15.1286 8.04411 13.6846 8.16283Z" fill="#D3D3D3"/>
</svg>
