<svg width="117" height="53" viewBox="0 0 117 53" fill="none" xmlns="http://www.w3.org/2000/svg">
<g clip-path="url(#clip0_1133_522)">
<path d="M-17 27C-17 3.80403 1.80405 -15 25 -15C48.196 -15 67 3.80404 67 27C67 50.196 48.196 69 25 69C1.80404 69 -17 50.196 -17 27ZM49.0978 27C49.0978 13.6911 38.3089 2.90218 25 2.90218C11.6911 2.90218 0.902188 13.6911 0.902187 27C0.902186 40.3089 11.6911 51.0978 25 51.0978C38.3089 51.0978 49.0978 40.3089 49.0978 27Z" fill="#1EACA4" fill-opacity="0.18"/>
<path d="M3 27C3 14.8497 12.8497 5 25 5C37.1503 5 47 14.8497 47 27C47 39.1503 37.1503 49 25 49C12.8497 49 3 39.1503 3 27ZM42.4253 27C42.4253 17.3763 34.6237 9.57471 25 9.57471C15.3763 9.57471 7.57471 17.3763 7.57471 27C7.57471 36.6237 15.3763 44.4253 25 44.4253C34.6237 44.4253 42.4253 36.6237 42.4253 27Z" fill="#1EACA4" fill-opacity="0.18"/>
<path d="M-29 26.5C-29 -3.59953 -4.59951 -28 25.5 -28C55.5995 -28 80 -3.59952 80 26.5C80 56.5995 55.5995 81 25.5 81C-4.59952 81 -29 56.5995 -29 26.5ZM69.19 26.5C69.19 2.37067 49.6293 -17.19 25.5 -17.19C1.37068 -17.19 -18.19 2.37066 -18.19 26.5C-18.19 50.6293 1.37067 70.19 25.5 70.19C49.6293 70.19 69.19 50.6293 69.19 26.5Z" fill="#1EACA4" fill-opacity="0.18"/>
<path d="M-31 27C-31 -6.1371 -4.13707 -33 29 -33C62.1371 -33 89 -6.13708 89 27C89 60.1371 62.1371 87 29 87C-4.13708 87 -31 60.1371 -31 27ZM82.1222 27C82.1222 -2.33859 58.3386 -26.1222 29 -26.1222C-0.338583 -26.1222 -24.1222 -2.3386 -24.1222 27C-24.1222 56.3386 -0.338592 80.1222 29 80.1222C58.3386 80.1222 82.1222 56.3386 82.1222 27Z" fill="#1EACA4" fill-opacity="0.18"/>
<path d="M-43 26.5C-43 -11.8838 -11.8838 -43 26.5 -43C64.8838 -43 96 -11.8838 96 26.5C96 64.8838 64.8838 96 26.5 96C-11.8838 96 -43 64.8838 -43 26.5ZM91.1062 26.5C91.1062 -9.18099 62.181 -38.1062 26.5 -38.1062C-9.18098 -38.1062 -38.1061 -9.181 -38.1061 26.5C-38.1062 62.181 -9.18099 91.1061 26.5 91.1061C62.181 91.1062 91.1062 62.181 91.1062 26.5Z" fill="#1EACA4" fill-opacity="0.18"/>
</g>
<defs>
<clipPath id="clip0_1133_522">
<rect width="117" height="53" rx="3" fill="white"/>
</clipPath>
</defs>
</svg>
