<svg width="49" height="49" viewBox="0 0 49 49" fill="none" xmlns="http://www.w3.org/2000/svg">
<path d="M31.0792 18.5682L31.0815 21.9752C30.5954 26.5179 28.3218 28.7892 24.2652 28.7892C20.2086 28.7892 17.9395 26.5179 17.4534 21.9752L17.4512 14.0255C17.4512 9.48281 21.669 6.6868 23.1295 6.07581M26.5365 15.1612L35.6219 6.07581M35.6219 15.1612L26.5365 6.07581" stroke="#D2D2D2" stroke-width="2.27134" stroke-linecap="round" stroke-linejoin="round"/>
<path d="M35.6226 21.9753C35.6187 24.942 34.4541 27.7895 32.3778 29.9086C30.3015 32.0277 27.4784 33.2502 24.5124 33.3146C21.5463 33.379 18.6728 32.2802 16.5065 30.2532C14.3402 28.2262 13.0531 25.432 12.9205 22.4682L12.9092 21.9753M24.3158 33.332V42.4173" stroke="#D2D2D2" stroke-width="2.27134" stroke-linecap="round" stroke-linejoin="round"/>
</svg>
