<svg width="24" height="24" viewBox="0 0 24 24" fill="none" xmlns="http://www.w3.org/2000/svg">
<path d="M20.8 16.9C21.2 16.2 21.5 15.4 21.5 14.5C21.5 12 19.5 10 17 10C14.5 10 12.5 12 12.5 14.5C12.5 17 14.5 19 17 19C17.9 19 18.7 18.7 19.4 18.3L21.9 20.8C22.2866 21.1866 22.9134 21.1866 23.3 20.8C23.6866 20.4134 23.6866 19.7866 23.3 19.4L20.8 16.9ZM17 15C15.6 15 18 15.9 18 14.5C18 13.1 15.6 14 17 14C18.4 14 16 13.1 16 14.5C16 15.9 18.4 15 17 15ZM12.502 19.938C13.05 20.0066 13.5 20.4477 13.5 21C13.5 21.5523 13.051 22.0053 12.5014 21.9507C7.44968 21.4491 3.5 17.183 3.5 12C3.5 6.48 7.98 2 13.5 2C17.8967 2 21.625 4.8387 22.9682 8.77698C23.1796 9.39693 22.6871 10 22.0321 10C21.5599 10 21.1541 9.67779 20.9909 9.23472C20.6539 8.31958 20.1515 7.47159 19.5066 6.73401C18.6853 5.79465 17.6557 5.06042 16.5 4.59V5C16.5 6.1 15.6 7 14.5 7H12.5V9C12.5 9.55 12.05 10 11.5 10H9.5V12H10.5C11.0523 12 11.5 12.4477 11.5 13V14.2929C11.5 14.6834 11.1834 15 10.7929 15C10.6054 15 10.4255 14.9255 10.2929 14.7929L5.71 10.21C5.58 10.79 5.5 11.38 5.5 12C5.5 16.0721 8.56095 19.4451 12.502 19.938Z" fill="url(#paint0_linear_5905_2528)"/>
<defs>
<linearGradient id="paint0_linear_5905_2528" x1="13.75" y1="2" x2="13.75" y2="22" gradientUnits="userSpaceOnUse">
<stop stop-color="#1EACA4"/>
<stop offset="1" stop-color="#2E7773"/>
</linearGradient>
</defs>
</svg>
