<svg width="24" height="25" viewBox="0 0 24 25" fill="none" xmlns="http://www.w3.org/2000/svg">
<path d="M19.3 17.4C19.7 16.7 20 15.9 20 15C20 12.5 18 10.5 15.5 10.5C13 10.5 11 12.5 11 15C11 17.5 13 19.5 15.5 19.5C16.4 19.5 17.2 19.2 17.9 18.8L20.4 21.3C20.7866 21.6866 21.4134 21.6866 21.8 21.3C22.1866 20.9134 22.1866 20.2866 21.8 19.9L19.3 17.4ZM15.5 17.5C14.1 17.5 13 16.4 13 15C13 13.6 14.1 12.5 15.5 12.5C16.9 12.5 18 13.6 18 15C18 16.4 16.9 17.5 15.5 17.5ZM11.002 20.438C11.55 20.5066 12 20.9477 12 21.5C12 22.0523 11.551 22.5053 11.0014 22.4507C5.94968 21.9491 2 17.683 2 12.5C2 6.98 6.48 2.5 12 2.5C16.3967 2.5 20.125 5.3387 21.4682 9.27698C21.6796 9.89693 21.1871 10.5 20.5321 10.5C20.0599 10.5 19.6541 10.1778 19.4909 9.73472C19.1539 8.81958 18.6515 7.97159 18.0066 7.23401C17.1853 6.29465 16.1557 5.56042 15 5.09V5.5C15 6.6 14.1 7.5 13 7.5H11V9.5C11 10.05 10.55 10.5 10 10.5H8V12.5H9C9.55228 12.5 10 12.9477 10 13.5V14.7929C10 15.1834 9.68342 15.5 9.29289 15.5C9.10536 15.5 8.9255 15.4255 8.79289 15.2929L4.21 10.71C4.08 11.29 4 11.88 4 12.5C4 16.5721 7.06095 19.9451 11.002 20.438Z" fill="#DADADA"/>
</svg>
