<svg width="20" height="20" viewBox="0 0 20 20" fill="none" xmlns="http://www.w3.org/2000/svg">
<path d="M11.2507 6.66667H10.0007V10.8333L13.5673 12.95L14.1673 11.9417L11.2507 10.2083V6.66667ZM10.834 2.5C8.84486 2.5 6.93721 3.29018 5.53068 4.6967C4.12416 6.10322 3.33398 8.01088 3.33398 10H0.833984L4.13398 13.3583L7.50065 10H5.00065C5.00065 8.4529 5.61523 6.96917 6.7092 5.87521C7.80316 4.78125 9.28689 4.16667 10.834 4.16667C12.3811 4.16667 13.8648 4.78125 14.9588 5.87521C16.0527 6.96917 16.6673 8.4529 16.6673 10C16.6673 11.5471 16.0527 13.0308 14.9588 14.1248C13.8648 15.2188 12.3811 15.8333 10.834 15.8333C9.22565 15.8333 7.76732 15.175 6.71732 14.1167L5.53398 15.3C6.22688 16.0005 7.05247 16.5559 7.96248 16.9336C8.8725 17.3114 9.84869 17.5039 10.834 17.5C12.8231 17.5 14.7308 16.7098 16.1373 15.3033C17.5438 13.8968 18.334 11.9891 18.334 10C18.334 8.01088 17.5438 6.10322 16.1373 4.6967C14.7308 3.29018 12.8231 2.5 10.834 2.5Z" fill="#FAFAFA" fill-opacity="0.84"/>
</svg>
