<svg width="160" height="45" viewBox="0 0 160 45" fill="none" xmlns="http://www.w3.org/2000/svg">
<g filter="url(#filter0_dd_5841_1771)">
<path d="M16.6014 28.2994L16.8333 30.1317C16.8333 30.3173 16.7985 30.5106 16.7289 30.7116C16.6671 30.9126 16.5627 31.0131 16.4158 31.0131C16.1839 31.0131 16.0679 30.727 16.0679 30.1549C16.0679 29.9152 16.122 29.5596 16.2303 29.088C16.3385 28.6241 16.3926 28.2685 16.3926 28.021C16.3926 27.5417 16.1452 27.2711 15.6504 27.2092C13.6866 26.9155 12.2409 26.4206 11.3131 25.7248C10.4317 25.0754 9.88277 24.3563 9.66629 23.5677C9.44981 22.7714 9.33771 22.1374 9.32997 21.6658C9.30678 20.8076 9.14829 20.2471 8.85449 19.9842L8.95887 19.8683C9.18308 20.077 9.38409 20.1814 9.56192 20.1814C10.2423 20.1814 11.0889 20.0925 12.1017 19.9146C13.1222 19.7291 13.8219 19.617 14.2008 19.5783C14.5873 19.5319 14.9198 19.3348 15.1981 18.9869L15.4533 19.184C15.2059 19.4933 15.0822 19.8451 15.0822 20.2394C15.0822 20.6337 15.1208 21.0086 15.1981 21.3643C15.2832 21.7122 15.4107 22.0369 15.5808 22.3384C15.9674 23.0111 16.5782 23.3474 17.4132 23.3474C18.2559 23.3474 18.8976 23.1039 19.3383 22.6168C19.779 22.1297 19.9993 21.4648 19.9993 20.6221L20.0109 12.2837C20.0109 11.7967 19.864 11.4101 19.5702 11.124L19.8022 10.8805C20.1114 11.1897 20.498 11.3444 20.9619 11.3444H24.9977C25.4693 11.3444 25.8559 11.1897 26.1574 10.8805L26.3894 11.124C26.0878 11.4178 25.9371 11.8044 25.9371 12.2837V21.3063C25.9371 23.8345 24.7812 25.5779 22.4695 26.5366H22.4579V29.0532C22.4579 29.3238 22.5198 29.722 22.6435 30.2477C22.7749 30.7734 22.8406 31.1677 22.8406 31.4306C22.8406 31.8481 22.6744 32.0568 22.342 32.0568C22.0559 32.0568 21.9129 31.8945 21.9129 31.5698C21.9129 31.2528 21.9631 30.8546 22.0636 30.3753C22.1641 29.8959 22.2144 29.4861 22.2144 29.146C22.2144 28.8058 22.052 28.4617 21.7273 28.1138C21.1011 27.4567 20.2893 27.1281 19.2919 27.1281C19.0213 27.1281 18.8126 27.2247 18.6657 27.418C18.5265 27.619 18.4569 27.8819 18.4569 28.2066C18.4569 28.5313 18.5265 29.0416 18.6657 29.7374C18.8048 30.441 18.8744 30.9281 18.8744 31.1987C18.8744 31.794 18.7198 32.0916 18.4105 32.0916C18.2404 32.0916 18.1167 31.9989 18.0394 31.8133C17.9621 31.6355 17.9235 31.4499 17.9235 31.2566L18.2018 27.8935C18.2018 27.6383 18.0858 27.4296 17.8539 27.2672C17.6219 27.1126 17.3745 27.0353 17.1117 27.0353C16.7715 27.0353 16.6014 27.4567 16.6014 28.2994ZM22.7131 35.8027C22.7131 36.0888 22.6164 36.2318 22.4231 36.2318C22.2299 36.2318 22.1332 36.0927 22.1332 35.8143C22.1332 35.1649 22.2299 34.4265 22.4231 33.5993C22.6164 34.4111 22.7131 35.1456 22.7131 35.8027Z" fill="url(#paint0_linear_5841_1771)"/>
</g>
<g filter="url(#filter1_dd_5841_1771)">
<path d="M32.4715 24.8666L32.2859 23.4286V23.301C32.4483 23.015 32.6686 22.8719 32.947 22.8719L42.4102 22.8835C42.8818 22.8835 43.2645 22.7328 43.5583 22.4312L43.7903 22.6632C43.3573 23.4595 43.1408 24.9014 43.1408 26.9889C43.1408 27.3136 43.2104 27.9399 43.3496 28.8676C43.4965 29.8031 43.5699 30.4217 43.5699 30.7232C43.5699 31.0324 43.5197 31.2605 43.4192 31.4074C43.3187 31.5543 43.1988 31.6278 43.0597 31.6278C42.9205 31.6278 42.7968 31.5466 42.6886 31.3842C42.588 31.2219 42.5378 30.9976 42.5378 30.7116L42.7233 28.1486C42.7233 27.4683 42.6035 26.958 42.3638 26.6178C42.1242 26.2699 41.7994 26.0959 41.3897 26.0959C40.4696 26.0959 40.0096 26.7879 40.0096 28.1718C40.0096 28.7053 40.0869 29.4784 40.2416 30.4912C40.4039 31.5041 40.4851 32.138 40.4851 32.3932C40.4851 32.6483 40.4271 32.8416 40.3111 32.973C40.1952 33.1122 40.0599 33.1818 39.9052 33.1818C39.7583 33.1818 39.6269 33.1161 39.5109 32.9846C39.4027 32.8609 39.3486 32.6908 39.3486 32.4743L39.5573 28.7749C39.5573 27.4219 39.2674 26.7454 38.6875 26.7454L37.8062 26.7686H28.6908C28.0027 26.7686 27.4963 26.9 27.1716 27.1629C26.8005 27.4721 26.6149 28.3458 26.6149 29.7838C26.6149 30.3637 26.7038 31.218 26.8817 32.3468C27.0595 33.4833 27.1484 34.3376 27.1484 34.9097C27.1484 35.737 26.8546 36.1506 26.267 36.1506C25.633 36.1506 25.316 35.7254 25.316 34.875C25.316 34.2951 25.4436 33.4369 25.6988 32.3004C25.9539 31.1639 26.0815 30.3018 26.0815 29.7142L26.0235 25.8292V12.3069C26.0235 11.8276 25.8766 11.4449 25.5828 11.1588L25.8147 10.9153C26.1317 11.2168 26.5183 11.3676 26.9744 11.3676L41.8652 11.3676C42.3368 11.3676 42.7233 11.2168 43.0249 10.9153L43.2568 11.1588C42.9166 11.499 42.7465 12.1639 42.7465 13.1535V13.6754C42.7465 14.549 42.9166 15.1482 43.2568 15.4729L43.0249 15.6933C42.6383 15.299 41.7299 15.1018 40.2995 15.1018L34.5358 15.3686C33.1132 15.3686 32.2086 15.1714 31.822 14.7771L31.5785 15.0091C31.88 15.3029 32.0308 15.6933 32.0308 16.1804C32.0308 16.6597 31.88 17.0463 31.5785 17.3401L31.822 17.5604C32.1931 17.1739 32.974 16.9806 34.1647 16.9806L39.0239 17.2473C40.2222 17.2473 41.0147 17.054 41.4013 16.6675L41.6448 16.8994C41.3046 17.2396 41.1345 17.9509 41.1345 19.0333V19.4856C41.1345 20.3128 41.3046 20.8965 41.6448 21.2367L41.4013 21.4803C41.0302 21.0937 40.2454 20.9004 39.0471 20.9004L34.1879 21.1555C32.9972 21.1555 32.2086 20.9623 31.822 20.5757L31.5901 20.8076C31.9148 21.1401 32.0772 21.7199 32.0772 22.5472L32.054 23.4518L31.8568 24.8434C31.8568 25.1218 31.9573 25.2609 32.1584 25.2609C32.3671 25.2609 32.4715 25.1295 32.4715 24.8666Z" fill="url(#paint1_linear_5841_1771)"/>
</g>
<g filter="url(#filter2_dd_5841_1771)">
<path d="M60.7571 23.7301L60.7107 25.2377C60.7107 26.0805 60.8808 26.6719 61.2209 27.0121L60.9774 27.244C60.6836 26.9425 60.297 26.7917 59.8177 26.7917H56.4429C56.4506 26.9 56.4545 27.043 56.4545 27.2208C56.4545 27.6538 56.3463 27.8703 56.1298 27.8703C55.9133 27.8703 55.8051 27.6267 55.8051 27.1397C55.8051 26.9928 55.8089 26.8768 55.8167 26.7917H45.4372C45.2517 26.7917 45.0893 27.1242 44.9502 27.7891C44.8187 28.4617 44.753 28.9991 44.753 29.4011C44.753 29.8031 44.8458 30.5222 45.0313 31.5582C45.2169 32.6019 45.3097 33.4137 45.3097 33.9936C45.3097 34.5812 45.0816 34.875 44.6254 34.875C44.1306 34.875 43.8832 34.5734 43.8832 33.9704C43.8832 33.3673 43.9876 32.5285 44.1963 31.4538C44.4051 30.3869 44.5095 29.5828 44.5095 29.0416L44.4979 12.2837C44.4979 11.8121 44.3432 11.4255 44.034 11.124L44.2775 10.8805C44.5945 11.1897 44.9811 11.3444 45.4372 11.3444H49.589C50.0606 11.3444 50.4472 11.1897 50.7487 10.8805L50.9923 11.124C50.683 11.4255 50.5284 11.8121 50.5284 12.2837V21.8514C50.5284 22.3153 50.3776 22.698 50.0761 22.9995L50.3196 23.243C50.7139 22.8487 51.576 22.6516 52.9058 22.6516L58.4028 22.9299C59.7249 22.9299 60.5831 22.7328 60.9774 22.3384L61.2209 22.5704C60.9117 22.8719 60.7571 23.2585 60.7571 23.7301ZM56.5241 31.9409C56.5241 32.2579 56.3927 32.4164 56.1298 32.4164C55.8669 32.4164 55.7355 32.2269 55.7355 31.8481C55.7355 31.5156 55.7973 31.1059 55.921 30.6188C56.0525 30.1395 56.1221 29.8805 56.1298 29.8418C56.1453 29.9191 56.1839 30.0776 56.2458 30.3173C56.3076 30.557 56.354 30.7425 56.3849 30.8739C56.4777 31.2682 56.5241 31.6239 56.5241 31.9409Z" fill="url(#paint2_linear_5841_1771)"/>
</g>
<g filter="url(#filter3_dd_5841_1771)">
<path d="M77.383 23.7301L77.3366 25.2377C77.3366 26.0805 77.5067 26.6719 77.8469 27.0121L77.6034 27.244C77.3096 26.9425 76.923 26.7918 76.4437 26.7918L73.0689 26.7918C73.0766 26.9 73.0805 27.043 73.0805 27.2208C73.0805 27.6538 72.9723 27.8703 72.7558 27.8703C72.5393 27.8703 72.4311 27.6267 72.4311 27.1397C72.4311 26.9928 72.4349 26.8768 72.4426 26.7918H62.0632C61.8777 26.7918 61.7153 27.1242 61.5761 27.7891C61.4447 28.4617 61.379 28.9991 61.379 29.4011C61.379 29.8031 61.4718 30.5222 61.6573 31.5582C61.8429 32.6019 61.9356 33.4137 61.9356 33.9936C61.9356 34.5812 61.7076 34.875 61.2514 34.875C60.7566 34.875 60.5092 34.5734 60.5092 33.9704C60.5092 33.3673 60.6136 32.5285 60.8223 31.4538C61.0311 30.3869 61.1354 29.5828 61.1354 29.0416L61.1238 12.2837C61.1238 11.8121 60.9692 11.4255 60.66 11.124L60.9035 10.8805C61.2205 11.1897 61.6071 11.3444 62.0632 11.3444H66.215C66.6866 11.3444 67.0732 11.1897 67.3747 10.8805L67.6182 11.124C67.309 11.4255 67.1544 11.8121 67.1544 12.2837V21.8514C67.1544 22.3153 67.0036 22.698 66.7021 22.9995L66.9456 23.243C67.3399 22.8487 68.202 22.6516 69.5318 22.6516L75.0288 22.9299C76.3509 22.9299 77.2091 22.7328 77.6034 22.3385L77.8469 22.5704C77.5377 22.8719 77.383 23.2585 77.383 23.7301ZM73.1501 31.9409C73.1501 32.2579 73.0186 32.4164 72.7558 32.4164C72.4929 32.4164 72.3615 32.2269 72.3615 31.8481C72.3615 31.5157 72.4233 31.1059 72.547 30.6188C72.6785 30.1395 72.748 29.8805 72.7558 29.8418C72.7712 29.9191 72.8099 30.0776 72.8717 30.3173C72.9336 30.557 72.98 30.7425 73.0109 30.8739C73.1037 31.2682 73.1501 31.6239 73.1501 31.9409Z" fill="url(#paint3_linear_5841_1771)"/>
</g>
<g filter="url(#filter4_dd_5841_1771)">
<path d="M82.4064 30.8971L82.534 28.6241C82.534 27.3252 82.3716 26.6758 82.0469 26.6758C81.7222 26.6758 81.5598 27.0855 81.5598 27.9051V28.2414C81.5598 28.5738 81.6333 29.0687 81.7802 29.7258C81.9348 30.383 82.0121 30.8817 82.0121 31.2219C82.0121 31.7476 81.815 32.0105 81.4207 32.0105C81.0341 32.0105 80.8408 31.7476 80.8408 31.2219C80.8408 30.8662 80.922 30.3482 81.0843 29.6678C81.2467 28.9875 81.3279 28.4695 81.3279 28.1138L81.3047 23.3822C81.3047 23.1425 81.3356 22.957 81.3975 22.8255C81.467 22.6941 81.6062 22.5975 81.815 22.5356L81.699 22.0949C81.5908 22.1258 81.4941 22.1413 81.4091 22.1413C81.3317 22.1413 81.2506 22.1142 81.1655 22.0601C81.065 21.9905 80.949 21.8514 80.8176 21.6426L74.9379 12.0634C74.7059 11.6845 74.3889 11.3753 73.9869 11.1356L74.0913 10.9385C74.4778 11.1549 74.9147 11.2632 75.4017 11.2632L80.0754 11.24C80.5393 11.24 80.8679 11.0738 81.0611 10.7413L81.4207 10.9385C81.3202 11.124 81.2699 11.3289 81.2699 11.5531C81.2699 11.7696 81.4245 12.1446 81.7338 12.678C82.0508 13.2115 82.3948 13.7295 82.7659 14.232C83.1448 14.7346 83.4888 15.2913 83.7981 15.902C84.1151 16.5128 84.2736 17.0424 84.2736 17.4908H84.5171V17.3981C84.5171 16.6713 85.0196 15.6121 86.0247 14.2205C87.0298 12.8288 87.5324 11.8972 87.5324 11.4255C87.5324 11.3018 87.4782 11.1395 87.37 10.9385L87.7295 10.7413C87.9228 11.0738 88.2552 11.24 88.7269 11.24L93.1222 11.2632C93.6015 11.2632 94.0345 11.1549 94.421 10.9385L94.5254 11.1356C94.1079 11.383 93.7871 11.6923 93.5629 12.0634L87.6251 21.6426C87.4241 21.9751 87.2192 22.1413 87.0105 22.1413C86.9254 22.1413 86.8365 22.1258 86.7437 22.0949L86.6046 22.524C86.9757 22.64 87.1612 23.0265 87.1612 23.6837L87.0917 25.2957C87.0917 26.0379 87.254 26.5714 87.5787 26.8961L87.3352 27.1281C87.0337 26.8265 86.651 26.6758 86.1871 26.6758H83.4734C82.9785 26.6758 82.7311 27.3755 82.7311 28.7749L82.9051 30.9319C82.9051 31.2025 82.82 31.3378 82.65 31.3378C82.4876 31.3378 82.4064 31.1909 82.4064 30.8971Z" fill="url(#paint4_linear_5841_1771)"/>
</g>
<g filter="url(#filter5_dd_5841_1771)">
<path d="M126.79 32.2509L126.917 29.166C126.917 28.1687 126.878 27.5386 126.801 27.2757C126.732 27.0128 126.658 26.7809 126.581 26.5799C126.503 26.3788 126.403 26.2165 126.279 26.0928C126.156 25.9691 126.009 25.8531 125.839 25.7449C125.514 25.5284 125.004 25.4201 124.308 25.4201C123.612 25.4201 123.024 25.7023 122.545 26.2667C122.073 26.8311 121.838 27.5076 121.838 28.2962C121.838 28.59 121.896 29.0269 122.011 29.6067C122.127 30.1943 122.185 30.635 122.185 30.9288C122.185 31.4854 121.988 31.7638 121.594 31.7638C121.2 31.7638 121.003 31.4932 121.003 30.952C121.003 30.6505 121.061 30.1982 121.177 29.5951C121.3 28.9921 121.362 28.5359 121.362 28.2267L121.443 25.1186V11.492C121.443 11.0126 121.292 10.6261 120.991 10.3323L121.223 10.0887C121.548 10.398 121.934 10.5526 122.383 10.5526L126.581 10.5526C127.045 10.5526 127.431 10.398 127.74 10.0887L127.972 10.3323C127.671 10.6338 127.52 11.0204 127.52 11.492V25.0606C127.52 25.4627 127.478 26.1546 127.393 27.1365C127.308 28.1261 127.28 28.8877 127.311 29.4212H127.3C127.586 30.7046 127.729 31.6826 127.729 32.3552C127.729 33.0279 127.601 33.3642 127.346 33.3642C126.975 33.3642 126.79 32.9931 126.79 32.2509Z" fill="url(#paint5_linear_5841_1771)"/>
</g>
<g filter="url(#filter6_dd_5841_1771)">
<path d="M135.869 29.5951L136.148 26.4523C136.148 26.2049 136.009 26 135.73 25.8376C135.274 25.5825 134.717 25.4549 134.06 25.4549C133.179 25.4549 132.572 25.6289 132.24 25.9768C132.093 26.1314 132.019 26.3556 132.019 26.6494C132.019 26.951 132.108 27.4728 132.286 28.2151C132.464 28.9573 132.553 29.4791 132.553 29.7807C132.553 30.0899 132.495 30.3335 132.379 30.5113C132.27 30.6968 132.108 30.7896 131.892 30.7896C131.675 30.7896 131.509 30.6968 131.393 30.5113C131.277 30.3335 131.219 30.0899 131.219 29.7807C131.219 29.4714 131.312 28.9379 131.497 28.1803C131.691 27.4226 131.787 26.8505 131.787 26.4639L131.776 12.2458C131.776 11.3335 131.497 10.5719 130.941 9.96116L131.184 9.71762C131.81 10.2743 132.572 10.5526 133.469 10.5526H136.936C137.431 10.5526 137.849 10.4946 138.189 10.3787C138.537 10.255 138.815 10.0153 139.024 9.65964L139.407 9.84519C139.206 10.3245 139.105 10.7768 139.105 11.2021C139.105 11.55 139.716 12.4236 140.937 13.823C142.53 15.6476 143.554 16.8731 144.011 17.4993C144.467 18.1255 144.764 18.632 144.904 19.0185L145.599 19.0185C145.221 18.4619 145.031 17.6771 145.031 16.6643C145.031 16.1927 145.089 15.4891 145.205 14.5536C145.321 13.6104 145.379 12.903 145.379 12.4314C145.379 11.1634 144.977 10.34 144.173 9.96116L144.417 9.71762C145.043 10.2743 145.804 10.5526 146.701 10.5526H149.079C149.975 10.5526 150.737 10.2743 151.363 9.71762L151.595 9.96116C151.046 10.5797 150.772 11.3412 150.772 12.2458L150.749 26.4059C150.749 26.7384 150.826 27.2332 150.98 27.8903C151.135 28.5552 151.212 29.0539 151.212 29.3864C151.212 29.8812 151.023 30.1286 150.644 30.1286C150.265 30.1286 150.076 29.8812 150.076 29.3864C150.076 29.0616 150.149 28.5823 150.296 27.9483C150.443 27.3221 150.517 26.8891 150.517 26.6494C150.517 26.4175 150.439 26.2513 150.285 26.1508C150.13 26.0503 149.979 26 149.832 26L145.252 26C144.602 26 144.277 26.5915 144.277 27.7744C144.277 28.2614 144.366 28.965 144.544 29.885C144.73 30.8128 144.822 31.5125 144.822 31.9841C144.822 32.6568 144.571 32.9931 144.069 32.9931C143.566 32.9931 143.315 32.6529 143.315 31.9725C143.315 31.5396 143.411 30.9095 143.605 30.0822C143.806 29.2549 143.91 28.6326 143.918 28.2151L143.941 26.6726C143.964 25.9536 143.891 25.4859 143.721 25.2694L138.166 18.2299C138.019 18.0366 137.856 17.6346 137.679 17.0238L136.971 17.047C137.373 17.4645 137.574 17.9284 137.574 18.4387V25.0606L137.795 30.9288C137.795 31.0525 137.756 31.1569 137.679 31.2419C137.609 31.3347 137.508 31.3811 137.377 31.3811C137.253 31.3811 137.149 31.327 137.064 31.2187C136.979 31.1182 136.936 31.0022 136.936 30.8708L137.076 26.4175C137.076 26.3247 137.041 26.2397 136.971 26.1624C136.902 26.085 136.82 26.0464 136.728 26.0464C136.527 26.0464 136.426 26.201 136.426 26.5103C136.426 26.8195 136.476 27.3259 136.577 28.0295C136.685 28.7331 136.739 29.2163 136.739 29.4791C136.739 30.0667 136.592 30.3605 136.299 30.3605C136.012 30.3605 135.869 30.1054 135.869 29.5951Z" fill="url(#paint6_linear_5841_1771)"/>
</g>
<g filter="url(#filter7_f_5841_1771)">
<line x1="13.793" y1="15.918" x2="5.08428" y2="24.6266" stroke="#1EACA4" stroke-width="0.237509"/>
</g>
<g filter="url(#filter8_f_5841_1771)">
<path d="M8.5625 19.7925L9.75005 20.5842L10.1459 20.1883H10.9376L11.3334 20.5842L10.5417 21.7717L9.75005 22.1676H8.95835L9.3542 20.98L8.5625 19.7925Z" fill="#1EACA4"/>
</g>
<g filter="url(#filter9_f_5841_1771)">
<path d="M73.8779 11.0837L75.4613 11.4796H76.253H76.6489V13.4588L75.8572 13.063L75.4613 12.6671L75.0655 12.2713L73.8779 11.0837Z" fill="#1EACA4"/>
</g>
<g filter="url(#filter10_f_5841_1771)">
<path d="M150.673 26.5219L150.277 26.126L149.881 25.7302L149.485 26.126L149.485 24.9385L149.485 24.5426L150.277 24.1468L150.673 25.3343L150.673 26.5219Z" fill="#1EACA4"/>
</g>
<g filter="url(#filter11_f_5841_1771)">
<path d="M127.861 10.0122L127.069 11.4392L126.864 12.2039L126.828 12.1677L126.433 11.7719L125.437 11.4117L125.922 11.1318L126.407 10.8519L127.861 10.0122Z" fill="#1EACA4"/>
</g>
<g filter="url(#filter12_f_5841_1771)">
<path d="M42.21 16.6256L41.2638 17.8766L41.2638 18.5621L41.2638 19.001L40.1168 18.2093L39.6616 17.5692L40.1168 17.5692L40.6016 17.2893L42.21 16.6256Z" fill="#1EACA4"/>
</g>
<g filter="url(#filter13_f_5841_1771)">
<path d="M44.9151 33.233L44.9115 33.6092L44.9127 34.3479L44.5133 34.7159L44.1417 34.7159L43.7966 34.3525L43.7966 33.2375L44.5399 33.2375L44.9151 33.233Z" fill="#1EACA4"/>
</g>
<g filter="url(#filter14_f_5841_1771)">
<line x1="44.3281" y1="20.4918" x2="38.1702" y2="14.3338" stroke="#1EACA4" stroke-width="0.237509"/>
</g>
<g filter="url(#filter15_f_5841_1771)">
<line x1="48.543" y1="34.1617" x2="39.8343" y2="34.1617" stroke="#1EACA4" stroke-width="0.237509"/>
</g>
<g filter="url(#filter16_f_5841_1771)">
<line x1="72.21" y1="14.1666" x2="77.7519" y2="8.62475" stroke="#1EACA4" stroke-width="0.237509"/>
</g>
<g filter="url(#filter17_f_5841_1771)">
<line x1="123.833" y1="7.82762" x2="130.167" y2="13.3695" stroke="#1EACA4" stroke-width="0.237509"/>
</g>
<g filter="url(#filter18_f_5841_1771)">
<line x1="154.059" y1="23.8538" x2="146.771" y2="28.0618" stroke="#1EACA4" stroke-width="0.237509"/>
</g>
<path d="M114.106 22.118C113.959 22.1001 113.809 22.1159 113.669 22.1643C113.529 22.2126 113.402 22.2923 113.297 22.3972C113.192 22.5021 113.112 22.6295 113.064 22.7697C113.015 22.91 113 23.0594 113.018 23.2066C113.018 23.936 111.929 23.936 111.929 23.2066V20.7029L113.78 20.1586C114.563 19.7885 115.097 19.0482 115.195 18.1991C115.195 12.3208 111.058 8.51074 105.942 8.51074C100.825 8.51074 96.6888 12.3208 96.6888 18.1991C96.7541 19.07 97.2984 19.832 98.104 20.1586L99.9546 20.7029V23.2066C99.9546 23.351 99.8972 23.4894 99.7951 23.5915C99.6931 23.6936 99.5546 23.7509 99.4103 23.7509C99.2659 23.7509 99.1275 23.6936 99.0254 23.5915C98.9233 23.4894 98.866 23.351 98.866 23.2066C98.8839 23.0594 98.8681 22.91 98.8197 22.7697C98.7714 22.6295 98.6917 22.5021 98.5868 22.3972C98.4819 22.2923 98.3545 22.2126 98.2143 22.1643C98.0741 22.1159 97.9247 22.1001 97.7774 22.118C97.6301 22.1001 97.4807 22.1159 97.3405 22.1643C97.2002 22.2126 97.0729 22.2923 96.968 22.3972C96.8631 22.5021 96.7834 22.6295 96.7351 22.7697C96.6867 22.91 96.6709 23.0594 96.6888 23.2066C96.6724 23.5684 96.7316 23.9296 96.8625 24.2672C96.9935 24.6048 97.1934 24.9114 97.4494 25.1675C97.7055 25.4235 98.0121 25.6234 98.3497 25.7544C98.6873 25.8853 99.0485 25.9445 99.4103 25.9281C100.945 25.9934 102.197 24.7415 102.132 23.2066V21.2472H103.22V27.4521C103.22 28.1815 102.132 28.1815 102.132 27.4521C102.15 27.3049 102.134 27.1554 102.086 27.0152C102.037 26.875 101.957 26.7476 101.853 26.6427C101.748 26.5378 101.62 26.4581 101.48 26.4098C101.34 26.3614 101.19 26.3456 101.043 26.3635C100.896 26.3456 100.746 26.3614 100.606 26.4098C100.466 26.4581 100.339 26.5378 100.234 26.6427C100.129 26.7476 100.049 26.875 100.001 27.0152C99.9524 27.1554 99.9366 27.3049 99.9546 27.4521C99.9232 27.8224 99.9712 28.1951 100.095 28.5454C100.22 28.8957 100.417 29.2154 100.675 29.4833C100.932 29.7512 101.244 29.9611 101.589 30.0989C101.934 30.2367 102.305 30.2992 102.676 30.2824C104.211 30.3477 105.463 29.0959 105.397 27.561V21.5738H106.486V27.561C106.47 27.9227 106.529 28.2839 106.66 28.6215C106.791 28.9591 106.991 29.2657 107.247 29.5218C107.503 29.7779 107.809 29.9777 108.147 30.1087C108.485 30.2397 108.846 30.2988 109.208 30.2824C110.742 30.3477 111.994 29.0959 111.929 27.561C111.929 26.1132 109.752 26.1132 109.752 27.561C109.752 28.2903 108.663 28.2903 108.663 27.561V21.356H109.752V23.3155C109.752 24.796 110.982 25.9934 112.473 25.9281C114.008 25.9934 115.26 24.7415 115.195 23.2066C115.213 23.0594 115.197 22.91 115.149 22.7697C115.1 22.6295 115.021 22.5021 114.916 22.3972C114.811 22.2923 114.683 22.2126 114.543 22.1643C114.403 22.1159 114.253 22.1001 114.106 22.118ZM104.418 11.4499C103.605 11.6275 102.838 11.9704 102.164 12.4573C101.49 12.9443 100.923 13.5648 100.499 14.2802C100.314 14.498 99.9546 14.5742 99.7369 14.3891C99.623 14.3013 99.548 14.1725 99.5277 14.0302C99.5073 13.8879 99.5433 13.7433 99.628 13.6271C100.672 11.9883 102.311 10.8179 104.2 10.3613C104.494 10.3396 104.755 10.5246 104.853 10.7968C104.919 11.0907 104.723 11.3955 104.418 11.4499Z" fill="url(#paint7_linear_5841_1771)"/>
<g filter="url(#filter19_f_5841_1771)">
<path d="M104.754 11.8754C104.095 11.8754 102.379 12.4296 100.796 14.6463" stroke="#1EACA4" stroke-width="0.791698"/>
</g>
<g filter="url(#filter20_f_5841_1771)">
<line x1="99.134" y1="14.9341" x2="105.484" y2="9.41099" stroke="#1EACA4" stroke-width="0.237509"/>
</g>
<defs>
<filter id="filter0_dd_5841_1771" x="0.937514" y="2.96352" width="33.3691" height="41.1853" filterUnits="userSpaceOnUse" color-interpolation-filters="sRGB">
<feFlood flood-opacity="0" result="BackgroundImageFix"/>
<feColorMatrix in="SourceAlpha" type="matrix" values="0 0 0 0 0 0 0 0 0 0 0 0 0 0 0 0 0 0 127 0" result="hardAlpha"/>
<feOffset/>
<feGaussianBlur stdDeviation="3.95849"/>
<feComposite in2="hardAlpha" operator="out"/>
<feColorMatrix type="matrix" values="0 0 0 0 0.607843 0 0 0 0 0.109804 0 0 0 0 0.737255 0 0 0 0.17 0"/>
<feBlend mode="normal" in2="BackgroundImageFix" result="effect1_dropShadow_5841_1771"/>
<feColorMatrix in="SourceAlpha" type="matrix" values="0 0 0 0 0 0 0 0 0 0 0 0 0 0 0 0 0 0 127 0" result="hardAlpha"/>
<feOffset dy="3.16679"/>
<feGaussianBlur stdDeviation="1.5834"/>
<feComposite in2="hardAlpha" operator="out"/>
<feColorMatrix type="matrix" values="0 0 0 0 0 0 0 0 0 0 0 0 0 0 0 0 0 0 1 0"/>
<feBlend mode="normal" in2="effect1_dropShadow_5841_1771" result="effect2_dropShadow_5841_1771"/>
<feBlend mode="normal" in="SourceGraphic" in2="effect2_dropShadow_5841_1771" result="shape"/>
</filter>
<filter id="filter1_dd_5841_1771" x="17.3994" y="2.99831" width="34.3076" height="41.0693" filterUnits="userSpaceOnUse" color-interpolation-filters="sRGB">
<feFlood flood-opacity="0" result="BackgroundImageFix"/>
<feColorMatrix in="SourceAlpha" type="matrix" values="0 0 0 0 0 0 0 0 0 0 0 0 0 0 0 0 0 0 127 0" result="hardAlpha"/>
<feOffset/>
<feGaussianBlur stdDeviation="3.95849"/>
<feComposite in2="hardAlpha" operator="out"/>
<feColorMatrix type="matrix" values="0 0 0 0 0.607843 0 0 0 0 0.109804 0 0 0 0 0.737255 0 0 0 0.17 0"/>
<feBlend mode="normal" in2="BackgroundImageFix" result="effect1_dropShadow_5841_1771"/>
<feColorMatrix in="SourceAlpha" type="matrix" values="0 0 0 0 0 0 0 0 0 0 0 0 0 0 0 0 0 0 127 0" result="hardAlpha"/>
<feOffset dy="3.16679"/>
<feGaussianBlur stdDeviation="1.5834"/>
<feComposite in2="hardAlpha" operator="out"/>
<feColorMatrix type="matrix" values="0 0 0 0 0 0 0 0 0 0 0 0 0 0 0 0 0 0 1 0"/>
<feBlend mode="normal" in2="effect1_dropShadow_5841_1771" result="effect2_dropShadow_5841_1771"/>
<feBlend mode="normal" in="SourceGraphic" in2="effect2_dropShadow_5841_1771" result="shape"/>
</filter>
<filter id="filter2_dd_5841_1771" x="35.9658" y="2.96352" width="33.1718" height="39.8285" filterUnits="userSpaceOnUse" color-interpolation-filters="sRGB">
<feFlood flood-opacity="0" result="BackgroundImageFix"/>
<feColorMatrix in="SourceAlpha" type="matrix" values="0 0 0 0 0 0 0 0 0 0 0 0 0 0 0 0 0 0 127 0" result="hardAlpha"/>
<feOffset/>
<feGaussianBlur stdDeviation="3.95849"/>
<feComposite in2="hardAlpha" operator="out"/>
<feColorMatrix type="matrix" values="0 0 0 0 0.607843 0 0 0 0 0.109804 0 0 0 0 0.737255 0 0 0 0.17 0"/>
<feBlend mode="normal" in2="BackgroundImageFix" result="effect1_dropShadow_5841_1771"/>
<feColorMatrix in="SourceAlpha" type="matrix" values="0 0 0 0 0 0 0 0 0 0 0 0 0 0 0 0 0 0 127 0" result="hardAlpha"/>
<feOffset dy="3.16679"/>
<feGaussianBlur stdDeviation="1.5834"/>
<feComposite in2="hardAlpha" operator="out"/>
<feColorMatrix type="matrix" values="0 0 0 0 0 0 0 0 0 0 0 0 0 0 0 0 0 0 1 0"/>
<feBlend mode="normal" in2="effect1_dropShadow_5841_1771" result="effect2_dropShadow_5841_1771"/>
<feBlend mode="normal" in="SourceGraphic" in2="effect2_dropShadow_5841_1771" result="shape"/>
</filter>
<filter id="filter3_dd_5841_1771" x="52.5918" y="2.96352" width="33.1718" height="39.8285" filterUnits="userSpaceOnUse" color-interpolation-filters="sRGB">
<feFlood flood-opacity="0" result="BackgroundImageFix"/>
<feColorMatrix in="SourceAlpha" type="matrix" values="0 0 0 0 0 0 0 0 0 0 0 0 0 0 0 0 0 0 127 0" result="hardAlpha"/>
<feOffset/>
<feGaussianBlur stdDeviation="3.95849"/>
<feComposite in2="hardAlpha" operator="out"/>
<feColorMatrix type="matrix" values="0 0 0 0 0.607843 0 0 0 0 0.109804 0 0 0 0 0.737255 0 0 0 0.17 0"/>
<feBlend mode="normal" in2="BackgroundImageFix" result="effect1_dropShadow_5841_1771"/>
<feColorMatrix in="SourceAlpha" type="matrix" values="0 0 0 0 0 0 0 0 0 0 0 0 0 0 0 0 0 0 127 0" result="hardAlpha"/>
<feOffset dy="3.16679"/>
<feGaussianBlur stdDeviation="1.5834"/>
<feComposite in2="hardAlpha" operator="out"/>
<feColorMatrix type="matrix" values="0 0 0 0 0 0 0 0 0 0 0 0 0 0 0 0 0 0 1 0"/>
<feBlend mode="normal" in2="effect1_dropShadow_5841_1771" result="effect2_dropShadow_5841_1771"/>
<feBlend mode="normal" in="SourceGraphic" in2="effect2_dropShadow_5841_1771" result="shape"/>
</filter>
<filter id="filter4_dd_5841_1771" x="66.0703" y="2.82436" width="36.372" height="37.1031" filterUnits="userSpaceOnUse" color-interpolation-filters="sRGB">
<feFlood flood-opacity="0" result="BackgroundImageFix"/>
<feColorMatrix in="SourceAlpha" type="matrix" values="0 0 0 0 0 0 0 0 0 0 0 0 0 0 0 0 0 0 127 0" result="hardAlpha"/>
<feOffset/>
<feGaussianBlur stdDeviation="3.95849"/>
<feComposite in2="hardAlpha" operator="out"/>
<feColorMatrix type="matrix" values="0 0 0 0 0.607843 0 0 0 0 0.109804 0 0 0 0 0.737255 0 0 0 0.17 0"/>
<feBlend mode="normal" in2="BackgroundImageFix" result="effect1_dropShadow_5841_1771"/>
<feColorMatrix in="SourceAlpha" type="matrix" values="0 0 0 0 0 0 0 0 0 0 0 0 0 0 0 0 0 0 127 0" result="hardAlpha"/>
<feOffset dy="3.16679"/>
<feGaussianBlur stdDeviation="1.5834"/>
<feComposite in2="hardAlpha" operator="out"/>
<feColorMatrix type="matrix" values="0 0 0 0 0 0 0 0 0 0 0 0 0 0 0 0 0 0 1 0"/>
<feBlend mode="normal" in2="effect1_dropShadow_5841_1771" result="effect2_dropShadow_5841_1771"/>
<feBlend mode="normal" in="SourceGraphic" in2="effect2_dropShadow_5841_1771" result="shape"/>
</filter>
<filter id="filter5_dd_5841_1771" x="113.074" y="2.17177" width="22.8154" height="39.1093" filterUnits="userSpaceOnUse" color-interpolation-filters="sRGB">
<feFlood flood-opacity="0" result="BackgroundImageFix"/>
<feColorMatrix in="SourceAlpha" type="matrix" values="0 0 0 0 0 0 0 0 0 0 0 0 0 0 0 0 0 0 127 0" result="hardAlpha"/>
<feOffset/>
<feGaussianBlur stdDeviation="3.95849"/>
<feComposite in2="hardAlpha" operator="out"/>
<feColorMatrix type="matrix" values="0 0 0 0 0.607843 0 0 0 0 0.109804 0 0 0 0 0.737255 0 0 0 0.17 0"/>
<feBlend mode="normal" in2="BackgroundImageFix" result="effect1_dropShadow_5841_1771"/>
<feColorMatrix in="SourceAlpha" type="matrix" values="0 0 0 0 0 0 0 0 0 0 0 0 0 0 0 0 0 0 127 0" result="hardAlpha"/>
<feOffset dy="3.16679"/>
<feGaussianBlur stdDeviation="1.5834"/>
<feComposite in2="hardAlpha" operator="out"/>
<feColorMatrix type="matrix" values="0 0 0 0 0 0 0 0 0 0 0 0 0 0 0 0 0 0 1 0"/>
<feBlend mode="normal" in2="effect1_dropShadow_5841_1771" result="effect2_dropShadow_5841_1771"/>
<feBlend mode="normal" in="SourceGraphic" in2="effect2_dropShadow_5841_1771" result="shape"/>
</filter>
<filter id="filter6_dd_5841_1771" x="123.023" y="1.74269" width="36.4883" height="39.1673" filterUnits="userSpaceOnUse" color-interpolation-filters="sRGB">
<feFlood flood-opacity="0" result="BackgroundImageFix"/>
<feColorMatrix in="SourceAlpha" type="matrix" values="0 0 0 0 0 0 0 0 0 0 0 0 0 0 0 0 0 0 127 0" result="hardAlpha"/>
<feOffset/>
<feGaussianBlur stdDeviation="3.95849"/>
<feComposite in2="hardAlpha" operator="out"/>
<feColorMatrix type="matrix" values="0 0 0 0 0.607843 0 0 0 0 0.109804 0 0 0 0 0.737255 0 0 0 0.17 0"/>
<feBlend mode="normal" in2="BackgroundImageFix" result="effect1_dropShadow_5841_1771"/>
<feColorMatrix in="SourceAlpha" type="matrix" values="0 0 0 0 0 0 0 0 0 0 0 0 0 0 0 0 0 0 127 0" result="hardAlpha"/>
<feOffset dy="3.16679"/>
<feGaussianBlur stdDeviation="1.5834"/>
<feComposite in2="hardAlpha" operator="out"/>
<feColorMatrix type="matrix" values="0 0 0 0 0 0 0 0 0 0 0 0 0 0 0 0 0 0 1 0"/>
<feBlend mode="normal" in2="effect1_dropShadow_5841_1771" result="effect2_dropShadow_5841_1771"/>
<feBlend mode="normal" in="SourceGraphic" in2="effect2_dropShadow_5841_1771" result="shape"/>
</filter>
<filter id="filter7_f_5841_1771" x="4.2083" y="15.0423" width="10.4603" height="10.46" filterUnits="userSpaceOnUse" color-interpolation-filters="sRGB">
<feFlood flood-opacity="0" result="BackgroundImageFix"/>
<feBlend mode="normal" in="SourceGraphic" in2="BackgroundImageFix" result="shape"/>
<feGaussianBlur stdDeviation="0.395849" result="effect1_foregroundBlur_5841_1771"/>
</filter>
<filter id="filter8_f_5841_1771" x="7.7708" y="19.0008" width="4.3539" height="3.95852" filterUnits="userSpaceOnUse" color-interpolation-filters="sRGB">
<feFlood flood-opacity="0" result="BackgroundImageFix"/>
<feBlend mode="normal" in="SourceGraphic" in2="BackgroundImageFix" result="shape"/>
<feGaussianBlur stdDeviation="0.395849" result="effect1_foregroundBlur_5841_1771"/>
</filter>
<filter id="filter9_f_5841_1771" x="73.0862" y="10.292" width="4.3539" height="3.95852" filterUnits="userSpaceOnUse" color-interpolation-filters="sRGB">
<feFlood flood-opacity="0" result="BackgroundImageFix"/>
<feBlend mode="normal" in="SourceGraphic" in2="BackgroundImageFix" result="shape"/>
<feGaussianBlur stdDeviation="0.395849" result="effect1_foregroundBlur_5841_1771"/>
</filter>
<filter id="filter10_f_5841_1771" x="148.694" y="23.355" width="2.7709" height="3.95852" filterUnits="userSpaceOnUse" color-interpolation-filters="sRGB">
<feFlood flood-opacity="0" result="BackgroundImageFix"/>
<feBlend mode="normal" in="SourceGraphic" in2="BackgroundImageFix" result="shape"/>
<feGaussianBlur stdDeviation="0.395849" result="effect1_foregroundBlur_5841_1771"/>
</filter>
<filter id="filter11_f_5841_1771" x="124.646" y="9.22051" width="4.00722" height="3.77505" filterUnits="userSpaceOnUse" color-interpolation-filters="sRGB">
<feFlood flood-opacity="0" result="BackgroundImageFix"/>
<feBlend mode="normal" in="SourceGraphic" in2="BackgroundImageFix" result="shape"/>
<feGaussianBlur stdDeviation="0.395849" result="effect1_foregroundBlur_5841_1771"/>
</filter>
<filter id="filter12_f_5841_1771" x="38.8694" y="15.8339" width="4.13222" height="3.95876" filterUnits="userSpaceOnUse" color-interpolation-filters="sRGB">
<feFlood flood-opacity="0" result="BackgroundImageFix"/>
<feBlend mode="normal" in="SourceGraphic" in2="BackgroundImageFix" result="shape"/>
<feGaussianBlur stdDeviation="0.395849" result="effect1_foregroundBlur_5841_1771"/>
</filter>
<filter id="filter13_f_5841_1771" x="43.0536" y="32.4898" width="2.60472" height="2.96947" filterUnits="userSpaceOnUse" color-interpolation-filters="sRGB">
<feFlood flood-opacity="0" result="BackgroundImageFix"/>
<feBlend mode="normal" in="SourceGraphic" in2="BackgroundImageFix" result="shape"/>
<feGaussianBlur stdDeviation="0.37164" result="effect1_foregroundBlur_5841_1771"/>
</filter>
<filter id="filter14_f_5841_1771" x="37.2942" y="13.4582" width="7.90957" height="7.90932" filterUnits="userSpaceOnUse" color-interpolation-filters="sRGB">
<feFlood flood-opacity="0" result="BackgroundImageFix"/>
<feBlend mode="normal" in="SourceGraphic" in2="BackgroundImageFix" result="shape"/>
<feGaussianBlur stdDeviation="0.395849" result="effect1_foregroundBlur_5841_1771"/>
</filter>
<filter id="filter15_f_5841_1771" x="39.0423" y="33.2513" width="10.2924" height="1.82094" filterUnits="userSpaceOnUse" color-interpolation-filters="sRGB">
<feFlood flood-opacity="0" result="BackgroundImageFix"/>
<feBlend mode="normal" in="SourceGraphic" in2="BackgroundImageFix" result="shape"/>
<feGaussianBlur stdDeviation="0.395849" result="effect1_foregroundBlur_5841_1771"/>
</filter>
<filter id="filter16_f_5841_1771" x="71.3343" y="7.74907" width="7.29336" height="7.29323" filterUnits="userSpaceOnUse" color-interpolation-filters="sRGB">
<feFlood flood-opacity="0" result="BackgroundImageFix"/>
<feBlend mode="normal" in="SourceGraphic" in2="BackgroundImageFix" result="shape"/>
<feGaussianBlur stdDeviation="0.395849" result="effect1_foregroundBlur_5841_1771"/>
</filter>
<filter id="filter17_f_5841_1771" x="122.963" y="6.94658" width="8.07363" height="7.30398" filterUnits="userSpaceOnUse" color-interpolation-filters="sRGB">
<feFlood flood-opacity="0" result="BackgroundImageFix"/>
<feBlend mode="normal" in="SourceGraphic" in2="BackgroundImageFix" result="shape"/>
<feGaussianBlur stdDeviation="0.395849" result="effect1_foregroundBlur_5841_1771"/>
</filter>
<filter id="filter18_f_5841_1771" x="145.92" y="22.9593" width="8.99062" height="5.99697" filterUnits="userSpaceOnUse" color-interpolation-filters="sRGB">
<feFlood flood-opacity="0" result="BackgroundImageFix"/>
<feBlend mode="normal" in="SourceGraphic" in2="BackgroundImageFix" result="shape"/>
<feGaussianBlur stdDeviation="0.395849" result="effect1_foregroundBlur_5841_1771"/>
</filter>
<filter id="filter19_f_5841_1771" x="99.6819" y="10.6878" width="5.86367" height="4.98025" filterUnits="userSpaceOnUse" color-interpolation-filters="sRGB">
<feFlood flood-opacity="0" result="BackgroundImageFix"/>
<feBlend mode="normal" in="SourceGraphic" in2="BackgroundImageFix" result="shape"/>
<feGaussianBlur stdDeviation="0.395849" result="effect1_foregroundBlur_5841_1771"/>
</filter>
<filter id="filter20_f_5841_1771" x="98.264" y="8.52971" width="8.08925" height="7.28567" filterUnits="userSpaceOnUse" color-interpolation-filters="sRGB">
<feFlood flood-opacity="0" result="BackgroundImageFix"/>
<feBlend mode="normal" in="SourceGraphic" in2="BackgroundImageFix" result="shape"/>
<feGaussianBlur stdDeviation="0.395849" result="effect1_foregroundBlur_5841_1771"/>
</filter>
<linearGradient id="paint0_linear_5841_1771" x1="18.167" y1="0.791748" x2="18.167" y2="41.7917" gradientUnits="userSpaceOnUse">
<stop offset="0.125" stop-color="#7E7E7E"/>
<stop offset="1" stop-color="#131313"/>
</linearGradient>
<linearGradient id="paint1_linear_5841_1771" x1="34.501" y1="0.791748" x2="34.501" y2="41.7918" gradientUnits="userSpaceOnUse">
<stop offset="0.125" stop-color="#7E7E7E"/>
<stop offset="1" stop-color="#131313"/>
</linearGradient>
<linearGradient id="paint2_linear_5841_1771" x1="52.21" y1="0.791748" x2="52.21" y2="41.7917" gradientUnits="userSpaceOnUse">
<stop offset="0.125" stop-color="#7E7E7E"/>
<stop offset="1" stop-color="#131313"/>
</linearGradient>
<linearGradient id="paint3_linear_5841_1771" x1="68.8359" y1="0.791748" x2="68.8359" y2="41.7918" gradientUnits="userSpaceOnUse">
<stop offset="0.125" stop-color="#7E7E7E"/>
<stop offset="1" stop-color="#131313"/>
</linearGradient>
<linearGradient id="paint4_linear_5841_1771" x1="84.3779" y1="0.791748" x2="84.3779" y2="41.7917" gradientUnits="userSpaceOnUse">
<stop offset="0.125" stop-color="#7E7E7E"/>
<stop offset="1" stop-color="#131313"/>
</linearGradient>
<linearGradient id="paint5_linear_5841_1771" x1="124.505" y1="0" x2="124.505" y2="41" gradientUnits="userSpaceOnUse">
<stop offset="0.270833" stop-color="#7E7E7E"/>
<stop offset="1" stop-color="#131313"/>
</linearGradient>
<linearGradient id="paint6_linear_5841_1771" x1="141.297" y1="0" x2="141.297" y2="41" gradientUnits="userSpaceOnUse">
<stop offset="0.270833" stop-color="#7E7E7E"/>
<stop offset="1" stop-color="#131313"/>
</linearGradient>
<linearGradient id="paint7_linear_5841_1771" x1="105.942" y1="8.51074" x2="105.942" y2="30.2851" gradientUnits="userSpaceOnUse">
<stop offset="0.296875" stop-color="#7E7E7E"/>
<stop offset="1" stop-color="#131313"/>
</linearGradient>
</defs>
</svg>
