<svg width="533" height="6" viewBox="0 0 533 6" fill="none" xmlns="http://www.w3.org/2000/svg">
<path d="M532.165 3L530 0.834937L527.835 3L530 5.16506L532.165 3ZM0.834933 2.99991L2.99997 5.16497L5.16501 2.99991L2.99997 0.834845L0.834933 2.99991ZM530 2.625L527.514 2.625L527.514 3.375L530 3.375L530 2.625ZM522.542 2.625L517.571 2.625L517.571 3.375L522.542 3.375L522.542 2.625ZM512.599 2.625L507.627 2.625L507.627 3.375L512.599 3.375L512.599 2.625ZM502.656 2.625L497.684 2.62499L497.684 3.37499L502.656 3.375L502.656 2.625ZM492.712 2.62499L487.741 2.62499L487.741 3.37499L492.712 3.37499L492.712 2.62499ZM482.769 2.62499L477.797 2.62499L477.797 3.37499L482.769 3.37499L482.769 2.62499ZM472.825 2.62499L467.854 2.62499L467.854 3.37499L472.825 3.37499L472.825 2.62499ZM462.882 2.62499L457.91 2.62499L457.91 3.37499L462.882 3.37499L462.882 2.62499ZM452.939 2.62499L447.967 2.62499L447.967 3.37499L452.939 3.37499L452.939 2.62499ZM442.995 2.62498L438.024 2.62498L438.024 3.37498L442.995 3.37498L442.995 2.62498ZM433.052 2.62498L428.08 2.62498L428.08 3.37498L433.052 3.37498L433.052 2.62498ZM423.108 2.62498L418.137 2.62498L418.137 3.37498L423.108 3.37498L423.108 2.62498ZM413.165 2.62498L408.193 2.62498L408.193 3.37498L413.165 3.37498L413.165 2.62498ZM403.222 2.62498L398.25 2.62498L398.25 3.37498L403.222 3.37498L403.222 2.62498ZM393.278 2.62498L388.307 2.62498L388.307 3.37498L393.278 3.37498L393.278 2.62498ZM383.335 2.62497L378.363 2.62497L378.363 3.37497L383.335 3.37497L383.335 2.62497ZM373.391 2.62497L368.42 2.62497L368.42 3.37497L373.391 3.37497L373.391 2.62497ZM363.448 2.62497L358.476 2.62497L358.476 3.37497L363.448 3.37497L363.448 2.62497ZM353.505 2.62497L348.533 2.62497L348.533 3.37497L353.505 3.37497L353.505 2.62497ZM343.561 2.62497L338.59 2.62497L338.59 3.37497L343.561 3.37497L343.561 2.62497ZM333.618 2.62497L328.646 2.62496L328.646 3.37496L333.618 3.37497L333.618 2.62497ZM323.675 2.62496L318.703 2.62496L318.703 3.37496L323.675 3.37496L323.675 2.62496ZM313.731 2.62496L308.759 2.62496L308.759 3.37496L313.731 3.37496L313.731 2.62496ZM303.788 2.62496L298.816 2.62496L298.816 3.37496L303.788 3.37496L303.788 2.62496ZM293.844 2.62496L288.873 2.62496L288.873 3.37496L293.844 3.37496L293.844 2.62496ZM283.901 2.62496L278.929 2.62496L278.929 3.37496L283.901 3.37496L283.901 2.62496ZM273.958 2.62496L268.986 2.62495L268.986 3.37495L273.958 3.37496L273.958 2.62496ZM264.014 2.62495L259.042 2.62495L259.042 3.37495L264.014 3.37495L264.014 2.62495ZM254.071 2.62495L249.099 2.62495L249.099 3.37495L254.071 3.37495L254.071 2.62495ZM244.127 2.62495L239.156 2.62495L239.156 3.37495L244.127 3.37495L244.127 2.62495ZM234.184 2.62495L229.212 2.62495L229.212 3.37495L234.184 3.37495L234.184 2.62495ZM224.241 2.62495L219.269 2.62495L219.269 3.37495L224.241 3.37495L224.241 2.62495ZM214.297 2.62494L209.325 2.62494L209.325 3.37494L214.297 3.37494L214.297 2.62494ZM204.354 2.62494L199.382 2.62494L199.382 3.37494L204.354 3.37494L204.354 2.62494ZM194.41 2.62494L189.439 2.62494L189.439 3.37494L194.41 3.37494L194.41 2.62494ZM184.467 2.62494L179.495 2.62494L179.495 3.37494L184.467 3.37494L184.467 2.62494ZM174.523 2.62494L169.552 2.62494L169.552 3.37494L174.523 3.37494L174.523 2.62494ZM164.58 2.62494L159.608 2.62494L159.608 3.37494L164.58 3.37494L164.58 2.62494ZM154.637 2.62493L149.665 2.62493L149.665 3.37493L154.637 3.37493L154.637 2.62493ZM144.693 2.62493L139.721 2.62493L139.721 3.37493L144.693 3.37493L144.693 2.62493ZM134.75 2.62493L129.778 2.62493L129.778 3.37493L134.75 3.37493L134.75 2.62493ZM124.806 2.62493L119.835 2.62493L119.835 3.37493L124.806 3.37493L124.806 2.62493ZM114.863 2.62493L109.891 2.62493L109.891 3.37493L114.863 3.37493L114.863 2.62493ZM104.919 2.62493L99.9477 2.62492L99.9477 3.37492L104.919 3.37493L104.919 2.62493ZM94.976 2.62492L90.0043 2.62492L90.0043 3.37492L94.976 3.37492L94.976 2.62492ZM85.0326 2.62492L80.0609 2.62492L80.0609 3.37492L85.0326 3.37492L85.0326 2.62492ZM75.0892 2.62492L70.1175 2.62492L70.1175 3.37492L75.0892 3.37492L75.0892 2.62492ZM65.1458 2.62492L60.1741 2.62492L60.1741 3.37492L65.1458 3.37492L65.1458 2.62492ZM55.2024 2.62492L50.2307 2.62492L50.2307 3.37492L55.2024 3.37492L55.2024 2.62492ZM45.259 2.62492L40.2873 2.62491L40.2873 3.37491L45.259 3.37492L45.259 2.62492ZM35.3155 2.62491L30.3438 2.62491L30.3438 3.37491L35.3155 3.37491L35.3155 2.62491ZM25.3721 2.62491L20.4004 2.62491L20.4004 3.37491L25.3721 3.37491L25.3721 2.62491ZM15.4287 2.62491L10.4571 2.62491L10.4571 3.37491L15.4287 3.37491L15.4287 2.62491ZM5.48538 2.62491L2.99997 2.62491L2.99997 3.37491L5.48538 3.37491L5.48538 2.62491Z" fill="url(#paint0_linear_5841_2551)"/>
<defs>
<linearGradient id="paint0_linear_5841_2551" x1="518.289" y1="1.50008" x2="-17.5048" y2="54.3577" gradientUnits="userSpaceOnUse">
<stop stop-color="#C7C7C7" stop-opacity="0.42"/>
<stop offset="1" stop-color="#C7C7C7" stop-opacity="0"/>
</linearGradient>
</defs>
</svg>
