<svg width="160" height="45" viewBox="0 0 160 45" fill="none" xmlns="http://www.w3.org/2000/svg">
<g filter="url(#filter0_dd_12_1017)">
<path d="M16.6011 28.2993L16.8331 30.1317C16.8331 30.3172 16.7983 30.5105 16.7287 30.7115C16.6669 30.9125 16.5625 31.013 16.4156 31.013C16.1836 31.013 16.0677 30.727 16.0677 30.1549C16.0677 29.9152 16.1218 29.5595 16.23 29.0879C16.3383 28.624 16.3924 28.2684 16.3924 28.021C16.3924 27.5416 16.145 27.271 15.6502 27.2092C13.6864 26.9154 12.2406 26.4206 11.3128 25.7248C10.4315 25.0753 9.88253 24.3563 9.66605 23.5677C9.44957 22.7713 9.33746 22.1374 9.32973 21.6658C9.30654 20.8076 9.14804 20.247 8.85425 19.9842L8.95862 19.8682C9.18283 20.0769 9.38385 20.1813 9.56167 20.1813C10.242 20.1813 11.0886 20.0924 12.1014 19.9146C13.122 19.729 13.8217 19.6169 14.2005 19.5783C14.5871 19.5319 14.9195 19.3347 15.1979 18.9868L15.453 19.184C15.2056 19.4932 15.0819 19.845 15.0819 20.2393C15.0819 20.6336 15.1206 21.0086 15.1979 21.3642C15.2829 21.7121 15.4105 22.0369 15.5806 22.3384C15.9672 23.011 16.5779 23.3473 17.4129 23.3473C18.2557 23.3473 18.8974 23.1038 19.3381 22.6167C19.7787 22.1296 19.9991 21.4647 19.9991 20.622L20.0107 12.2837C20.0107 11.7966 19.8638 11.41 19.57 11.124L19.8019 10.8804C20.1112 11.1897 20.4978 11.3443 20.9617 11.3443H24.9975C25.4691 11.3443 25.8556 11.1897 26.1572 10.8804L26.3891 11.124C26.0876 11.4178 25.9368 11.8043 25.9368 12.2837V21.3062C25.9368 23.8344 24.781 25.5779 22.4693 26.5366H22.4577V29.0531C22.4577 29.3237 22.5195 29.7219 22.6432 30.2476C22.7747 30.7734 22.8404 31.1677 22.8404 31.4305C22.8404 31.848 22.6742 32.0568 22.3417 32.0568C22.0557 32.0568 21.9126 31.8944 21.9126 31.5697C21.9126 31.2527 21.9629 30.8546 22.0634 30.3752C22.1639 29.8959 22.2141 29.4861 22.2141 29.1459C22.2141 28.8057 22.0518 28.4617 21.7271 28.1138C21.1008 27.4566 20.289 27.128 19.2917 27.128C19.0211 27.128 18.8123 27.2246 18.6654 27.4179C18.5263 27.6189 18.4567 27.8818 18.4567 28.2065C18.4567 28.5313 18.5263 29.0415 18.6654 29.7374C18.8046 30.4409 18.8742 30.928 18.8742 31.1986C18.8742 31.7939 18.7195 32.0916 18.4103 32.0916C18.2402 32.0916 18.1165 31.9988 18.0392 31.8132C17.9619 31.6354 17.9232 31.4499 17.9232 31.2566L18.2015 27.8934C18.2015 27.6383 18.0856 27.4295 17.8536 27.2672C17.6217 27.1125 17.3743 27.0352 17.1114 27.0352C16.7712 27.0352 16.6011 27.4566 16.6011 28.2993ZM22.7128 35.8027C22.7128 36.0887 22.6162 36.2318 22.4229 36.2318C22.2296 36.2318 22.133 36.0926 22.133 35.8143C22.133 35.1648 22.2296 34.4265 22.4229 33.5992C22.6162 34.411 22.7128 35.1455 22.7128 35.8027Z" fill="url(#paint0_linear_12_1017)"/>
</g>
<g filter="url(#filter1_dd_12_1017)">
<path d="M32.4712 24.8666L32.2857 23.4285V23.301C32.448 23.0149 32.6684 22.8719 32.9467 22.8719L42.41 22.8835C42.8816 22.8835 43.2643 22.7327 43.5581 22.4312L43.79 22.6631C43.3571 23.4594 43.1406 24.9014 43.1406 26.9888C43.1406 27.3136 43.2102 27.9398 43.3493 28.8676C43.4962 29.8031 43.5697 30.4216 43.5697 30.7231C43.5697 31.0324 43.5194 31.2605 43.4189 31.4074C43.3184 31.5542 43.1986 31.6277 43.0594 31.6277C42.9203 31.6277 42.7966 31.5465 42.6883 31.3842C42.5878 31.2218 42.5375 30.9976 42.5375 30.7115L42.7231 28.1486C42.7231 27.4682 42.6033 26.9579 42.3636 26.6177C42.1239 26.2698 41.7992 26.0959 41.3894 26.0959C40.4694 26.0959 40.0094 26.7878 40.0094 28.1717C40.0094 28.7052 40.0867 29.4784 40.2413 30.4912C40.4037 31.504 40.4849 32.138 40.4849 32.3931C40.4849 32.6482 40.4269 32.8415 40.3109 32.973C40.1949 33.1121 40.0596 33.1817 39.905 33.1817C39.7581 33.1817 39.6267 33.116 39.5107 32.9846C39.4025 32.8609 39.3483 32.6908 39.3483 32.4743L39.5571 28.7748C39.5571 27.4218 39.2672 26.7453 38.6873 26.7453L37.8059 26.7685H28.6906C28.0025 26.7685 27.4961 26.8999 27.1713 27.1628C26.8002 27.4721 26.6147 28.3457 26.6147 29.7838C26.6147 30.3636 26.7036 31.2179 26.8814 32.3467C27.0592 33.4832 27.1481 34.3376 27.1481 34.9097C27.1481 35.7369 26.8544 36.1506 26.2668 36.1506C25.6328 36.1506 25.3158 35.7254 25.3158 34.8749C25.3158 34.295 25.4434 33.4368 25.6985 32.3003C25.9536 31.1638 26.0812 30.3018 26.0812 29.7142L26.0232 25.8291V12.3069C26.0232 11.8275 25.8763 11.4448 25.5825 11.1587L25.8145 10.9152C26.1315 11.2167 26.518 11.3675 26.9742 11.3675L41.8649 11.3675C42.3365 11.3675 42.7231 11.2167 43.0246 10.9152L43.2566 11.1587C42.9164 11.4989 42.7463 12.1638 42.7463 13.1535V13.6753C42.7463 14.549 42.9164 15.1482 43.2566 15.4729L43.0246 15.6932C42.6381 15.2989 41.7296 15.1018 40.2993 15.1018L34.5355 15.3685C33.1129 15.3685 32.2084 15.1714 31.8218 14.7771L31.5783 15.009C31.8798 15.3028 32.0305 15.6932 32.0305 16.1803C32.0305 16.6597 31.8798 17.0462 31.5783 17.34L31.8218 17.5604C32.1929 17.1738 32.9738 16.9805 34.1644 16.9805L39.0236 17.2472C40.222 17.2472 41.0145 17.054 41.401 16.6674L41.6446 16.8993C41.3044 17.2395 41.1343 17.9508 41.1343 19.0332V19.4855C41.1343 20.3128 41.3044 20.8965 41.6446 21.2367L41.401 21.4802C41.0299 21.0936 40.2452 20.9003 39.0468 20.9003L34.1876 21.1555C32.997 21.1555 32.2084 20.9622 31.8218 20.5756L31.5899 20.8076C31.9146 21.14 32.0769 21.7199 32.0769 22.5471L32.0537 23.4517L31.8566 24.8434C31.8566 25.1217 31.9571 25.2609 32.1581 25.2609C32.3669 25.2609 32.4712 25.1294 32.4712 24.8666Z" fill="url(#paint1_linear_12_1017)"/>
</g>
<g filter="url(#filter2_dd_12_1017)">
<path d="M60.7569 23.73L60.7105 25.2377C60.7105 26.0804 60.8806 26.6718 61.2208 27.012L60.9773 27.244C60.6835 26.9424 60.2969 26.7917 59.8176 26.7917H56.4428C56.4505 26.8999 56.4544 27.043 56.4544 27.2208C56.4544 27.6537 56.3462 27.8702 56.1297 27.8702C55.9132 27.8702 55.805 27.6267 55.805 27.1396C55.805 26.9927 55.8088 26.8767 55.8165 26.7917H45.4371C45.2516 26.7917 45.0892 27.1241 44.95 27.789C44.8186 28.4617 44.7529 28.999 44.7529 29.401C44.7529 29.8031 44.8457 30.5221 45.0312 31.5581C45.2168 32.6019 45.3095 33.4137 45.3095 33.9935C45.3095 34.5811 45.0815 34.8749 44.6253 34.8749C44.1305 34.8749 43.8831 34.5734 43.8831 33.9703C43.8831 33.3673 43.9875 32.5284 44.1962 31.4537C44.405 30.3868 44.5093 29.5827 44.5093 29.0415L44.4977 12.2837C44.4977 11.8121 44.3431 11.4255 44.0339 11.124L44.2774 10.8804C44.5944 11.1897 44.981 11.3443 45.4371 11.3443H49.5889C50.0605 11.3443 50.4471 11.1897 50.7486 10.8804L50.9921 11.124C50.6829 11.4255 50.5283 11.8121 50.5283 12.2837V21.8513C50.5283 22.3152 50.3775 22.6979 50.076 22.9994L50.3195 23.243C50.7138 22.8487 51.5759 22.6515 52.9057 22.6515L58.4027 22.9298C59.7248 22.9298 60.583 22.7327 60.9773 22.3384L61.2208 22.5703C60.9116 22.8719 60.7569 23.2584 60.7569 23.73ZM56.524 31.9408C56.524 32.2578 56.3925 32.4163 56.1297 32.4163C55.8668 32.4163 55.7354 32.2269 55.7354 31.848C55.7354 31.5156 55.7972 31.1058 55.9209 30.6187C56.0524 30.1394 56.1219 29.8804 56.1297 29.8417C56.1451 29.919 56.1838 30.0775 56.2456 30.3172C56.3075 30.5569 56.3539 30.7424 56.3848 30.8739C56.4776 31.2682 56.524 31.6238 56.524 31.9408Z" fill="url(#paint2_linear_12_1017)"/>
</g>
<g filter="url(#filter3_dd_12_1017)">
<path d="M77.3825 23.73L77.3362 25.2377C77.3362 26.0804 77.5062 26.6719 77.8464 27.012L77.6029 27.244C77.3091 26.9425 76.9225 26.7917 76.4432 26.7917L73.0684 26.7917C73.0761 26.8999 73.08 27.043 73.08 27.2208C73.08 27.6537 72.9718 27.8702 72.7553 27.8702C72.5388 27.8702 72.4306 27.6267 72.4306 27.1396C72.4306 26.9927 72.4344 26.8767 72.4422 26.7917H62.0627C61.8772 26.7917 61.7148 27.1241 61.5756 27.789C61.4442 28.4617 61.3785 28.999 61.3785 29.401C61.3785 29.8031 61.4713 30.5221 61.6568 31.5581C61.8424 32.6019 61.9352 33.4137 61.9352 33.9935C61.9352 34.5811 61.7071 34.8749 61.2509 34.8749C60.7561 34.8749 60.5087 34.5734 60.5087 33.9703C60.5087 33.3673 60.6131 32.5284 60.8218 31.4537C61.0306 30.3868 61.135 29.5827 61.135 29.0415L61.1234 12.2837C61.1234 11.8121 60.9687 11.4255 60.6595 11.124L60.903 10.8804C61.22 11.1897 61.6066 11.3443 62.0627 11.3443H66.2145C66.6861 11.3443 67.0727 11.1897 67.3742 10.8804L67.6178 11.124C67.3085 11.4255 67.1539 11.8121 67.1539 12.2837V21.8513C67.1539 22.3152 67.0031 22.6979 66.7016 22.9994L66.9451 23.243C67.3394 22.8487 68.2015 22.6515 69.5313 22.6515L75.0283 22.9298C76.3504 22.9298 77.2086 22.7327 77.6029 22.3384L77.8464 22.5703C77.5372 22.8719 77.3825 23.2584 77.3825 23.73ZM73.1496 31.9408C73.1496 32.2578 73.0182 32.4163 72.7553 32.4163C72.4924 32.4163 72.361 32.2269 72.361 31.848C72.361 31.5156 72.4228 31.1058 72.5465 30.6187C72.678 30.1394 72.7476 29.8804 72.7553 29.8417C72.7707 29.9191 72.8094 30.0775 72.8713 30.3172C72.9331 30.5569 72.9795 30.7424 73.0104 30.8739C73.1032 31.2682 73.1496 31.6238 73.1496 31.9408Z" fill="url(#paint3_linear_12_1017)"/>
</g>
<g filter="url(#filter4_dd_12_1017)">
<path d="M82.4062 30.8971L82.5337 28.624C82.5337 27.3252 82.3714 26.6757 82.0467 26.6757C81.7219 26.6757 81.5596 27.0855 81.5596 27.905V28.2413C81.5596 28.5738 81.633 29.0686 81.7799 29.7258C81.9346 30.3829 82.0119 30.8816 82.0119 31.2218C82.0119 31.7475 81.8147 32.0104 81.4204 32.0104C81.0338 32.0104 80.8406 31.7475 80.8406 31.2218C80.8406 30.8661 80.9217 30.3481 81.0841 29.6678C81.2465 28.9874 81.3276 28.4694 81.3276 28.1138L81.3044 23.3821C81.3044 23.1425 81.3354 22.9569 81.3972 22.8255C81.4668 22.694 81.606 22.5974 81.8147 22.5355L81.6987 22.0948C81.5905 22.1258 81.4939 22.1412 81.4088 22.1412C81.3315 22.1412 81.2503 22.1142 81.1653 22.0601C81.0648 21.9905 80.9488 21.8513 80.8174 21.6426L74.9376 12.0633C74.7057 11.6845 74.3887 11.3752 73.9867 11.1356L74.091 10.9384C74.4776 11.1549 74.9144 11.2631 75.4015 11.2631L80.0751 11.2399C80.539 11.2399 80.8676 11.0737 81.0609 10.7413L81.4204 10.9384C81.3199 11.124 81.2697 11.3288 81.2697 11.5531C81.2697 11.7695 81.4243 12.1445 81.7335 12.678C82.0505 13.2114 82.3946 13.7294 82.7657 14.232C83.1445 14.7345 83.4886 15.2912 83.7978 15.902C84.1148 16.5128 84.2733 17.0424 84.2733 17.4908H84.5169V17.398C84.5169 16.6713 85.0194 15.612 86.0245 14.2204C87.0296 12.8287 87.5321 11.8971 87.5321 11.4255C87.5321 11.3018 87.478 11.1394 87.3697 10.9384L87.7293 10.7413C87.9225 11.0737 88.255 11.2399 88.7266 11.2399L93.1219 11.2631C93.6013 11.2631 94.0342 11.1549 94.4208 10.9384L94.5252 11.1356C94.1077 11.383 93.7868 11.6922 93.5626 12.0633L87.6249 21.6426C87.4239 21.975 87.219 22.1412 87.0102 22.1412C86.9252 22.1412 86.8363 22.1258 86.7435 22.0948L86.6043 22.5239C86.9754 22.6399 87.161 23.0265 87.161 23.6837L87.0914 25.2957C87.0914 26.0379 87.2538 26.5713 87.5785 26.8961L87.335 27.128C87.0334 26.8265 86.6507 26.6757 86.1868 26.6757H83.4731C82.9783 26.6757 82.7309 27.3754 82.7309 28.7748L82.9048 30.9319C82.9048 31.2025 82.8198 31.3378 82.6497 31.3378C82.4874 31.3378 82.4062 31.1909 82.4062 30.8971Z" fill="url(#paint4_linear_12_1017)"/>
</g>
<g filter="url(#filter5_dd_12_1017)">
<path d="M126.789 32.2509L126.917 29.166C126.917 28.1687 126.878 27.5386 126.801 27.2757C126.731 27.0128 126.658 26.7809 126.58 26.5799C126.503 26.3788 126.403 26.2165 126.279 26.0928C126.155 25.9691 126.008 25.8531 125.838 25.7449C125.513 25.5284 125.003 25.4201 124.307 25.4201C123.612 25.4201 123.024 25.7023 122.545 26.2667C122.073 26.8311 121.837 27.5076 121.837 28.2962C121.837 28.59 121.895 29.0269 122.011 29.6067C122.127 30.1943 122.185 30.635 122.185 30.9288C122.185 31.4854 121.988 31.7638 121.594 31.7638C121.199 31.7638 121.002 31.4932 121.002 30.952C121.002 30.6505 121.06 30.1982 121.176 29.5951C121.3 28.9921 121.362 28.5359 121.362 28.2267L121.443 25.1186V11.492C121.443 11.0126 121.292 10.6261 120.991 10.3323L121.223 10.0887C121.547 10.398 121.934 10.5526 122.382 10.5526L126.58 10.5526C127.044 10.5526 127.431 10.398 127.74 10.0887L127.972 10.3323C127.671 10.6338 127.52 11.0204 127.52 11.492V25.0606C127.52 25.4627 127.477 26.1546 127.392 27.1365C127.307 28.1261 127.28 28.8877 127.311 29.4212H127.299C127.585 30.7046 127.729 31.6826 127.729 32.3552C127.729 33.0279 127.601 33.3642 127.346 33.3642C126.975 33.3642 126.789 32.9931 126.789 32.2509Z" fill="url(#paint5_linear_12_1017)"/>
</g>
<g filter="url(#filter6_dd_12_1017)">
<path d="M135.869 29.5951L136.147 26.4523C136.147 26.2049 136.008 26 135.73 25.8376C135.274 25.5825 134.717 25.4549 134.06 25.4549C133.179 25.4549 132.572 25.6289 132.239 25.9768C132.092 26.1314 132.019 26.3556 132.019 26.6494C132.019 26.951 132.108 27.4728 132.286 28.2151C132.463 28.9573 132.552 29.4791 132.552 29.7807C132.552 30.0899 132.494 30.3335 132.378 30.5113C132.27 30.6968 132.108 30.7896 131.891 30.7896C131.675 30.7896 131.509 30.6968 131.393 30.5113C131.277 30.3335 131.219 30.0899 131.219 29.7807C131.219 29.4714 131.311 28.9379 131.497 28.1803C131.69 27.4226 131.787 26.8505 131.787 26.4639L131.775 12.2458C131.775 11.3335 131.497 10.5719 130.94 9.96116L131.184 9.71762C131.81 10.2743 132.572 10.5526 133.468 10.5526H136.936C137.431 10.5526 137.848 10.4946 138.188 10.3787C138.536 10.255 138.815 10.0153 139.023 9.65964L139.406 9.84519C139.205 10.3245 139.105 10.7768 139.105 11.2021C139.105 11.55 139.715 12.4236 140.937 13.823C142.53 15.6476 143.554 16.8731 144.01 17.4993C144.466 18.1255 144.764 18.632 144.903 19.0185L145.599 19.0185C145.22 18.4619 145.031 17.6771 145.031 16.6643C145.031 16.1927 145.089 15.4891 145.205 14.5536C145.321 13.6104 145.379 12.903 145.379 12.4314C145.379 11.1634 144.977 10.34 144.173 9.96116L144.416 9.71762C145.042 10.2743 145.804 10.5526 146.701 10.5526H149.078C149.975 10.5526 150.737 10.2743 151.363 9.71762L151.595 9.96116C151.046 10.5797 150.771 11.3412 150.771 12.2458L150.748 26.4059C150.748 26.7384 150.825 27.2332 150.98 27.8903C151.135 28.5552 151.212 29.0539 151.212 29.3864C151.212 29.8812 151.023 30.1286 150.644 30.1286C150.265 30.1286 150.076 29.8812 150.076 29.3864C150.076 29.0616 150.149 28.5823 150.296 27.9483C150.443 27.3221 150.516 26.8891 150.516 26.6494C150.516 26.4175 150.439 26.2513 150.284 26.1508C150.13 26.0503 149.979 26 149.832 26L145.251 26C144.602 26 144.277 26.5915 144.277 27.7744C144.277 28.2614 144.366 28.965 144.544 29.885C144.729 30.8128 144.822 31.5125 144.822 31.9841C144.822 32.6568 144.571 32.9931 144.068 32.9931C143.566 32.9931 143.314 32.6529 143.314 31.9725C143.314 31.5396 143.411 30.9095 143.604 30.0822C143.805 29.2549 143.91 28.6326 143.917 28.2151L143.941 26.6726C143.964 25.9536 143.89 25.4859 143.72 25.2694L138.165 18.2299C138.018 18.0366 137.856 17.6346 137.678 17.0238L136.971 17.047C137.373 17.4645 137.574 17.9284 137.574 18.4387V25.0606L137.794 30.9288C137.794 31.0525 137.756 31.1569 137.678 31.2419C137.609 31.3347 137.508 31.3811 137.377 31.3811C137.253 31.3811 137.149 31.327 137.064 31.2187C136.979 31.1182 136.936 31.0022 136.936 30.8708L137.075 26.4175C137.075 26.3247 137.04 26.2397 136.971 26.1624C136.901 26.085 136.82 26.0464 136.727 26.0464C136.526 26.0464 136.426 26.201 136.426 26.5103C136.426 26.8195 136.476 27.3259 136.576 28.0295C136.685 28.7331 136.739 29.2163 136.739 29.4791C136.739 30.0667 136.592 30.3605 136.298 30.3605C136.012 30.3605 135.869 30.1054 135.869 29.5951Z" fill="url(#paint6_linear_12_1017)"/>
</g>
<g filter="url(#filter7_f_12_1017)">
<line x1="13.7926" y1="15.918" x2="5.08391" y2="24.6266" stroke="#A71930" stroke-width="0.237509"/>
</g>
<g filter="url(#filter8_f_12_1017)">
<path d="M8.56262 19.7924L9.75017 20.5841L10.146 20.1883H10.9377L11.3336 20.5841L10.5419 21.7717L9.75017 22.1675H8.95847L9.35432 20.98L8.56262 19.7924Z" fill="#A71930"/>
</g>
<g filter="url(#filter9_f_12_1017)">
<path d="M73.8777 11.0837L75.4611 11.4796H76.2528H76.6486V13.4588L75.8569 13.063L75.4611 12.6671L75.0652 12.2713L73.8777 11.0837Z" fill="#A71930"/>
</g>
<g filter="url(#filter10_f_12_1017)">
<path d="M150.672 26.5219L150.277 26.126L149.881 25.7302L149.485 26.126L149.485 24.9385L149.485 24.5426L150.277 24.1468L150.672 25.3343L150.672 26.5219Z" fill="#A71930"/>
</g>
<g filter="url(#filter11_f_12_1017)">
<path d="M127.862 10.0122L127.069 11.4392L126.864 12.2039L126.829 12.1677L126.433 11.7719L125.438 11.4117L125.922 11.1318L126.407 10.8519L127.862 10.0122Z" fill="#A71930"/>
</g>
<g filter="url(#filter12_f_12_1017)">
<path d="M42.2098 16.6257L41.2637 17.8767L41.2637 18.5622L41.2637 19.001L40.1166 18.2094L39.6615 17.5693L40.1166 17.5693L40.6014 17.2894L42.2098 16.6257Z" fill="#A71930"/>
</g>
<g filter="url(#filter13_f_12_1017)">
<path d="M44.9148 33.2329L44.9111 33.6091L44.9123 34.3478L44.5129 34.7158L44.1413 34.7158L43.7962 34.3524L43.7962 33.2375L44.5395 33.2375L44.9148 33.2329Z" fill="#A71930"/>
</g>
<g filter="url(#filter14_f_12_1017)">
<line x1="44.3278" y1="20.4918" x2="38.1698" y2="14.3338" stroke="#A71930" stroke-width="0.237509"/>
</g>
<g filter="url(#filter15_f_12_1017)">
<line x1="48.5433" y1="34.1618" x2="39.8347" y2="34.1618" stroke="#A71930" stroke-width="0.237509"/>
</g>
<g filter="url(#filter16_f_12_1017)">
<line x1="72.2103" y1="14.1666" x2="77.7522" y2="8.62469" stroke="#A71930" stroke-width="0.237509"/>
</g>
<g filter="url(#filter17_f_12_1017)">
<line x1="123.833" y1="7.82762" x2="130.166" y2="13.3695" stroke="#A71930" stroke-width="0.237509"/>
</g>
<g filter="url(#filter18_f_12_1017)">
<line x1="154.059" y1="23.8538" x2="146.771" y2="28.0617" stroke="#A71930" stroke-width="0.237509"/>
</g>
<path d="M114.106 22.1181C113.959 22.1002 113.809 22.116 113.669 22.1643C113.529 22.2127 113.402 22.2924 113.297 22.3973C113.192 22.5021 113.112 22.6295 113.064 22.7698C113.015 22.91 113 23.0594 113.018 23.2067C113.018 23.936 111.929 23.936 111.929 23.2067V20.7029L113.78 20.1587C114.563 19.7885 115.097 19.0483 115.195 18.1992C115.195 12.3208 111.058 8.5108 105.942 8.5108C100.825 8.5108 96.6888 12.3208 96.6888 18.1992C96.7541 19.0701 97.2984 19.8321 98.104 20.1587L99.9546 20.7029V23.2067C99.9546 23.351 99.8972 23.4895 99.7951 23.5916C99.6931 23.6936 99.5546 23.751 99.4103 23.751C99.2659 23.751 99.1275 23.6936 99.0254 23.5916C98.9233 23.4895 98.866 23.351 98.866 23.2067C98.8839 23.0594 98.8681 22.91 98.8197 22.7698C98.7714 22.6295 98.6917 22.5021 98.5868 22.3973C98.4819 22.2924 98.3545 22.2127 98.2143 22.1643C98.0741 22.116 97.9247 22.1002 97.7774 22.1181C97.6301 22.1002 97.4807 22.116 97.3405 22.1643C97.2002 22.2127 97.0729 22.2924 96.968 22.3973C96.8631 22.5021 96.7834 22.6295 96.7351 22.7698C96.6867 22.91 96.6709 23.0594 96.6888 23.2067C96.6724 23.5684 96.7316 23.9296 96.8625 24.2672C96.9935 24.6049 97.1934 24.9115 97.4494 25.1675C97.7055 25.4236 98.0121 25.6235 98.3497 25.7544C98.6873 25.8854 99.0485 25.9446 99.4103 25.9282C100.945 25.9935 102.197 24.7416 102.132 23.2067V21.2472H103.22V27.4522C103.22 28.1815 102.132 28.1815 102.132 27.4522C102.15 27.3049 102.134 27.1555 102.086 27.0153C102.037 26.875 101.957 26.7476 101.853 26.6427C101.748 26.5378 101.62 26.4582 101.48 26.4098C101.34 26.3615 101.19 26.3456 101.043 26.3636C100.896 26.3456 100.746 26.3615 100.606 26.4098C100.466 26.4582 100.339 26.5378 100.234 26.6427C100.129 26.7476 100.049 26.875 100.001 27.0153C99.9524 27.1555 99.9366 27.3049 99.9546 27.4522C99.9232 27.8225 99.9712 28.1952 100.095 28.5455C100.22 28.8957 100.417 29.2155 100.675 29.4834C100.932 29.7513 101.244 29.9611 101.589 30.0989C101.934 30.2367 102.305 30.2993 102.676 30.2825C104.211 30.3478 105.463 29.0959 105.397 27.561V21.5738H106.486V27.561C106.47 27.9228 106.529 28.284 106.66 28.6216C106.791 28.9592 106.991 29.2658 107.247 29.5219C107.503 29.7779 107.809 29.9778 108.147 30.1088C108.485 30.2397 108.846 30.2989 109.208 30.2825C110.742 30.3478 111.994 29.0959 111.929 27.561C111.929 26.1132 109.752 26.1132 109.752 27.561C109.752 28.2904 108.663 28.2904 108.663 27.561V21.3561H109.752V23.3156C109.752 24.796 110.982 25.9935 112.473 25.9282C114.008 25.9935 115.26 24.7416 115.195 23.2067C115.213 23.0594 115.197 22.91 115.149 22.7698C115.1 22.6295 115.021 22.5021 114.916 22.3973C114.811 22.2924 114.683 22.2127 114.543 22.1643C114.403 22.116 114.253 22.1002 114.106 22.1181ZM104.418 11.45C103.605 11.6275 102.838 11.9705 102.164 12.4574C101.49 12.9443 100.923 13.5648 100.499 14.2803C100.314 14.498 99.9546 14.5742 99.7369 14.3892C99.623 14.3013 99.548 14.1726 99.5277 14.0303C99.5073 13.888 99.5433 13.7433 99.628 13.6271C100.672 11.9884 102.311 10.8179 104.2 10.3614C104.494 10.3396 104.755 10.5247 104.853 10.7968C104.919 11.0907 104.723 11.3956 104.418 11.45Z" fill="url(#paint7_linear_12_1017)"/>
<g filter="url(#filter19_f_12_1017)">
<path d="M104.753 11.8755C104.094 11.8755 102.378 12.4297 100.795 14.6464" stroke="#A71930" stroke-width="0.791698"/>
</g>
<g filter="url(#filter20_f_12_1017)">
<line x1="99.1336" y1="14.9341" x2="105.484" y2="9.41099" stroke="#A71930" stroke-width="0.237509"/>
</g>
<defs>
<filter id="filter0_dd_12_1017" x="0.93727" y="2.96345" width="33.3689" height="41.1853" filterUnits="userSpaceOnUse" color-interpolation-filters="sRGB">
<feFlood flood-opacity="0" result="BackgroundImageFix"/>
<feColorMatrix in="SourceAlpha" type="matrix" values="0 0 0 0 0 0 0 0 0 0 0 0 0 0 0 0 0 0 127 0" result="hardAlpha"/>
<feOffset/>
<feGaussianBlur stdDeviation="3.95849"/>
<feComposite in2="hardAlpha" operator="out"/>
<feColorMatrix type="matrix" values="0 0 0 0 0.607843 0 0 0 0 0.109804 0 0 0 0 0.737255 0 0 0 0.17 0"/>
<feBlend mode="normal" in2="BackgroundImageFix" result="effect1_dropShadow_12_1017"/>
<feColorMatrix in="SourceAlpha" type="matrix" values="0 0 0 0 0 0 0 0 0 0 0 0 0 0 0 0 0 0 127 0" result="hardAlpha"/>
<feOffset dy="3.16679"/>
<feGaussianBlur stdDeviation="1.5834"/>
<feComposite in2="hardAlpha" operator="out"/>
<feColorMatrix type="matrix" values="0 0 0 0 0 0 0 0 0 0 0 0 0 0 0 0 0 0 1 0"/>
<feBlend mode="normal" in2="effect1_dropShadow_12_1017" result="effect2_dropShadow_12_1017"/>
<feBlend mode="normal" in="SourceGraphic" in2="effect2_dropShadow_12_1017" result="shape"/>
</filter>
<filter id="filter1_dd_12_1017" x="17.3988" y="2.99824" width="34.3082" height="41.0693" filterUnits="userSpaceOnUse" color-interpolation-filters="sRGB">
<feFlood flood-opacity="0" result="BackgroundImageFix"/>
<feColorMatrix in="SourceAlpha" type="matrix" values="0 0 0 0 0 0 0 0 0 0 0 0 0 0 0 0 0 0 127 0" result="hardAlpha"/>
<feOffset/>
<feGaussianBlur stdDeviation="3.95849"/>
<feComposite in2="hardAlpha" operator="out"/>
<feColorMatrix type="matrix" values="0 0 0 0 0.607843 0 0 0 0 0.109804 0 0 0 0 0.737255 0 0 0 0.17 0"/>
<feBlend mode="normal" in2="BackgroundImageFix" result="effect1_dropShadow_12_1017"/>
<feColorMatrix in="SourceAlpha" type="matrix" values="0 0 0 0 0 0 0 0 0 0 0 0 0 0 0 0 0 0 127 0" result="hardAlpha"/>
<feOffset dy="3.16679"/>
<feGaussianBlur stdDeviation="1.5834"/>
<feComposite in2="hardAlpha" operator="out"/>
<feColorMatrix type="matrix" values="0 0 0 0 0 0 0 0 0 0 0 0 0 0 0 0 0 0 1 0"/>
<feBlend mode="normal" in2="effect1_dropShadow_12_1017" result="effect2_dropShadow_12_1017"/>
<feBlend mode="normal" in="SourceGraphic" in2="effect2_dropShadow_12_1017" result="shape"/>
</filter>
<filter id="filter2_dd_12_1017" x="35.9661" y="2.96345" width="33.1717" height="39.8284" filterUnits="userSpaceOnUse" color-interpolation-filters="sRGB">
<feFlood flood-opacity="0" result="BackgroundImageFix"/>
<feColorMatrix in="SourceAlpha" type="matrix" values="0 0 0 0 0 0 0 0 0 0 0 0 0 0 0 0 0 0 127 0" result="hardAlpha"/>
<feOffset/>
<feGaussianBlur stdDeviation="3.95849"/>
<feComposite in2="hardAlpha" operator="out"/>
<feColorMatrix type="matrix" values="0 0 0 0 0.607843 0 0 0 0 0.109804 0 0 0 0 0.737255 0 0 0 0.17 0"/>
<feBlend mode="normal" in2="BackgroundImageFix" result="effect1_dropShadow_12_1017"/>
<feColorMatrix in="SourceAlpha" type="matrix" values="0 0 0 0 0 0 0 0 0 0 0 0 0 0 0 0 0 0 127 0" result="hardAlpha"/>
<feOffset dy="3.16679"/>
<feGaussianBlur stdDeviation="1.5834"/>
<feComposite in2="hardAlpha" operator="out"/>
<feColorMatrix type="matrix" values="0 0 0 0 0 0 0 0 0 0 0 0 0 0 0 0 0 0 1 0"/>
<feBlend mode="normal" in2="effect1_dropShadow_12_1017" result="effect2_dropShadow_12_1017"/>
<feBlend mode="normal" in="SourceGraphic" in2="effect2_dropShadow_12_1017" result="shape"/>
</filter>
<filter id="filter3_dd_12_1017" x="52.5917" y="2.96345" width="33.1717" height="39.8284" filterUnits="userSpaceOnUse" color-interpolation-filters="sRGB">
<feFlood flood-opacity="0" result="BackgroundImageFix"/>
<feColorMatrix in="SourceAlpha" type="matrix" values="0 0 0 0 0 0 0 0 0 0 0 0 0 0 0 0 0 0 127 0" result="hardAlpha"/>
<feOffset/>
<feGaussianBlur stdDeviation="3.95849"/>
<feComposite in2="hardAlpha" operator="out"/>
<feColorMatrix type="matrix" values="0 0 0 0 0.607843 0 0 0 0 0.109804 0 0 0 0 0.737255 0 0 0 0.17 0"/>
<feBlend mode="normal" in2="BackgroundImageFix" result="effect1_dropShadow_12_1017"/>
<feColorMatrix in="SourceAlpha" type="matrix" values="0 0 0 0 0 0 0 0 0 0 0 0 0 0 0 0 0 0 127 0" result="hardAlpha"/>
<feOffset dy="3.16679"/>
<feGaussianBlur stdDeviation="1.5834"/>
<feComposite in2="hardAlpha" operator="out"/>
<feColorMatrix type="matrix" values="0 0 0 0 0 0 0 0 0 0 0 0 0 0 0 0 0 0 1 0"/>
<feBlend mode="normal" in2="effect1_dropShadow_12_1017" result="effect2_dropShadow_12_1017"/>
<feBlend mode="normal" in="SourceGraphic" in2="effect2_dropShadow_12_1017" result="shape"/>
</filter>
<filter id="filter4_dd_12_1017" x="66.0697" y="2.82429" width="36.3724" height="37.1031" filterUnits="userSpaceOnUse" color-interpolation-filters="sRGB">
<feFlood flood-opacity="0" result="BackgroundImageFix"/>
<feColorMatrix in="SourceAlpha" type="matrix" values="0 0 0 0 0 0 0 0 0 0 0 0 0 0 0 0 0 0 127 0" result="hardAlpha"/>
<feOffset/>
<feGaussianBlur stdDeviation="3.95849"/>
<feComposite in2="hardAlpha" operator="out"/>
<feColorMatrix type="matrix" values="0 0 0 0 0.607843 0 0 0 0 0.109804 0 0 0 0 0.737255 0 0 0 0.17 0"/>
<feBlend mode="normal" in2="BackgroundImageFix" result="effect1_dropShadow_12_1017"/>
<feColorMatrix in="SourceAlpha" type="matrix" values="0 0 0 0 0 0 0 0 0 0 0 0 0 0 0 0 0 0 127 0" result="hardAlpha"/>
<feOffset dy="3.16679"/>
<feGaussianBlur stdDeviation="1.5834"/>
<feComposite in2="hardAlpha" operator="out"/>
<feColorMatrix type="matrix" values="0 0 0 0 0 0 0 0 0 0 0 0 0 0 0 0 0 0 1 0"/>
<feBlend mode="normal" in2="effect1_dropShadow_12_1017" result="effect2_dropShadow_12_1017"/>
<feBlend mode="normal" in="SourceGraphic" in2="effect2_dropShadow_12_1017" result="shape"/>
</filter>
<filter id="filter5_dd_12_1017" x="113.074" y="2.17177" width="22.8154" height="39.1094" filterUnits="userSpaceOnUse" color-interpolation-filters="sRGB">
<feFlood flood-opacity="0" result="BackgroundImageFix"/>
<feColorMatrix in="SourceAlpha" type="matrix" values="0 0 0 0 0 0 0 0 0 0 0 0 0 0 0 0 0 0 127 0" result="hardAlpha"/>
<feOffset/>
<feGaussianBlur stdDeviation="3.95849"/>
<feComposite in2="hardAlpha" operator="out"/>
<feColorMatrix type="matrix" values="0 0 0 0 0.607843 0 0 0 0 0.109804 0 0 0 0 0.737255 0 0 0 0.17 0"/>
<feBlend mode="normal" in2="BackgroundImageFix" result="effect1_dropShadow_12_1017"/>
<feColorMatrix in="SourceAlpha" type="matrix" values="0 0 0 0 0 0 0 0 0 0 0 0 0 0 0 0 0 0 127 0" result="hardAlpha"/>
<feOffset dy="3.16679"/>
<feGaussianBlur stdDeviation="1.5834"/>
<feComposite in2="hardAlpha" operator="out"/>
<feColorMatrix type="matrix" values="0 0 0 0 0 0 0 0 0 0 0 0 0 0 0 0 0 0 1 0"/>
<feBlend mode="normal" in2="effect1_dropShadow_12_1017" result="effect2_dropShadow_12_1017"/>
<feBlend mode="normal" in="SourceGraphic" in2="effect2_dropShadow_12_1017" result="shape"/>
</filter>
<filter id="filter6_dd_12_1017" x="123.023" y="1.74263" width="36.4884" height="39.1675" filterUnits="userSpaceOnUse" color-interpolation-filters="sRGB">
<feFlood flood-opacity="0" result="BackgroundImageFix"/>
<feColorMatrix in="SourceAlpha" type="matrix" values="0 0 0 0 0 0 0 0 0 0 0 0 0 0 0 0 0 0 127 0" result="hardAlpha"/>
<feOffset/>
<feGaussianBlur stdDeviation="3.95849"/>
<feComposite in2="hardAlpha" operator="out"/>
<feColorMatrix type="matrix" values="0 0 0 0 0.607843 0 0 0 0 0.109804 0 0 0 0 0.737255 0 0 0 0.17 0"/>
<feBlend mode="normal" in2="BackgroundImageFix" result="effect1_dropShadow_12_1017"/>
<feColorMatrix in="SourceAlpha" type="matrix" values="0 0 0 0 0 0 0 0 0 0 0 0 0 0 0 0 0 0 127 0" result="hardAlpha"/>
<feOffset dy="3.16679"/>
<feGaussianBlur stdDeviation="1.5834"/>
<feComposite in2="hardAlpha" operator="out"/>
<feColorMatrix type="matrix" values="0 0 0 0 0 0 0 0 0 0 0 0 0 0 0 0 0 0 1 0"/>
<feBlend mode="normal" in2="effect1_dropShadow_12_1017" result="effect2_dropShadow_12_1017"/>
<feBlend mode="normal" in="SourceGraphic" in2="effect2_dropShadow_12_1017" result="shape"/>
</filter>
<filter id="filter7_f_12_1017" x="4.2083" y="15.0423" width="10.46" height="10.46" filterUnits="userSpaceOnUse" color-interpolation-filters="sRGB">
<feFlood flood-opacity="0" result="BackgroundImageFix"/>
<feBlend mode="normal" in="SourceGraphic" in2="BackgroundImageFix" result="shape"/>
<feGaussianBlur stdDeviation="0.395849" result="effect1_foregroundBlur_12_1017"/>
</filter>
<filter id="filter8_f_12_1017" x="7.77092" y="19.0007" width="4.35439" height="3.95852" filterUnits="userSpaceOnUse" color-interpolation-filters="sRGB">
<feFlood flood-opacity="0" result="BackgroundImageFix"/>
<feBlend mode="normal" in="SourceGraphic" in2="BackgroundImageFix" result="shape"/>
<feGaussianBlur stdDeviation="0.395849" result="effect1_foregroundBlur_12_1017"/>
</filter>
<filter id="filter9_f_12_1017" x="73.086" y="10.292" width="4.35439" height="3.95852" filterUnits="userSpaceOnUse" color-interpolation-filters="sRGB">
<feFlood flood-opacity="0" result="BackgroundImageFix"/>
<feBlend mode="normal" in="SourceGraphic" in2="BackgroundImageFix" result="shape"/>
<feGaussianBlur stdDeviation="0.395849" result="effect1_foregroundBlur_12_1017"/>
</filter>
<filter id="filter10_f_12_1017" x="148.693" y="23.355" width="2.7709" height="3.95852" filterUnits="userSpaceOnUse" color-interpolation-filters="sRGB">
<feFlood flood-opacity="0" result="BackgroundImageFix"/>
<feBlend mode="normal" in="SourceGraphic" in2="BackgroundImageFix" result="shape"/>
<feGaussianBlur stdDeviation="0.395849" result="effect1_foregroundBlur_12_1017"/>
</filter>
<filter id="filter11_f_12_1017" x="124.646" y="9.22051" width="4.00747" height="3.77511" filterUnits="userSpaceOnUse" color-interpolation-filters="sRGB">
<feFlood flood-opacity="0" result="BackgroundImageFix"/>
<feBlend mode="normal" in="SourceGraphic" in2="BackgroundImageFix" result="shape"/>
<feGaussianBlur stdDeviation="0.395849" result="effect1_foregroundBlur_12_1017"/>
</filter>
<filter id="filter12_f_12_1017" x="38.8698" y="15.834" width="4.13174" height="3.95876" filterUnits="userSpaceOnUse" color-interpolation-filters="sRGB">
<feFlood flood-opacity="0" result="BackgroundImageFix"/>
<feBlend mode="normal" in="SourceGraphic" in2="BackgroundImageFix" result="shape"/>
<feGaussianBlur stdDeviation="0.395849" result="effect1_foregroundBlur_12_1017"/>
</filter>
<filter id="filter13_f_12_1017" x="43.053" y="32.4896" width="2.60509" height="2.96947" filterUnits="userSpaceOnUse" color-interpolation-filters="sRGB">
<feFlood flood-opacity="0" result="BackgroundImageFix"/>
<feBlend mode="normal" in="SourceGraphic" in2="BackgroundImageFix" result="shape"/>
<feGaussianBlur stdDeviation="0.37164" result="effect1_foregroundBlur_12_1017"/>
</filter>
<filter id="filter14_f_12_1017" x="37.2941" y="13.4582" width="7.90932" height="7.90932" filterUnits="userSpaceOnUse" color-interpolation-filters="sRGB">
<feFlood flood-opacity="0" result="BackgroundImageFix"/>
<feBlend mode="normal" in="SourceGraphic" in2="BackgroundImageFix" result="shape"/>
<feGaussianBlur stdDeviation="0.395849" result="effect1_foregroundBlur_12_1017"/>
</filter>
<filter id="filter15_f_12_1017" x="39.043" y="33.2513" width="10.292" height="1.82088" filterUnits="userSpaceOnUse" color-interpolation-filters="sRGB">
<feFlood flood-opacity="0" result="BackgroundImageFix"/>
<feBlend mode="normal" in="SourceGraphic" in2="BackgroundImageFix" result="shape"/>
<feGaussianBlur stdDeviation="0.395849" result="effect1_foregroundBlur_12_1017"/>
</filter>
<filter id="filter16_f_12_1017" x="71.3346" y="7.74901" width="7.29323" height="7.29323" filterUnits="userSpaceOnUse" color-interpolation-filters="sRGB">
<feFlood flood-opacity="0" result="BackgroundImageFix"/>
<feBlend mode="normal" in="SourceGraphic" in2="BackgroundImageFix" result="shape"/>
<feGaussianBlur stdDeviation="0.395849" result="effect1_foregroundBlur_12_1017"/>
</filter>
<filter id="filter17_f_12_1017" x="122.963" y="6.94652" width="8.07339" height="7.30404" filterUnits="userSpaceOnUse" color-interpolation-filters="sRGB">
<feFlood flood-opacity="0" result="BackgroundImageFix"/>
<feBlend mode="normal" in="SourceGraphic" in2="BackgroundImageFix" result="shape"/>
<feGaussianBlur stdDeviation="0.395849" result="effect1_foregroundBlur_12_1017"/>
</filter>
<filter id="filter18_f_12_1017" x="145.92" y="22.9592" width="8.9905" height="5.99703" filterUnits="userSpaceOnUse" color-interpolation-filters="sRGB">
<feFlood flood-opacity="0" result="BackgroundImageFix"/>
<feBlend mode="normal" in="SourceGraphic" in2="BackgroundImageFix" result="shape"/>
<feGaussianBlur stdDeviation="0.395849" result="effect1_foregroundBlur_12_1017"/>
</filter>
<filter id="filter19_f_12_1017" x="99.6811" y="10.6879" width="5.86404" height="4.98031" filterUnits="userSpaceOnUse" color-interpolation-filters="sRGB">
<feFlood flood-opacity="0" result="BackgroundImageFix"/>
<feBlend mode="normal" in="SourceGraphic" in2="BackgroundImageFix" result="shape"/>
<feGaussianBlur stdDeviation="0.395849" result="effect1_foregroundBlur_12_1017"/>
</filter>
<filter id="filter20_f_12_1017" x="98.264" y="8.52971" width="8.08925" height="7.28567" filterUnits="userSpaceOnUse" color-interpolation-filters="sRGB">
<feFlood flood-opacity="0" result="BackgroundImageFix"/>
<feBlend mode="normal" in="SourceGraphic" in2="BackgroundImageFix" result="shape"/>
<feGaussianBlur stdDeviation="0.395849" result="effect1_foregroundBlur_12_1017"/>
</filter>
<linearGradient id="paint0_linear_12_1017" x1="18.1667" y1="0.791687" x2="18.1667" y2="41.7917" gradientUnits="userSpaceOnUse">
<stop offset="0.125" stop-color="#7E7E7E"/>
<stop offset="1" stop-color="#131313"/>
</linearGradient>
<linearGradient id="paint1_linear_12_1017" x1="34.5007" y1="0.791687" x2="34.5007" y2="41.7917" gradientUnits="userSpaceOnUse">
<stop offset="0.125" stop-color="#7E7E7E"/>
<stop offset="1" stop-color="#131313"/>
</linearGradient>
<linearGradient id="paint2_linear_12_1017" x1="52.2098" y1="0.791687" x2="52.2098" y2="41.7917" gradientUnits="userSpaceOnUse">
<stop offset="0.125" stop-color="#7E7E7E"/>
<stop offset="1" stop-color="#131313"/>
</linearGradient>
<linearGradient id="paint3_linear_12_1017" x1="68.8355" y1="0.791687" x2="68.8355" y2="41.7917" gradientUnits="userSpaceOnUse">
<stop offset="0.125" stop-color="#7E7E7E"/>
<stop offset="1" stop-color="#131313"/>
</linearGradient>
<linearGradient id="paint4_linear_12_1017" x1="84.3777" y1="0.791687" x2="84.3777" y2="41.7917" gradientUnits="userSpaceOnUse">
<stop offset="0.125" stop-color="#7E7E7E"/>
<stop offset="1" stop-color="#131313"/>
</linearGradient>
<linearGradient id="paint5_linear_12_1017" x1="124.505" y1="0" x2="124.505" y2="41" gradientUnits="userSpaceOnUse">
<stop offset="0.270833" stop-color="#7E7E7E"/>
<stop offset="1" stop-color="#131313"/>
</linearGradient>
<linearGradient id="paint6_linear_12_1017" x1="141.297" y1="0" x2="141.297" y2="41" gradientUnits="userSpaceOnUse">
<stop offset="0.270833" stop-color="#7E7E7E"/>
<stop offset="1" stop-color="#131313"/>
</linearGradient>
<linearGradient id="paint7_linear_12_1017" x1="105.942" y1="8.5108" x2="105.942" y2="30.2852" gradientUnits="userSpaceOnUse">
<stop offset="0.296875" stop-color="#7E7E7E"/>
<stop offset="1" stop-color="#131313"/>
</linearGradient>
</defs>
</svg>
