<svg width="20" height="20" viewBox="0 0 20 20" fill="none" xmlns="http://www.w3.org/2000/svg">
<path d="M7.5 3.75H6.25C5.91848 3.75 5.60054 3.8817 5.36612 4.11612C5.1317 4.35054 5 4.66848 5 5V15C5 15.3315 5.1317 15.6495 5.36612 15.8839C5.60054 16.1183 5.91848 16.25 6.25 16.25H7.5C7.83152 16.25 8.14946 16.1183 8.38388 15.8839C8.6183 15.6495 8.75 15.3315 8.75 15V5C8.75 4.66848 8.6183 4.35054 8.38388 4.11612C8.14946 3.8817 7.83152 3.75 7.5 3.75ZM13.75 3.75H12.5C12.1685 3.75 11.8505 3.8817 11.6161 4.11612C11.3817 4.35054 11.25 4.66848 11.25 5V15C11.25 15.3315 11.3817 15.6495 11.6161 15.8839C11.8505 16.1183 12.1685 16.25 12.5 16.25H13.75C14.0815 16.25 14.3995 16.1183 14.6339 15.8839C14.8683 15.6495 15 15.3315 15 15V5C15 4.66848 14.8683 4.35054 14.6339 4.11612C14.3995 3.8817 14.0815 3.75 13.75 3.75Z" fill="#F8F8F8"/>
</svg>
