<svg width="25" height="24" viewBox="0 0 25 24" fill="none" xmlns="http://www.w3.org/2000/svg">
<path d="M6.5 21C8.15685 21 9.5 19.6569 9.5 18C9.5 16.3431 8.15685 15 6.5 15C4.84315 15 3.5 16.3431 3.5 18C3.5 19.6569 4.84315 21 6.5 21Z" stroke="#C3C1C1" stroke-width="2" stroke-linecap="round" stroke-linejoin="round"/>
<path d="M18.5 20C20.1569 20 21.5 18.6569 21.5 17C21.5 15.3431 20.1569 14 18.5 14C16.8431 14 15.5 15.3431 15.5 17C15.5 18.6569 16.8431 20 18.5 20Z" stroke="#C3C1C1" stroke-width="2" stroke-linecap="round" stroke-linejoin="round"/>
<path d="M9.5 18V10M9.5 10V6L21.5 3V7M9.5 10L21.5 7M21.5 17V7" stroke="#C3C1C1" stroke-width="2" stroke-linecap="round" stroke-linejoin="round"/>
</svg>
