<svg width="49" height="49" viewBox="0 0 49 49" fill="none" xmlns="http://www.w3.org/2000/svg">
<path d="M42.875 30.625V12.25M24.5 24.5H6.125M32.6667 12.25H6.125M24.5 36.75H6.125M37.7708 36.75C39.1245 36.75 40.4228 36.2122 41.38 35.255C42.3372 34.2978 42.875 32.9995 42.875 31.6458C42.875 30.2921 42.3372 28.9939 41.38 28.0366C40.4228 27.0794 39.1245 26.5417 37.7708 26.5417C36.4171 26.5417 35.1189 27.0794 34.1616 28.0366C33.2044 28.9939 32.6667 30.2921 32.6667 31.6458C32.6667 32.9995 33.2044 34.2978 34.1616 35.255C35.1189 36.2122 36.4171 36.75 37.7708 36.75Z" stroke="#FAFAFA" stroke-opacity="0.84" stroke-width="4.08333" stroke-linecap="round" stroke-linejoin="round"/>
</svg>
