<svg width="40" height="40" viewBox="0 0 40 40" fill="none" xmlns="http://www.w3.org/2000/svg">
<path d="M35 6.25003C35 5.91851 34.8683 5.60057 34.6339 5.36615C34.3995 5.13173 34.0815 5.00003 33.75 5.00003C33.4185 5.00003 33.1005 5.13173 32.8661 5.36615C32.6317 5.60057 32.5 5.91851 32.5 6.25003V33.75C32.5 34.0815 32.6317 34.3994 32.8661 34.6338C33.1005 34.8683 33.4185 35 33.75 35C34.0815 35 34.3995 34.8683 34.6339 34.6338C34.8683 34.3994 35 34.0815 35 33.75V6.25003ZM5 7.50502C4.99969 7.04612 5.1257 6.59599 5.36422 6.20395C5.60274 5.8119 5.94456 5.49307 6.35225 5.28239C6.75993 5.07171 7.21773 4.9773 7.6755 5.00952C8.13327 5.04173 8.57334 5.19933 8.9475 5.46503L26.4475 17.8725C26.7724 18.1026 27.0377 18.4069 27.2213 18.7602C27.4049 19.1135 27.5014 19.5055 27.5028 19.9036C27.5043 20.3018 27.4107 20.6945 27.2297 21.0491C27.0488 21.4038 26.7857 21.71 26.4625 21.9425L8.9625 34.535C8.58917 34.8042 8.14873 34.9652 7.68974 35.0002C7.23075 35.0351 6.77102 34.9426 6.36123 34.733C5.95144 34.5233 5.6075 34.2045 5.36731 33.8118C5.12712 33.4192 5.00002 32.9678 5 32.5075V7.50502ZM25 19.9125L7.5 7.50502V32.505L25 19.9125Z" fill="#DADADA"/>
</svg>
