<svg width="20" height="17" viewBox="0 0 20 17" fill="none" xmlns="http://www.w3.org/2000/svg">
<path d="M14 12.929C14 14.349 12.88 15.5 11.5 15.5C10.12 15.5 9 14.349 9 12.929C9 11.509 10.12 10.357 11.5 10.357C12.88 10.357 14 11.507 14 12.929ZM14 12.929V6.5" stroke="#DADADA" stroke-width="1.5"/>
<path d="M13 1.5H1M11 5.5H1M7 9.5H1M6 13.5H1M16.675 3.616L14.92 4.458C14.579 4.622 14.408 4.704 14.284 4.831C14.1853 4.93256 14.1093 5.0539 14.061 5.187C14 5.353 14 5.542 14 5.92C14 6.797 14 7.235 14.191 7.498C14.3422 7.70613 14.5679 7.84796 14.821 7.894C15.14 7.952 15.535 7.762 16.325 7.384L18.08 6.541C18.421 6.377 18.592 6.295 18.716 6.169C18.8145 6.06727 18.8904 5.94598 18.939 5.813C19 5.647 19 5.457 19 5.078C19 4.202 19 3.763 18.809 3.5C18.6576 3.29225 18.432 3.15079 18.179 3.105C17.86 3.046 17.465 3.235 16.675 3.615V3.616Z" stroke="#DADADA" stroke-width="1.5" stroke-linecap="round"/>
</svg>
