<svg width="32" height="32" viewBox="0 0 32 32" fill="none" xmlns="http://www.w3.org/2000/svg">
<path fill-rule="evenodd" clip-rule="evenodd" d="M15.8389 2.66656C16.3912 2.66656 16.8389 3.11428 16.8389 3.66656V19.7212C16.8389 20.2735 16.3912 20.7212 15.8389 20.7212C15.2866 20.7212 14.8389 20.2735 14.8389 19.7212V3.66656C14.8389 3.11428 15.2866 2.66656 15.8389 2.66656Z" fill="#848484" fill-opacity="0.84"/>
<path fill-rule="evenodd" clip-rule="evenodd" d="M11.2455 15.1104C11.6368 14.7206 12.27 14.7219 12.6597 15.1133L15.8392 18.3058L19.0186 15.1133C19.4083 14.7219 20.0415 14.7206 20.4328 15.1104C20.8242 15.5001 20.8255 16.1332 20.4357 16.5246L16.5477 20.4286C16.3601 20.617 16.1051 20.7229 15.8392 20.7229C15.5732 20.7229 15.3183 20.617 15.1306 20.4286L11.2426 16.5246C10.8529 16.1332 10.8542 15.5001 11.2455 15.1104Z" fill="#848484" fill-opacity="0.84"/>
<path fill-rule="evenodd" clip-rule="evenodd" d="M20.8312 9.58623C20.8819 9.03628 21.3689 8.63156 21.9188 8.68227C24.3818 8.90937 26.3805 9.505 27.6732 11.2493C28.9127 12.9217 29.3337 15.4414 29.3337 19.0114C29.3337 23.744 28.5912 26.6536 26.1598 28.1468C25.001 28.8585 23.566 29.173 21.9232 29.3258C20.287 29.4781 18.3213 29.4781 16.0425 29.478H15.9582C13.6787 29.4781 11.7127 29.4781 10.0763 29.3258C8.43347 29.173 6.99843 28.8585 5.83977 28.1468C3.40869 26.6535 2.66699 23.7437 2.66699 19.0114C2.66699 15.4415 3.0876 12.9218 4.32687 11.2493C5.61947 9.50497 7.61826 8.90936 10.0819 8.68227C10.6318 8.63157 11.1187 9.0363 11.1694 9.58625C11.2201 10.1362 10.8154 10.6231 10.2654 10.6738C7.95573 10.8867 6.70118 11.4045 5.93378 12.4401C5.11305 13.5477 4.66699 15.4746 4.66699 19.0114C4.66699 23.7457 5.46463 25.5692 6.88655 26.4426C7.65438 26.9143 8.72427 27.1914 10.2616 27.3344C11.7952 27.4771 13.6704 27.478 16.0003 27.478C18.3296 27.478 20.2044 27.4771 21.738 27.3344C23.2751 27.1914 24.3451 26.9143 25.1132 26.4426C26.5354 25.5691 27.3337 23.7455 27.3337 19.0114C27.3337 15.4747 26.8873 13.5477 26.0664 12.4401C25.2988 11.4044 24.0442 10.8867 21.7352 10.6738C21.1852 10.6231 20.7805 10.1362 20.8312 9.58623Z" fill="#848484" fill-opacity="0.84"/>
</svg>
