<svg width="32" height="33" viewBox="0 0 32 33" fill="none" xmlns="http://www.w3.org/2000/svg">
<path d="M13.811 12.4381L7.74795 6.37497C7.62237 6.24939 7.47329 6.14978 7.30922 6.08181C7.14514 6.01385 6.96929 5.97887 6.79169 5.97887C6.6141 5.97887 6.43825 6.01385 6.27417 6.08181C6.1101 6.14978 5.96102 6.24939 5.83544 6.37497C5.70986 6.50055 5.61025 6.64963 5.54229 6.81371C5.47432 6.97778 5.43934 7.15364 5.43934 7.33123C5.43934 7.50883 5.47432 7.68469 5.54229 7.84876C5.61025 8.01284 5.70986 8.16192 5.83544 8.2875L11.8849 14.3371L13.811 12.4381ZM20.2674 6.57843L21.8815 8.19255L5.82187 24.2524C5.6963 24.3779 5.59668 24.527 5.52872 24.6911C5.46076 24.8552 5.42578 25.031 5.42578 25.2086C5.42578 25.3862 5.46076 25.5621 5.52872 25.7262C5.59668 25.8902 5.6963 26.0393 5.82187 26.1649C5.94745 26.2905 6.09653 26.3901 6.26061 26.4581C6.42468 26.526 6.60054 26.561 6.77813 26.561C6.95572 26.561 7.13158 26.526 7.29565 26.4581C7.45973 26.3901 7.60881 26.2905 7.73439 26.1649L23.8076 10.1186L25.4217 11.7328C25.5173 11.8265 25.6386 11.8898 25.7701 11.9148C25.9017 11.9397 26.0377 11.9252 26.161 11.8729C26.2843 11.8207 26.3893 11.7332 26.4629 11.6213C26.5366 11.5095 26.5754 11.3784 26.5746 11.2445V6.10369C26.5746 5.7239 26.2762 5.42549 25.8965 5.42549H20.7557C20.6218 5.4247 20.4907 5.46357 20.3789 5.53719C20.267 5.61081 20.1795 5.71589 20.1273 5.83918C20.075 5.96248 20.0605 6.09848 20.0854 6.23003C20.1104 6.36158 20.1737 6.48281 20.2674 6.57843ZM19.5621 18.1892L17.6496 20.1018L21.8951 24.3473L20.2674 25.975C20.1737 26.0706 20.1104 26.1918 20.0854 26.3234C20.0605 26.455 20.075 26.591 20.1273 26.7142C20.1795 26.8375 20.267 26.9426 20.3789 27.0162C20.4907 27.0899 20.6218 27.1287 20.7557 27.1279H25.8965C26.2762 27.1279 26.5746 26.8295 26.5746 26.4497V21.309C26.5746 20.6986 25.8422 20.4002 25.4217 20.8342L23.8076 22.4484L19.5621 18.1892Z" fill="#848484" fill-opacity="0.84"/>
</svg>
