<svg width="40" height="40" viewBox="0 0 40 40" fill="none" xmlns="http://www.w3.org/2000/svg">
<path d="M31.0091 5.62692H24.8929C24.3252 5.62692 23.7807 5.85246 23.3792 6.25391C22.9778 6.65537 22.7522 7.19986 22.7522 7.7676V32.2325C22.7522 32.8002 22.9778 33.3447 23.3792 33.7462C23.7807 34.1476 24.3252 34.3732 24.8929 34.3732H31.0091C31.5769 34.3732 32.1213 34.1476 32.5228 33.7462C32.9243 33.3447 33.1498 32.8002 33.1498 32.2325V7.7676C33.1498 7.19986 32.9243 6.65537 32.5228 6.25391C32.1213 5.85246 31.5769 5.62692 31.0091 5.62692ZM31.3149 32.2325C31.3149 32.3136 31.2827 32.3914 31.2254 32.4487C31.168 32.5061 31.0902 32.5383 31.0091 32.5383H24.8929C24.8118 32.5383 24.734 32.5061 24.6767 32.4487C24.6193 32.3914 24.5871 32.3136 24.5871 32.2325V7.7676C24.5871 7.68649 24.6193 7.60871 24.6767 7.55136C24.734 7.49401 24.8118 7.46179 24.8929 7.46179H31.0091C31.0902 7.46179 31.168 7.49401 31.2254 7.55136C31.2827 7.60871 31.3149 7.68649 31.3149 7.7676V32.2325ZM15.107 5.62692H8.99077C8.42303 5.62692 7.87854 5.85246 7.47709 6.25391C7.07563 6.65537 6.8501 7.19986 6.8501 7.7676V32.2325C6.8501 32.8002 7.07563 33.3447 7.47709 33.7462C7.87854 34.1476 8.42303 34.3732 8.99077 34.3732H15.107C15.6747 34.3732 16.2192 34.1476 16.6207 33.7462C17.0221 33.3447 17.2476 32.8002 17.2476 32.2325V7.7676C17.2476 7.19986 17.0221 6.65537 16.6207 6.25391C16.2192 5.85246 15.6747 5.62692 15.107 5.62692ZM15.4128 32.2325C15.4128 32.3136 15.3806 32.3914 15.3232 32.4487C15.2659 32.5061 15.1881 32.5383 15.107 32.5383H8.99077C8.90966 32.5383 8.83188 32.5061 8.77453 32.4487C8.71718 32.3914 8.68496 32.3136 8.68496 32.2325V7.7676C8.68496 7.68649 8.71718 7.60871 8.77453 7.55136C8.83188 7.49401 8.90966 7.46179 8.99077 7.46179H15.107C15.1881 7.46179 15.2659 7.49401 15.3232 7.55136C15.3806 7.60871 15.4128 7.68649 15.4128 7.7676V32.2325Z" fill="#EFEFEF"/>
</svg>
