<svg width="40" height="40" viewBox="0 0 40 40" fill="none" xmlns="http://www.w3.org/2000/svg">
<path d="M5 33.7573C5 34.0888 5.1317 34.4068 5.36612 34.6412C5.60054 34.8756 5.91848 35.0073 6.25 35.0073C6.58152 35.0073 6.89947 34.8756 7.13389 34.6412C7.36831 34.4068 7.5 34.0888 7.5 33.7573L7.5 6.25736C7.5 5.92584 7.36831 5.6079 7.13389 5.37348C6.89947 5.13906 6.58153 5.00737 6.25 5.00737C5.91848 5.00737 5.60054 5.13906 5.36612 5.37348C5.1317 5.6079 5.00001 5.92584 5.00001 6.25736L5 33.7573ZM35 32.5023C35.0003 32.9612 34.8743 33.4113 34.6358 33.8034C34.3973 34.1954 34.0554 34.5143 33.6478 34.7249C33.2401 34.9356 32.7823 35.03 32.3245 34.9978C31.8667 34.9656 31.4267 34.808 31.0525 34.5423L13.5525 22.1348C13.2276 21.9048 12.9623 21.6004 12.7787 21.2471C12.5952 20.8938 12.4986 20.5018 12.4972 20.1037C12.4957 19.7056 12.5893 19.3128 12.7703 18.9582C12.9512 18.6036 13.2143 18.2973 13.5375 18.0648L31.0375 5.47237C31.4108 5.20308 31.8513 5.0421 32.3103 5.00716C32.7693 4.97223 33.229 5.06469 33.6388 5.27437C34.0486 5.48405 34.3925 5.8028 34.6327 6.19548C34.8729 6.58817 35 7.03954 35 7.49986L35 32.5023ZM15 20.0948L32.5 32.5023L32.5 7.50236L15 20.0948Z" fill="#DADADA"/>
</svg>
