<svg width="24" height="24" viewBox="0 0 24 24" fill="none" xmlns="http://www.w3.org/2000/svg">
<path d="M10.4833 17.2445H4.01074" stroke="#E6E6E6" stroke-width="1.5" stroke-linecap="round" stroke-linejoin="round"/>
<path fill-rule="evenodd" clip-rule="evenodd" d="M14.5449 17.2455C14.5449 19.2873 15.2258 19.9673 17.2667 19.9673C19.3076 19.9673 19.9885 19.2873 19.9885 17.2455C19.9885 15.2037 19.3076 14.5237 17.2667 14.5237C15.2258 14.5237 14.5449 15.2037 14.5449 17.2455Z" stroke="#E6E6E6" stroke-width="1.5" stroke-linecap="round" stroke-linejoin="round"/>
<path d="M13.5166 6.7559H19.9882" stroke="#E6E6E6" stroke-width="1.5" stroke-linecap="round" stroke-linejoin="round"/>
<path fill-rule="evenodd" clip-rule="evenodd" d="M9.45522 6.75457C9.45522 4.71367 8.77432 4.03278 6.73343 4.03278C4.69164 4.03278 4.01074 4.71367 4.01074 6.75457C4.01074 8.79635 4.69164 9.47635 6.73343 9.47635C8.77432 9.47635 9.45522 8.79635 9.45522 6.75457Z" stroke="#E6E6E6" stroke-width="1.5" stroke-linecap="round" stroke-linejoin="round"/>
</svg>
