<svg width="24" height="24" viewBox="0 0 24 24" fill="none" xmlns="http://www.w3.org/2000/svg">
<path d="M5.25004 3C5.11087 3.00001 4.97445 3.03873 4.85603 3.11185C4.73762 3.18496 4.64188 3.28958 4.57954 3.414L1.57954 9.414C1.51466 9.54318 1.48849 9.68836 1.50419 9.83207C1.51989 9.97577 1.57679 10.1119 1.66804 10.224L9.02854 19.2825C9.00947 19.1056 8.99996 18.9279 9.00004 18.75C9.00004 18.2175 9.11104 17.7105 9.31204 17.2515L3.82504 10.5H7.69954L9.62704 16.6725C9.94054 16.2045 10.3545 15.81 10.8405 15.522L9.27004 10.5H11.505C11.7017 9.94683 12.0043 9.43732 12.396 9H9.21004L10.335 4.5H13.665L14.46 7.6875C14.9466 7.54222 15.4543 7.48034 15.9615 7.5045L15.2115 4.5H18.2865L20.5365 9H19.104C19.491 9.4335 19.797 9.9405 19.9935 10.5H20.1735L20.046 10.6575C20.2728 11.3818 20.3126 12.1517 20.1615 12.8955L22.332 10.2225C22.4232 10.1107 22.4802 9.97492 22.4962 9.83151C22.5121 9.68811 22.4864 9.54314 22.422 9.414L19.422 3.414C19.3596 3.28935 19.2636 3.18458 19.1449 3.11145C19.0262 3.03832 18.8895 2.99973 18.75 3H5.25004ZM3.46354 9L5.71354 4.5H8.78854L7.66354 9H3.46354ZM18.75 12C18.75 12.7957 18.434 13.5587 17.8714 14.1213C17.3087 14.6839 16.5457 15 15.75 15C14.9544 15 14.1913 14.6839 13.6287 14.1213C13.0661 13.5587 12.75 12.7957 12.75 12C12.75 11.2044 13.0661 10.4413 13.6287 9.87868C14.1913 9.31607 14.9544 9 15.75 9C16.5457 9 17.3087 9.31607 17.8714 9.87868C18.434 10.4413 18.75 11.2044 18.75 12ZM21 18.75C21 20.6175 19.5 22.5 15.75 22.5C12 22.5 10.5 20.625 10.5 18.75C10.5 18.1533 10.7371 17.581 11.159 17.159C11.581 16.7371 12.1533 16.5 12.75 16.5H18.75C19.3468 16.5 19.9191 16.7371 20.341 17.159C20.763 17.581 21 18.1533 21 18.75Z" fill="url(#paint0_linear_6137_208)"/>
<defs>
<linearGradient id="paint0_linear_6137_208" x1="12.0003" y1="3" x2="12.0003" y2="22.5" gradientUnits="userSpaceOnUse">
<stop stop-color="#1EACA4"/>
<stop offset="1" stop-color="#104845"/>
</linearGradient>
</defs>
</svg>
