<svg width="25" height="24" viewBox="0 0 25 24" fill="none" xmlns="http://www.w3.org/2000/svg">
<path fill-rule="evenodd" clip-rule="evenodd" d="M11.9446 21.6619C8.25273 21.6619 5.10001 21.0874 5.10001 18.7867C5.10001 16.4859 8.23273 14.3619 11.9446 14.3619C15.6364 14.3619 18.7891 16.4653 18.7891 18.7661C18.7891 21.0659 15.6564 21.6619 11.9446 21.6619Z" stroke="#5C5963" stroke-width="1.5" stroke-linecap="round" stroke-linejoin="round"/>
<path fill-rule="evenodd" clip-rule="evenodd" d="M11.9373 11.1737C14.36 11.1737 16.3237 9.21002 16.3237 6.7873C16.3237 4.36457 14.36 2.40002 11.9373 2.40002C9.51457 2.40002 7.55003 4.36457 7.55003 6.7873C7.54185 9.20184 9.49185 11.1655 11.9064 11.1737C11.9173 11.1737 11.9273 11.1737 11.9373 11.1737Z" stroke="#5C5963" stroke-width="1.5" stroke-linecap="round" stroke-linejoin="round"/>
</svg>
