<svg width="20" height="20" viewBox="0 0 20 20" fill="none" xmlns="http://www.w3.org/2000/svg">
<path fill-rule="evenodd" clip-rule="evenodd" d="M9.97717 16.9735C7.278 16.9735 4.97217 16.5652 4.97217 14.9302C4.97217 13.2952 7.263 11.8718 9.97717 11.8718C12.6763 11.8718 14.9822 13.2818 14.9822 14.916C14.9822 16.5502 12.6913 16.9735 9.97717 16.9735Z" stroke="#DBDBDB" stroke-width="1.25" stroke-linecap="round" stroke-linejoin="round"/>
<path fill-rule="evenodd" clip-rule="evenodd" d="M9.97715 9.54059C11.7488 9.54059 13.1855 8.10476 13.1855 6.33309C13.1855 4.56142 11.7488 3.12476 9.97715 3.12476C8.20548 3.12476 6.76881 4.56142 6.76881 6.33309C6.76381 8.09809 8.18881 9.53476 9.95465 9.54059H9.97715Z" stroke="#DBDBDB" stroke-width="1.25" stroke-linecap="round" stroke-linejoin="round"/>
<path d="M15.3019 8.65965C16.3327 8.38382 17.0927 7.44382 17.0927 6.32465C17.0927 5.15715 16.2652 4.18215 15.1636 3.95715" stroke="#DBDBDB" stroke-width="1.25" stroke-linecap="round" stroke-linejoin="round"/>
<path d="M15.7861 11.287C17.2478 11.287 18.4961 12.2778 18.4961 13.1628C18.4961 13.6837 18.0653 14.2512 17.412 14.4045" stroke="#DBDBDB" stroke-width="1.25" stroke-linecap="round" stroke-linejoin="round"/>
<path d="M4.65324 8.65965C3.62157 8.38382 2.86157 7.44382 2.86157 6.32465C2.86157 5.15715 3.68991 4.18215 4.79074 3.95715" stroke="#DBDBDB" stroke-width="1.25" stroke-linecap="round" stroke-linejoin="round"/>
<path d="M4.16825 11.287C2.70659 11.287 1.45825 12.2778 1.45825 13.1628C1.45825 13.6837 1.88909 14.2512 2.54325 14.4045" stroke="#DBDBDB" stroke-width="1.25" stroke-linecap="round" stroke-linejoin="round"/>
</svg>
