<svg width="20" height="20" viewBox="0 0 20 20" fill="none" xmlns="http://www.w3.org/2000/svg">
<path fill-rule="evenodd" clip-rule="evenodd" d="M9.97705 16.9735C7.27788 16.9735 4.97205 16.5652 4.97205 14.9302C4.97205 13.2952 7.26288 11.8718 9.97705 11.8718C12.6762 11.8718 14.982 13.2818 14.982 14.916C14.982 16.5502 12.6912 16.9735 9.97705 16.9735Z" stroke="#8F8F8F" stroke-width="1.25" stroke-linecap="round" stroke-linejoin="round"/>
<path fill-rule="evenodd" clip-rule="evenodd" d="M9.97702 9.54059C11.7487 9.54059 13.1854 8.10476 13.1854 6.33309C13.1854 4.56142 11.7487 3.12476 9.97702 3.12476C8.20536 3.12476 6.76869 4.56142 6.76869 6.33309C6.76369 8.09809 8.18869 9.53476 9.95452 9.54059H9.97702Z" stroke="#8F8F8F" stroke-width="1.25" stroke-linecap="round" stroke-linejoin="round"/>
<path d="M15.3018 8.65965C16.3326 8.38382 17.0926 7.44382 17.0926 6.32465C17.0926 5.15715 16.2651 4.18215 15.1635 3.95715" stroke="#8F8F8F" stroke-width="1.25" stroke-linecap="round" stroke-linejoin="round"/>
<path d="M15.786 11.287C17.2477 11.287 18.496 12.2778 18.496 13.1628C18.496 13.6837 18.0652 14.2512 17.4118 14.4045" stroke="#8F8F8F" stroke-width="1.25" stroke-linecap="round" stroke-linejoin="round"/>
<path d="M4.65312 8.65965C3.62145 8.38382 2.86145 7.44382 2.86145 6.32465C2.86145 5.15715 3.68978 4.18215 4.79062 3.95715" stroke="#8F8F8F" stroke-width="1.25" stroke-linecap="round" stroke-linejoin="round"/>
<path d="M4.16813 11.287C2.70646 11.287 1.45813 12.2778 1.45813 13.1628C1.45813 13.6837 1.88896 14.2512 2.54313 14.4045" stroke="#8F8F8F" stroke-width="1.25" stroke-linecap="round" stroke-linejoin="round"/>
</svg>
