<svg width="24" height="24" viewBox="0 0 24 24" fill="none" xmlns="http://www.w3.org/2000/svg">
<path fill-rule="evenodd" clip-rule="evenodd" d="M12.0018 9.63989C10.6699 9.63989 9.58984 10.7193 9.58984 12.0519C9.58984 13.3837 10.6701 14.4639 12.0018 14.4639C13.3336 14.4639 14.4138 13.3837 14.4138 12.0519C14.4138 10.7193 13.3338 9.63989 12.0018 9.63989ZM8.08984 12.0519C8.08984 9.89052 9.84178 8.13989 12.0018 8.13989C14.1619 8.13989 15.9138 9.89052 15.9138 12.0519C15.9138 14.2121 14.1621 15.9639 12.0018 15.9639C9.84163 15.9639 8.08984 14.2121 8.08984 12.0519Z" fill="#C3C1C1"/>
<path fill-rule="evenodd" clip-rule="evenodd" d="M4.97553 6.59826C6.76993 5.08118 9.25074 4 12.002 4C14.7526 4 17.2334 5.08034 19.028 6.59706C20.803 8.09726 22.004 10.114 22.004 12.052C22.004 13.99 20.803 16.0067 19.028 17.5069C17.2334 19.0237 14.7526 20.104 12.002 20.104C9.25074 20.104 6.76993 19.0228 4.97553 17.5057C3.20074 16.0052 2 13.9885 2 12.052C2 10.1155 3.20074 8.09876 4.97553 6.59826ZM5.94397 7.74374C4.37026 9.07424 3.5 10.7085 3.5 12.052C3.5 13.3955 4.37026 15.0298 5.94397 16.3603C7.49807 17.6742 9.64326 18.604 12.002 18.604C14.3604 18.604 16.5056 17.6748 18.0597 16.3613C19.6335 15.0313 20.504 13.397 20.504 12.052C20.504 10.707 19.6335 9.07274 18.0597 7.74269C16.5056 6.42916 14.3604 5.5 12.002 5.5C9.64326 5.5 7.49807 6.42982 5.94397 7.74374Z" fill="#C3C1C1"/>
</svg>
