<svg width="61" height="116" viewBox="0 0 61 116" fill="none" xmlns="http://www.w3.org/2000/svg">
<path fill-rule="evenodd" clip-rule="evenodd" d="M49.7669 87.2664C49.8569 87.1404 49.8698 86.9664 49.9148 86.8134C49.7573 86.7894 49.5902 86.7234 49.4424 86.7474C49.1949 86.7864 48.9635 86.9184 48.7161 86.9544C47.0129 87.2034 45.2936 87.3684 43.6065 87.6894C40.9328 88.1963 38.2173 88.3493 35.5147 88.5713C32.4071 88.8263 29.4635 89.5012 26.6966 90.8752C25.8996 91.2711 25.0834 91.6251 24.1964 92.0331C24.235 91.8591 24.2446 91.7691 24.2768 91.6851C24.6335 90.7792 25.003 89.8732 25.3565 88.9673C25.5236 88.5443 25.8161 88.2413 26.1728 87.9473C27.2076 87.0924 28.4801 86.9454 29.7431 86.8764C31.4656 86.7804 33.1848 86.7024 34.8848 86.4054C35.881 86.2314 36.8901 86.0755 37.8574 85.7875C38.8472 85.4935 39.7791 85.0345 40.7496 84.6775C42.2729 84.1166 43.7318 83.4386 45.088 82.5777C45.6343 82.2327 46.1838 81.8697 46.6562 81.4377C47.736 80.4478 48.7772 79.4159 49.8151 78.3869C50.1172 78.087 50.3615 77.736 50.6314 77.406C50.5961 77.361 50.5607 77.319 50.5253 77.274C50.3711 77.31 50.1943 77.31 50.069 77.388C49.7509 77.583 49.452 77.814 49.1467 78.03C46.849 79.6559 44.3617 80.9548 41.7169 81.9897C40.364 82.5177 38.9821 82.8626 37.5103 82.8836C36.5237 82.8986 35.534 82.9196 34.5538 83.0126C33.0402 83.1566 31.5266 83.3576 30.1319 83.9936C29.3542 84.3476 28.5894 84.7285 27.8567 85.1575C27.2686 85.4995 26.7416 85.9345 26.1921 86.3274C26.1471 86.3004 26.1053 86.2704 26.0603 86.2404C26.0957 86.1024 26.1374 85.9645 26.1664 85.8265C26.3688 84.8995 26.5488 83.9666 26.7834 83.0486C26.9216 82.5087 27.0758 81.9207 27.5836 81.5937C28.1716 81.2188 28.7919 80.8498 29.4539 80.6278C33.0434 79.4309 36.6394 78.2549 40.3254 77.34C42.6553 76.761 44.7762 75.7171 46.8265 74.5352C47.7392 74.0102 48.5876 73.3802 49.5195 72.8913C51.7112 71.7483 53.71 70.3354 55.7089 68.9225C56.0816 68.6585 56.3869 68.3135 56.7211 68.0046C56.6922 67.9596 56.6633 67.9116 56.6344 67.8666C56.4351 67.9296 56.2295 67.9776 56.0399 68.0586C54.5102 68.7095 52.9805 69.3515 51.4605 70.0234C49.7252 70.7884 47.9352 71.3824 46.0649 71.7543C45.1458 71.9343 44.2171 72.0873 43.3173 72.3303C41.8776 72.7173 40.4604 73.1792 39.0336 73.5962C36.9383 74.2082 34.917 74.9851 33.1109 76.1911C31.3627 77.358 29.666 78.5939 28.1781 80.0668C28.011 80.2318 27.8342 80.3878 27.6607 80.5498C27.6125 80.5258 27.5611 80.5018 27.5129 80.4808C27.5771 80.2378 27.6382 79.9918 27.7057 79.7488C28.011 78.6239 28.3323 77.499 28.6248 76.3711C28.8626 75.4561 29.0843 74.5352 29.2867 73.6112C29.3735 73.2153 29.6145 72.9843 29.9616 72.7863C31.4688 71.9313 33.0659 71.3824 34.8334 71.2954C35.3347 71.2714 35.8328 71.1424 36.3277 71.0374C38.0084 70.6774 39.6763 70.2424 41.3731 69.9604C42.7035 69.7385 44.005 69.4565 45.2519 68.9735C47.4371 68.1276 49.6095 67.2546 51.7883 66.3937C52.2768 66.2017 52.7684 66.0157 53.2505 65.8087C54.1985 65.4007 55.1336 64.9748 56.0816 64.5638C56.7726 64.2638 57.4795 63.9878 58.1608 63.6728C58.2765 63.6188 58.3183 63.4149 58.3922 63.2829C58.2605 63.2409 58.1319 63.1749 57.9969 63.1599C57.9037 63.1479 57.8009 63.2079 57.7045 63.2289C55.9724 63.5888 54.2499 63.9938 52.4696 64.0928C51.8879 64.1258 51.3127 64.2488 50.7407 64.3568C49.8698 64.5218 49.0053 64.7228 48.1344 64.8848C47.2379 65.0528 46.3316 65.1608 45.4415 65.3497C43.3366 65.7967 41.2349 66.2707 39.1332 66.7417C37.4943 67.1076 35.91 67.6476 34.4574 68.4515C32.9406 69.2915 31.5138 70.2724 30.2605 71.4574C30.1512 71.5623 30.013 71.6374 29.8074 71.7843C30.0612 70.4704 30.3601 69.2675 30.5015 68.0466C30.6107 67.1196 31.051 66.6127 31.9123 66.2137C33.0177 65.7007 34.12 65.2117 35.3283 65.0078C37.7513 64.6028 40.1808 64.2458 42.6071 63.8708C42.9574 63.8168 43.3108 63.7718 43.6547 63.6938C44.5449 63.4959 45.4222 63.2589 46.3156 63.0789C47.556 62.8299 48.8157 62.6619 50.0433 62.3739C51.0234 62.1429 51.9747 61.789 52.9323 61.474C54.0571 61.102 55.1786 60.724 56.297 60.328C56.6569 60.1991 56.9911 60.0011 57.4474 59.7821C57.2225 59.6681 57.1421 59.5991 57.0554 59.5871C54.6291 59.2391 52.2125 59.2331 49.7894 59.6651C48.6936 59.8571 47.5817 60.0431 46.473 60.0671C44.4581 60.1091 42.4721 60.3311 40.5118 60.76C39.9944 60.874 39.477 61.006 38.9821 61.183C37.2629 61.789 35.5982 62.5179 34.0396 63.4389C33.3294 63.8588 32.6739 64.3568 31.9894 64.8158C31.7901 64.9508 31.5845 65.0768 31.2181 65.3137C31.4945 64.1018 31.7323 63.0729 31.999 61.9119C32.6578 61.669 33.3455 61.336 34.075 61.159C35.9196 60.715 37.7835 60.358 39.6313 59.9411C41.1417 59.6021 42.591 59.0891 43.9568 58.3692C45.1554 57.7392 46.367 57.1332 47.5817 56.5303C48.9539 55.8493 50.3422 55.1984 51.5858 54.2954C52.6592 53.5155 53.8225 52.8825 55.0083 52.2675C56.4608 51.5146 57.968 51.1636 59.5877 51.1186C59.7226 51.1156 59.8576 51.0646 60.0086 51.0316C59.954 50.6926 59.7194 50.6506 59.4945 50.6476C58.6589 50.6356 57.8105 50.5457 56.9911 50.6596C54.9247 50.9506 52.9677 51.6256 51.0363 52.3785C49.6288 52.9275 48.1987 53.4435 46.7494 53.8755C44.9498 54.4124 43.2112 55.0784 41.4984 55.8193C39.9719 56.4793 38.4776 57.2082 36.964 57.8922C35.3444 58.6242 33.8886 59.5871 32.5453 60.712C32.4264 60.811 32.2947 60.892 32.0826 61.042C32.1372 60.1841 32.1854 59.4401 32.2336 58.6722C33.609 58.5372 34.8559 58.1922 36.0128 57.6372C38.3812 56.5033 40.5279 55.0214 42.6553 53.5305C44.1496 52.4835 45.5925 51.3706 47.0418 50.2697C48.0348 49.5137 49.0535 48.7788 49.9694 47.9448C51.8076 46.2679 53.8675 44.927 56.1459 43.8681C56.9107 43.5141 57.7109 43.3131 58.5336 43.1571C58.7425 43.1181 58.9803 43.0281 58.8999 42.7941C58.855 42.6621 58.5947 42.4912 58.4597 42.5122C57.3349 42.6681 56.2038 42.8121 55.0983 43.0581C53.5301 43.4061 52.1289 44.1771 50.6957 44.834C49.4199 45.419 48.1955 46.1119 46.9615 46.7779C45.615 47.5038 44.2524 48.2088 42.9477 49.0008C41.0356 50.1647 39.3935 51.6616 37.7031 53.0895C36.3374 54.2474 35.0326 55.4773 33.6765 56.6473C33.2973 56.9743 32.8346 57.2142 32.2529 57.5982C32.2754 56.9293 32.2754 56.4553 32.3075 55.9783C32.3493 55.3214 32.4039 54.6734 33.0627 54.2444C33.2587 54.1184 33.3552 53.8544 33.4998 53.6565C33.7601 53.2995 34.0011 52.9245 34.2871 52.5855C36.0353 50.5277 38.2269 48.9588 40.4829 47.4648C41.3377 46.8979 42.2343 46.3849 43.0634 45.7879C44.7313 44.591 46.5791 43.7511 48.5586 43.1901C50.2425 42.7131 51.8879 42.1702 53.4369 41.3722C54.9376 40.6013 56.5187 39.9863 58.1608 39.5693C58.9257 39.3744 59.533 38.9544 60.1854 38.5914C60.2464 38.5584 60.2561 38.4354 60.3204 38.2824C59.999 38.3184 59.7516 38.3334 59.5073 38.3814C58.0419 38.6694 56.5798 38.9694 55.1144 39.2544C52.9034 39.6833 50.6796 40.0313 48.5072 40.6613C46.1934 41.3332 43.9664 42.1012 41.8615 43.2891C40.0394 44.318 38.4969 45.617 36.9962 46.9879C35.4826 48.3708 34.3224 50.0267 33.2941 51.7696C33.1784 51.9646 33.0145 52.1326 32.8731 52.3125C32.6867 51.0976 32.6578 49.9337 32.5518 48.7758C32.5132 48.3498 32.6674 48.1758 33.0338 48.0048C33.6701 47.7108 34.3482 47.4378 34.8752 47.0059C36.5366 45.653 38.4519 44.708 40.3736 43.7811C42.0158 42.9861 43.5776 42.0742 44.8502 40.8053C46.7847 38.8704 49.0471 37.2955 51.0845 35.4776C51.6212 34.9976 52.1996 34.5597 52.7491 34.0917C52.913 33.9507 53.0448 33.7737 53.2537 33.5457C52.627 33.6627 52.1161 33.7017 51.6469 33.8607C50.4289 34.2717 49.2206 34.7156 48.0284 35.1836C47.3503 35.4506 46.7205 35.8286 46.0392 36.0896C44.3585 36.7315 42.7967 37.5805 41.2702 38.5044C39.175 39.7733 37.3368 41.3422 35.6432 43.0491C34.692 44.0091 33.9625 45.167 33.1334 46.2379C32.9599 46.4599 32.7992 46.6939 32.5518 47.0329C32.5036 46.5019 32.4521 46.1179 32.4361 45.734C32.3943 44.711 32.3043 43.6941 31.9476 42.7191C31.8094 42.3442 31.8962 42.1042 32.2047 41.8312C33.5833 40.6193 35.2737 39.9563 36.9672 39.2994C38.2109 38.8164 39.4674 38.3694 40.7014 37.8624C41.9611 37.3465 43.1855 36.7615 44.442 36.2395C45.9524 35.6096 47.4757 35.0036 48.9989 34.4037C50.9656 33.6297 52.942 32.8708 54.9151 32.1148C55.41 31.9258 55.9145 31.7668 56.4223 31.6048C56.6247 31.5388 56.8143 31.4788 56.7468 31.1249C56.4608 31.1879 56.178 31.2509 55.892 31.3139C55.1754 31.4728 54.4652 31.6498 53.7454 31.7878C53.4497 31.8448 53.138 31.8028 52.8391 31.8478C50.6828 32.1838 48.5297 32.5408 46.3734 32.8708C44.291 33.1887 42.2407 33.6177 40.2804 34.3797C39.5992 34.6436 38.8825 34.8686 38.2784 35.2496C36.9254 36.1016 35.6304 37.0375 34.3192 37.9464C33.233 38.6994 32.3846 39.6473 31.7966 40.8083C31.7291 40.9433 31.623 41.0572 31.427 41.3272C31.0446 39.9893 30.7072 38.8134 30.3794 37.6645C31.3145 36.9985 32.2047 36.3985 33.0595 35.7506C34.2614 34.8416 35.5661 34.0947 36.9512 33.4857C37.7995 33.1137 38.6993 32.8468 39.5831 32.5588C40.5664 32.2378 41.5466 31.9078 42.5492 31.6558C43.8925 31.3168 45.2679 31.0799 46.6112 30.7349C47.7327 30.4469 48.8446 30.1019 49.934 29.7149C50.7149 29.439 51.4509 29.049 52.2125 28.725C53.0448 28.368 53.8932 28.0411 54.7191 27.6691C54.8573 27.6061 54.9762 27.3901 54.9922 27.2341C55.0019 27.1621 54.748 27.0121 54.6002 26.9911C54.4074 26.9641 54.1985 27.0331 53.9992 27.0631C53.6489 27.1141 53.2987 27.1861 52.9452 27.2161C51.7112 27.3241 50.4611 27.3421 49.2399 27.5341C47.0868 27.8701 44.9144 28.0921 42.7935 28.632C41.5402 28.95 40.2836 29.256 39.13 29.8229C37.7995 30.4739 36.5173 31.2179 35.203 31.9018C33.9432 32.5588 32.8603 33.4227 31.8865 34.4217C31.2856 35.0366 30.6493 35.6216 29.9648 36.2815C29.8716 36.0626 29.7945 35.9246 29.7495 35.7746C29.6692 35.5196 29.6724 35.2196 29.531 35.0066C29.0618 34.2987 29.3189 33.7227 29.7913 33.1437C30.148 32.7058 30.4661 32.2408 30.8036 31.7878C31.4688 30.8969 32.1822 30.0419 33.1077 29.385C34.3674 28.488 35.6432 27.6121 36.919 26.7331C37.3689 26.4212 37.8638 26.1602 38.2784 25.8122C39.3067 24.9512 40.3029 24.0543 41.3056 23.1694C42.1058 22.4614 42.922 21.7684 43.6933 21.0335C44.5899 20.1755 45.4415 19.2726 46.322 18.3997C47.0964 17.6317 47.8806 16.8757 48.6615 16.1138C48.8318 15.9488 48.986 15.7538 48.8157 15.5408C48.639 15.3188 48.4108 15.4268 48.2084 15.5558C47.932 15.7298 47.6653 15.9218 47.3728 16.0598C45.9813 16.7018 44.5963 17.3617 43.1759 17.9497C41.6205 18.5946 40.2162 19.4766 38.9339 20.5025C37.2275 21.8704 35.4247 23.1514 34.0139 24.8343C33.7151 25.1912 33.2973 25.4582 33.0081 25.8182C32.3011 26.7031 31.5941 27.5941 30.9642 28.53C30.4147 29.343 29.9552 30.2099 29.4796 31.0649C29.2385 31.4968 29.0522 31.9588 28.7822 32.5348C28.5508 31.5058 28.3387 30.6329 28.1749 29.7509C28.1491 29.604 28.2905 29.391 28.4159 29.265C28.6408 29.037 28.9879 28.896 29.155 28.644C29.952 27.4351 30.7811 26.2382 31.4591 24.9662C32.2882 23.4123 32.9792 21.7924 33.7311 20.1995C34.1296 19.3596 34.5378 18.5256 34.9266 17.6827C35.4086 16.6418 35.881 15.5978 36.3438 14.5539C36.7712 13.594 37.2243 12.643 37.5939 11.6621C37.9474 10.7261 38.2109 9.76019 38.5065 8.80625C38.5322 8.72525 38.5065 8.62926 38.5001 8.44927C38.2944 8.58126 38.1305 8.64426 38.0245 8.75825C37.4139 9.40321 36.7776 10.0212 36.4016 10.8431C36.0803 11.5511 35.685 12.229 35.3154 12.916C34.9234 13.6479 34.5088 14.3679 34.1296 15.1059C33.94 15.4748 33.834 15.8858 33.6444 16.2548C33.127 17.2537 32.5678 18.2347 32.0537 19.2366C31.6616 19.9986 31.3145 20.7815 30.9482 21.5555C30.5625 22.3714 30.148 23.1784 29.8041 24.0093C29.3575 25.0892 28.9686 26.1932 28.5444 27.2821C28.4737 27.4681 28.3548 27.6361 28.2552 27.8101C28.2616 27.0991 28.3387 26.4302 28.4384 25.7642C28.6601 24.2523 28.8851 22.7434 29.1196 21.2345C29.3639 19.6776 29.6563 18.1237 29.8588 16.5608C30.013 15.3848 30.0773 14.1969 30.148 13.012C30.2958 10.6121 30.4276 8.21228 30.5561 5.81243C30.6236 4.57951 30.6622 3.34359 30.7297 2.10766C30.7489 1.79568 30.8486 1.4867 30.8743 1.17172C30.8968 0.88674 30.9867 0.580759 30.7682 0.295776C30.5658 0.592758 30.4276 0.895739 30.3215 1.21072C29.9745 2.22766 29.6852 3.26559 29.2867 4.26153C28.493 6.24441 27.9146 8.28428 27.5514 10.3662C27.1947 12.397 27.0147 14.4609 26.8284 16.5158C26.7255 17.6497 26.7416 18.7986 26.7641 19.9386C26.793 21.6125 26.8766 23.2863 26.9344 24.9602C26.9441 25.2242 26.9248 25.4882 26.9216 25.7492C26.1246 24.5523 25.4369 23.3643 24.7942 22.1524C24.2318 21.0935 23.6662 20.0285 23.2066 18.9276C22.6411 17.5777 22.1719 16.1888 21.677 14.8119C20.5586 11.7131 19.4757 8.60526 18.3188 5.52145C17.9203 4.45352 17.3547 3.43958 16.8502 2.40764C16.7859 2.27565 16.6349 2.18266 16.5224 2.06867C16.4485 2.35665 16.487 2.58763 16.561 2.80362C16.6702 3.1246 16.847 3.43058 16.9241 3.75756C17.1587 4.8015 17.3933 5.84843 17.57 6.90437C17.946 9.16323 18.3348 11.4221 18.6305 13.6899C18.9583 16.1948 19.9031 18.4806 21.15 20.6735C21.7573 21.7384 22.4772 22.7374 23.152 23.7573C24.0775 25.1552 25.0834 26.4962 26.0732 27.8491C26.3785 28.266 26.6773 28.686 26.9665 29.112C27.1465 29.373 27.2751 29.655 27.1658 30.0029C27.0919 29.9519 27.0308 29.9369 27.0115 29.8979C26.1824 28.185 24.5756 27.0391 23.4991 25.5062C23.4445 25.4282 23.3513 25.3742 23.2773 25.3082C22.3293 24.4713 21.4617 23.5533 20.3498 22.8934C19.9224 22.6384 19.5721 22.2664 19.1511 21.9964C18.4538 21.5525 17.7436 21.1265 17.0109 20.7365C15.809 20.1005 14.6232 19.4316 13.3699 18.9066C11.8113 18.2557 10.1916 17.7397 8.59769 17.1667C8.47878 17.1247 8.35023 17.1097 8.22812 17.0737C7.28011 16.8068 6.33853 16.5278 5.38731 16.2698C4.91491 16.1408 4.42966 16.0538 3.94763 15.9488C3.96048 16.1978 4.03761 16.3118 4.12759 16.4138C4.95348 17.3257 5.98504 17.9947 7.04873 18.6066C8.30846 19.3326 9.60675 20.0016 10.8954 20.6825C12.0941 21.3155 13.2895 21.9514 14.5075 22.5484C15.3173 22.9474 16.2042 23.2204 16.9787 23.6673C18.2802 24.4173 19.5528 25.2152 20.774 26.0732C21.9791 26.9221 23.0781 27.9061 24.2736 28.764C25.2151 29.442 26.0892 30.1799 26.8091 31.0619C27.2526 31.6078 27.6607 32.1958 27.7185 32.9907C27.5514 32.9188 27.4261 32.8887 27.3297 32.8228C26.4363 32.2228 25.5686 31.5838 24.6495 31.0259C23.5184 30.3359 22.3647 29.673 21.1821 29.067C18.5437 27.7111 15.6258 27.0811 12.8171 26.1662C12.4476 26.0462 12.0073 26.0372 11.612 26.0852C10.7829 26.1812 9.96024 26.3462 9.13757 26.4872C8.96403 26.5171 8.77764 26.5291 8.62017 26.5981C7.4665 27.1021 6.31925 27.6091 5.17842 28.137C4.76709 28.326 4.38146 28.563 3.98619 28.788C3.26956 29.196 2.55293 29.604 1.84915 30.0329C1.74632 30.0959 1.72061 30.2759 1.64348 30.4319C1.80095 30.4499 1.85557 30.4739 1.90056 30.4589C3.58448 29.9309 5.26519 29.394 6.95232 28.878C7.62396 28.671 8.28917 28.434 9.02187 28.464C11.2617 28.557 13.4695 28.854 15.6001 29.535C17.1619 30.0329 18.7173 30.5609 20.2501 31.1369C21.4745 31.5958 22.6732 32.1298 23.8686 32.6668C25.1766 33.2577 26.4588 33.9057 27.7699 34.4937C28.117 34.6496 28.2938 34.8806 28.358 35.1956C28.4609 35.6906 28.5155 36.1945 28.6087 36.8065C28.1524 36.5545 27.8021 36.3595 27.4518 36.1705C26.0378 35.4026 24.6592 34.5716 23.2002 33.8877C21.436 33.0627 19.5496 32.6248 17.5797 32.3968C15.4169 32.1448 13.3217 32.3098 11.2746 32.9248C9.70958 33.3957 8.19598 34.0287 6.6631 34.5956C6.63096 34.6076 6.62454 34.6766 6.56026 34.8206C6.83342 34.9136 7.10336 35.0816 7.3733 35.0786C8.1542 35.0756 8.94475 35.0606 9.71922 34.9496C11.1525 34.7426 12.5857 34.5986 14.0351 34.6316C14.9477 34.6526 15.8572 34.7426 16.7666 34.7876C18.8747 34.8896 20.9668 35.0876 22.9656 35.8076C23.4894 35.9966 24.0133 36.1735 24.5339 36.3745C25.8546 36.8815 27.1722 37.3945 28.4834 37.9194C28.6569 37.9884 28.8883 38.1174 28.93 38.2614C29.1454 39.0234 29.3092 39.8003 29.5213 40.6943C29.2225 40.5803 29.065 40.5203 28.9108 40.4573C28.1652 40.1543 27.4293 39.8273 26.6709 39.5543C26.1021 39.3503 25.4915 39.2514 24.9195 39.0504C22.9592 38.3694 20.9089 38.2344 18.8554 38.0814C17.2197 37.9584 15.6226 38.3034 14.0094 38.4294C11.8402 38.6034 9.68709 38.9814 7.52756 39.2784C7.02624 39.3474 6.52813 39.4493 6.0236 39.5153C4.9599 39.6563 3.94441 39.6113 3.11851 38.8164C3.01247 38.7144 2.83894 38.6754 2.56899 38.5404C2.66219 38.8374 2.66218 39.0324 2.76502 39.1374C3.52021 39.9323 4.30112 40.7183 5.42908 41.0122C6.35781 41.2552 7.29939 41.4682 8.25061 41.6152C9.98274 41.8822 11.7245 42.0742 13.4727 41.7322C14.0929 41.6122 14.6971 41.4172 15.3205 41.3302C16.4485 41.1742 17.5893 41.1022 18.7141 40.9403C20.4719 40.6853 22.204 40.8293 23.9329 41.1322C25.7293 41.4472 27.5161 41.8162 29.3189 42.1042C29.7977 42.1822 30.0066 42.3862 30.1737 42.7851C30.5497 43.6851 30.5497 44.636 30.6622 45.572C30.7007 45.8959 30.7007 46.2259 30.7232 46.5949C30.5433 46.5499 30.4661 46.5439 30.4051 46.5109C28.4705 45.431 26.4909 44.441 24.2864 43.9551C23.2709 43.7301 22.2554 43.4781 21.2271 43.3551C20.1216 43.2201 18.9936 43.1301 17.8882 43.1871C16.5256 43.2621 15.1598 43.4571 13.8165 43.7001C12.6243 43.9161 11.4513 44.24 10.2912 44.579C8.66838 45.053 7.14835 45.8299 5.44836 46.0819C5.25555 46.1119 5.03703 46.1569 5.06274 46.4449C7.19335 47.0869 9.36573 47.3868 11.5863 47.1319C13.6012 46.9009 15.6065 46.5739 17.6247 46.3789C18.8297 46.2619 20.067 46.1959 21.2656 46.3219C23.0813 46.5139 24.8745 46.8889 26.6741 47.1919C27.6735 47.3599 28.6697 47.5428 29.666 47.7138C29.9873 47.7678 30.3087 47.8128 30.614 47.8578C30.7682 49.4057 30.5979 52.5735 30.3312 53.0955C30.1737 52.9665 30.0227 52.8435 29.8716 52.7175C29.1036 52.0756 28.297 51.4426 27.32 51.1546C24.942 50.4497 22.5479 49.7897 20.0445 49.6337C19.3086 49.5887 18.5727 49.5887 17.84 49.5377C16.5513 49.4477 15.2659 49.2707 13.974 49.2407C11.9366 49.1957 10.0277 48.5988 8.08351 48.1458C7.62397 48.0408 7.18049 47.8698 6.55706 47.9568C6.79165 48.1458 6.92019 48.2838 7.08087 48.3768C8.05459 48.9438 9.00902 49.5527 10.0213 50.0507C11.2393 50.6477 12.5054 51.1846 13.8615 51.4216C16.3071 51.8476 18.7623 52.2225 21.2142 52.6215C22.6893 52.8615 24.1643 53.1135 25.6393 53.3445C27.0437 53.5635 28.4512 53.7555 29.8556 53.9714C30.3408 54.0464 30.5883 54.2804 30.524 54.6884C30.4147 55.3994 30.2412 56.1013 30.0805 56.8753C29.6981 56.7223 29.4024 56.6023 29.1004 56.4853C27.8053 55.9873 26.5199 55.4683 25.2119 55.0034C24.5242 54.7604 23.8012 54.6074 23.0942 54.4184C22.1172 54.1604 21.1499 53.8605 20.1569 53.6685C17.7982 53.2095 15.4201 52.8195 13.0614 52.3695C11.8145 52.1326 10.5869 51.8236 9.34966 51.5476C8.83228 51.4306 8.31167 51.3286 7.7975 51.1906C6.31925 50.7886 4.95026 50.1677 3.68732 49.3307C3.55877 49.2467 3.39488 49.2137 3.24706 49.1567C3.21492 49.1957 3.18279 49.2317 3.15065 49.2707C3.35311 49.5047 3.52986 49.7687 3.76445 49.9697C5.12701 51.1366 6.51849 52.2765 8.0578 53.2215C8.97045 53.7825 9.86383 54.4124 10.9211 54.7184C11.5992 54.9164 12.2965 55.0634 12.9874 55.2134C14.1957 55.4804 15.4073 55.7473 16.622 55.9903C17.4415 56.1523 18.277 56.2423 19.09 56.4193C20.2341 56.6713 21.3845 56.7853 22.5575 56.7793C23.5473 56.7733 24.5371 56.7313 25.5236 56.7883C27.0533 56.8783 28.4994 57.3162 29.9616 57.8532C29.9005 58.2612 29.8491 58.6152 29.8009 58.9451C28.9204 59.2091 26.9151 59.1071 25.5911 58.7981C23.8172 58.3842 22.0562 57.9132 20.2276 57.7272C18.608 57.5592 16.998 57.4812 15.3719 57.5892C14.4143 57.6522 13.4663 57.7032 12.56 57.2022C11.8852 56.8303 11.1043 56.6323 10.3941 56.3143C9.43 55.8853 8.44986 55.4683 7.5372 54.9464C6.10394 54.1244 4.7221 53.2185 3.31133 52.3605C3.07353 52.2166 2.80037 51.9916 2.45973 52.3515C2.78752 52.9695 3.52665 53.2035 3.93799 53.7435C4.35575 54.2924 4.87313 54.7724 5.27483 55.3274C5.69581 55.9093 6.44458 56.1583 6.827 56.6983C7.22548 57.2622 7.86819 57.5562 8.30846 58.1142C5.73116 58.7351 3.21814 59.3411 0.566926 59.9801C0.820799 60.1301 0.949344 60.2441 1.10038 60.2831C1.83308 60.478 2.56899 60.667 3.31133 60.832C3.64876 60.907 3.87692 61.063 4.11473 61.312C4.51964 61.738 4.98239 62.1279 5.47729 62.4579C6.20356 62.9439 6.97482 63.3729 7.73965 63.8048C8.04173 63.9758 8.21206 64.2008 8.35667 64.5038C8.68445 65.1847 8.98653 65.9017 9.45893 66.4837C10.3619 67.5936 11.3839 68.6135 12.3479 69.6755C12.6629 70.0234 12.9874 70.3654 13.2638 70.7434C14.1122 71.8953 14.9542 73.0443 16.0307 74.0222C16.8598 74.7752 17.66 75.5611 18.4377 76.3651C19.4692 77.433 20.4622 78.5369 21.481 79.6169C22.3133 80.4988 23.1841 81.3507 23.994 82.2507C24.3314 82.6257 24.6753 83.0426 24.4599 83.6336C24.2832 84.1106 24.1772 84.6085 24.0293 85.1365C23.4798 84.2006 23.0588 83.3036 22.4643 82.5297C21.6995 81.5337 20.7965 80.6368 19.9513 79.7009C19.5689 79.2809 19.1961 78.8489 18.7912 78.4499C18.2995 77.961 17.7982 77.475 17.2647 77.028C15.7286 75.7441 13.9194 74.9101 12.0009 74.3132C11.2425 74.0762 10.4101 73.9502 9.61317 73.9622C8.53019 73.9772 7.44722 74.1632 6.36746 74.2892C5.61226 74.3762 4.86028 74.5862 4.11151 74.5652C2.97712 74.5352 1.84915 74.3522 0.717965 74.2412C0.544431 74.2232 0.364469 74.2532 0.184508 74.2622C0.165227 74.3192 0.149164 74.3732 0.129883 74.4302C0.316271 74.5742 0.493018 74.7362 0.692261 74.8621C1.02969 75.0751 1.39925 75.2461 1.72382 75.4771C2.40189 75.9661 3.16351 76.1761 3.99583 76.2181C4.24649 76.2301 4.51964 76.2181 4.74781 76.3051C5.98182 76.761 7.26726 76.839 8.57197 76.854C10.6897 76.875 12.6307 77.541 14.3725 78.6329C15.6194 79.4129 16.7409 80.3758 17.9042 81.2758C18.4345 81.6867 18.9294 82.1397 19.4339 82.5837C20.0509 83.1236 20.6808 83.6546 21.2721 84.2186C21.9533 84.8725 22.6025 85.5565 23.2581 86.2344C23.4541 86.4384 23.5344 86.6784 23.4509 86.9724C23.062 88.3553 22.6893 89.7442 22.3068 91.1301C22.2779 91.2381 22.204 91.3311 22.0883 91.5501C21.9919 91.2291 21.9148 91.0341 21.8698 90.8302C21.5259 89.3033 20.6036 88.1423 19.3182 87.2454C18.0649 86.3724 16.7698 85.5475 15.7126 84.4556C14.3243 83.0246 12.74 81.8127 11.1493 80.6038C10.0984 79.8058 9.13435 78.9059 8.1285 78.0479C8.01602 77.952 7.91961 77.817 7.78786 77.76C7.64324 77.7 7.45043 77.667 7.31546 77.712C7.24476 77.736 7.18048 77.976 7.22226 78.0839C7.39579 78.5639 7.56612 79.0499 7.81035 79.4999C8.53984 80.8438 9.53927 82.0137 10.5548 83.1626C10.9468 83.6066 11.3067 84.0896 11.7566 84.4736C12.5504 85.1515 13.4052 85.7605 14.2215 86.4174C15.5808 87.5064 16.9369 88.6013 18.277 89.7112C19.2732 90.5392 20.2276 91.4091 21.2239 92.2371C21.587 92.5401 21.6159 92.825 21.4617 93.251C20.7033 95.3629 19.9095 97.4657 19.1929 99.5926C18.2738 102.319 17.1233 104.971 16.0628 107.653C15.8475 108.196 15.6129 108.733 15.3687 109.267C14.7099 110.713 14.0351 112.153 13.3827 113.602C13.1706 114.073 13.3699 114.736 13.7683 115.066C13.974 115.237 14.1893 115.258 14.3853 115.087C14.7228 114.796 15.0988 114.52 15.3494 114.169C15.7897 113.551 16.2075 112.906 16.5224 112.222C17.2776 110.581 18.1452 108.979 18.5951 107.218C18.7398 106.657 18.9744 106.111 19.2025 105.574C20.1152 103.414 20.9379 101.225 21.6513 98.9957C22.2297 97.1838 22.9078 95.4019 23.528 93.605C23.6341 93.296 23.8076 93.095 24.1482 93.044C24.4439 92.999 24.7427 92.921 25.0352 92.933C25.6425 92.957 26.2467 93.077 26.8509 93.077C27.8921 93.077 28.9333 92.975 29.9712 92.987C32.5614 93.023 35.0648 92.606 37.5168 91.8291C38.574 91.4961 39.6474 91.1961 40.7368 90.9801C42.0415 90.7192 43.2691 90.3172 44.4485 89.7172C45.4961 89.1833 46.6048 88.7543 47.6845 88.2773C48.2598 88.0223 48.835 87.7703 49.407 87.5064C49.542 87.4434 49.6962 87.3714 49.7734 87.2574L49.7669 87.2664ZM20.9121 90.2452C20.7868 90.1312 20.6647 90.0142 20.5394 89.9002C19.6042 89.0483 18.6594 88.2113 17.7436 87.3414C17.4832 87.0954 17.3129 86.7594 17.104 86.4654C16.9434 86.4504 16.7313 86.4954 16.6284 86.4144C15.8154 85.7635 15.0249 85.0825 14.2215 84.4196C13.4759 83.8016 12.7143 83.2016 11.9816 82.5717C11.5542 82.2057 11.1653 81.7977 10.8375 81.3268C11.4128 81.7377 12.0234 82.1097 12.5504 82.5657C13.5273 83.4116 14.4432 84.3206 15.4137 85.1725C15.9439 85.6375 16.5385 86.0365 17.104 86.4654C17.6632 86.8734 18.1967 87.3204 18.788 87.6804C19.8067 88.3043 20.398 89.2373 20.9121 90.2482V90.2452ZM20.9475 91.1211C19.2057 89.7232 17.5732 88.4033 15.9247 87.0984C14.9284 86.3094 13.9065 85.5535 12.9039 84.7675C12.6307 84.5515 12.3672 84.3146 12.1423 84.0566C11.1364 82.9046 10.1466 81.7407 9.15041 80.5828C9.18576 80.5558 9.2179 80.5288 9.25325 80.5018C9.86705 81.1738 10.4648 81.8577 11.1011 82.5117C11.4096 82.8297 11.7759 83.0966 12.123 83.3786C13.6816 84.6535 15.2723 85.8955 16.7988 87.2094C18.1356 88.3613 19.4018 89.5942 20.6968 90.7942C20.7675 90.8602 20.819 90.9442 20.9539 91.1211H20.9475ZM20.0541 80.8528C20.0188 80.8978 19.9834 80.9428 19.9481 80.9848C19.2796 80.4388 18.6048 79.8988 17.946 79.3409C17.4158 78.8909 16.9498 78.3569 16.3713 77.979C15.433 77.364 14.4303 76.836 13.4438 76.2961C13.071 76.0921 12.6597 75.9511 12.2708 75.7771C11.0239 75.2191 9.70959 75.2761 8.38559 75.3571C7.47614 75.4141 6.5667 75.4291 5.65404 75.4621C5.42587 75.4711 5.19771 75.4681 4.96954 75.4711C4.96954 75.4081 4.96954 75.3451 4.96633 75.2821C5.05631 75.2401 5.14308 75.1711 5.23948 75.1591C6.69524 74.9821 8.14456 74.7542 9.60675 74.6702C10.3202 74.6282 11.0818 74.7632 11.7663 74.9761C13.6334 75.5581 15.3848 76.3921 16.8791 77.637C17.4126 78.0809 17.8657 78.6059 18.3541 79.0979C18.7044 79.4489 19.0483 79.8058 19.3953 80.1598C19.6171 80.3878 19.8388 80.6188 20.0573 80.8498L20.0541 80.8528ZM21.9919 84.1316C21.2239 83.4386 20.4526 82.7517 19.6942 82.0497C18.1035 80.5798 16.4485 79.1789 14.575 78.06C12.8139 77.007 10.8633 76.368 8.76157 76.2601C7.85213 76.2151 6.94269 76.1881 6.03324 76.1521C6.03324 76.0981 6.03003 76.0441 6.02682 75.9901C7.4183 75.9331 8.80978 75.8401 10.198 75.8371C10.7411 75.8371 11.3035 75.9781 11.8209 76.1491C13.3442 76.65 14.7356 77.418 16.0146 78.3359C16.9466 79.0019 17.7789 79.7938 18.653 80.5288C19.1093 80.9128 19.5689 81.2968 20.0252 81.6807C20.8447 82.3677 21.4488 83.2166 21.9919 84.1346V84.1316ZM6.41886 55.5613C6.38673 55.5943 6.35781 55.6303 6.32568 55.6633C6.13608 55.4983 5.94647 55.3364 5.76008 55.1744C5.78901 55.1414 5.81792 55.1084 5.84685 55.0784C6.03966 55.2404 6.22927 55.3994 6.42208 55.5613H6.41886ZM20.6229 54.4904C19.9416 54.7484 16.8887 54.3944 14.8481 53.9204C12.9682 53.4855 11.0754 53.1105 9.36251 52.2256C9.37858 52.1626 9.39787 52.1026 9.41715 52.0396C11.265 52.4865 13.1096 52.9635 14.967 53.3715C16.8373 53.7825 18.7269 54.1184 20.6261 54.4934L20.6229 54.4904ZM25.3694 55.9723C23.3223 56.0863 21.2817 56.2603 19.2636 55.7863C18.4055 55.5853 17.5154 55.5103 16.6477 55.3454C15.4812 55.1204 14.3211 54.8774 13.161 54.6164C12.3736 54.4394 11.5702 54.2924 10.8215 54.0134C9.17934 53.4045 7.79429 52.3695 6.34496 51.4096C6.42208 51.3586 6.47028 51.3106 6.48956 51.3196C7.48899 51.7906 8.45949 52.3185 9.48463 52.7295C10.6704 53.2065 11.8852 53.6415 13.1224 53.9804C14.3854 54.3254 15.6804 54.5744 16.9755 54.7904C18.0199 54.9644 19.0836 55.0664 20.1441 55.1204C21.7734 55.2044 23.3577 55.5403 24.9484 55.8223C25.093 55.8493 25.2312 55.9213 25.3694 55.9723ZM25.3083 51.4636C24.746 51.4096 24.1868 51.3466 23.6244 51.3076C22.1333 51.1996 20.639 51.1366 19.1543 50.9806C17.9974 50.8606 16.8534 50.6356 15.7061 50.4407C15.0345 50.3267 14.3725 50.1767 13.7041 50.0417C13.7041 49.9877 13.7041 49.9367 13.7073 49.8827C13.7973 49.8677 13.8872 49.8377 13.974 49.8437C16.0436 50.0117 18.1163 50.1677 20.1827 50.3567C21.9276 50.5157 23.6469 50.8156 25.3019 51.4666L25.3083 51.4636ZM28.2745 52.9995C27.9403 52.9665 27.6093 52.9485 27.2783 52.9005C25.3501 52.6125 23.4252 52.3065 21.4938 52.0276C19.7392 51.7726 17.9749 51.5866 16.23 51.2866C14.6874 51.0196 13.1192 50.8036 11.6731 50.1557C11.1589 49.9247 10.5451 49.8917 10.1434 49.3967C10.4455 49.4717 10.7572 49.5287 11.0529 49.6277C13.2895 50.3627 15.5969 50.8306 17.9203 51.2236C18.7623 51.3676 19.6396 51.3286 20.4976 51.4006C22.6411 51.5746 24.8038 51.6466 26.8894 52.2346C27.3843 52.3755 27.8438 52.6215 28.3227 52.8195C28.3066 52.8825 28.2905 52.9425 28.2745 53.0025V52.9995ZM26.8091 45.656C25.7261 45.425 24.6495 45.167 23.5569 44.969C21.8891 44.663 20.2148 44.405 18.5052 44.66C17.9846 44.738 17.4383 44.762 16.9177 44.708C15.3109 44.537 13.8037 44.966 12.2772 45.32C11.8852 45.41 11.4899 45.497 11.0946 45.578C10.1788 45.77 9.2661 45.9589 8.34702 46.1419C8.15741 46.1809 7.96139 46.1899 7.76215 46.1719C11.1525 44.813 14.6778 43.9431 18.3509 43.8891C21.2785 43.8471 24.1257 44.48 26.8637 45.47C26.8444 45.533 26.8284 45.593 26.8091 45.656ZM29.2257 47.0029C28.628 46.8979 28.0302 46.7989 27.4357 46.6819C26.3913 46.4779 25.3533 46.2589 24.3089 46.0579C23.8365 45.9679 23.3545 45.9199 22.8821 45.8239C21.0214 45.452 19.1543 45.446 17.284 45.707C15.3526 45.9769 13.4213 46.2649 11.4803 46.4869C10.5355 46.5949 9.57461 46.5739 8.62017 46.6099C8.61375 46.5589 8.60411 46.5109 8.59769 46.4599C8.77765 46.3879 8.95118 46.2679 9.13757 46.2469C11.0368 46.0609 12.8718 45.575 14.7324 45.224C15.298 45.119 15.8893 45.161 16.471 45.134C17.2808 45.098 18.0874 45.062 18.8972 45.023C19.3536 45.002 19.8131 44.924 20.2598 44.975C21.5195 45.113 22.7825 45.239 24.0229 45.485C25.559 45.788 27.0726 46.2019 28.5926 46.5769C28.8272 46.6339 29.0489 46.7419 29.2771 46.8259C29.261 46.8829 29.2418 46.9399 29.2257 46.9969V47.0029ZM6.63418 40.5623C7.49221 40.5893 8.35023 40.6013 9.20505 40.6433C11.0882 40.7363 12.9521 40.5983 14.7999 40.2473C15.9986 40.0193 17.2037 39.9113 18.4248 40.0013C18.5662 40.0103 18.7044 40.0493 18.9229 40.0883C17.6054 40.2803 16.4035 40.4423 15.2112 40.6403C14.591 40.7423 13.9837 40.9342 13.3666 41.0542C11.6988 41.3812 10.0342 41.1802 8.37273 40.9732C7.78464 40.9013 7.20298 40.7843 6.63418 40.5623ZM27.0694 40.5593C26.6098 40.4963 26.1471 40.4333 25.6875 40.3733C24.2543 40.1873 22.8242 39.9683 21.3878 39.8303C19.9031 39.6893 18.412 39.5933 16.9177 39.5513C16.3199 39.5333 15.7061 39.6803 15.1116 39.8033C12.8139 40.2803 10.4937 40.3553 8.15421 40.2353C7.64325 40.2083 7.13229 40.2083 6.62454 40.1963C6.62454 40.1393 6.62133 40.0853 6.61812 40.0283C7.76215 39.8633 8.90297 39.6863 10.0502 39.5423C11.1782 39.4014 12.3158 39.2994 13.447 39.1704C16.2428 38.8524 19.0451 38.5794 21.8537 39.0414C22.6507 39.1734 23.438 39.3743 24.2189 39.5873C25.1862 39.8513 26.1374 40.1543 27.0694 40.5623V40.5593ZM12.1391 34.0437C14.2215 33.2757 17.4865 33.5787 19.8388 34.3167C17.2744 34.2237 14.7164 33.8877 12.1391 34.0437ZM24.0036 35.1026C21.9758 34.2657 19.842 33.8307 17.6857 33.4377C15.4651 33.0327 13.312 33.3747 11.1364 33.6897C14.17 32.1688 20.8704 32.8438 24.0036 35.1026ZM13.1481 27.0781C11.3742 26.9521 9.69352 27.4951 7.90355 27.6541C9.06044 26.7511 11.9944 26.4302 13.1481 27.0781ZM20.4365 29.556C19.0997 29.067 17.7628 28.578 16.336 28.0561C17.178 28.0141 19.1865 28.701 20.4365 29.556ZM24.8488 32.1988C20.0605 30.1349 15.1663 28.35 9.86062 27.7471C10.574 27.5431 11.2971 27.4171 12.0459 27.3871C13.4534 27.3301 14.7196 27.7921 15.9921 28.29C17.6311 28.929 19.2861 29.526 20.9411 30.1289C22.0594 30.5369 23.1167 31.0529 24.0743 31.7428C24.3153 31.9168 24.5917 32.0488 24.8488 32.2018V32.1988ZM7.05516 17.7847C7.45364 17.9557 7.85213 18.1237 8.25061 18.2977C9.54247 18.8556 10.8343 19.4256 12.1294 19.9716C13.2028 20.4245 14.2182 20.9585 15.1662 21.6245C15.5872 21.9214 16.1143 22.0804 16.5706 22.3324C17.6889 22.9504 18.8137 23.5683 19.9031 24.2283C20.2984 24.4683 20.6133 24.8313 20.9668 25.1372C20.9443 25.1672 20.9218 25.1972 20.8993 25.2242C20.7675 25.1672 20.6069 25.1402 20.5072 25.0502C19.5432 24.2043 18.3959 23.6253 17.2583 23.0404C16.1882 22.4914 15.0666 22.0354 13.9837 21.5135C12.8557 20.9705 11.7374 20.4035 10.6222 19.8306C9.50391 19.2576 8.39522 18.6696 7.28654 18.0817C7.1837 18.0277 7.09694 17.9497 7.05838 17.7817L7.05516 17.7847ZM23.6019 26.9341C23.1424 26.5201 22.6571 26.1272 22.2265 25.6862C21.1017 24.5433 19.8067 23.6223 18.367 22.8784C17.5893 22.4764 16.8084 22.0744 16.0307 21.6724C15.8507 21.5795 15.6483 21.5195 15.4972 21.3965C14.2889 20.4305 12.8557 19.8576 11.4417 19.2486C10.1498 18.6906 8.84834 18.1477 7.55005 17.5987C7.56612 17.5357 7.58219 17.4727 7.59826 17.4127C7.95496 17.5057 8.32452 17.5747 8.66838 17.7007C9.52319 18.0127 10.3619 18.3637 11.22 18.6726C13.251 19.4016 15.118 20.4305 16.9948 21.4535C18.3477 22.1914 19.6106 23.0554 20.7868 24.0033C21.8409 24.8523 22.9817 25.6682 23.6019 26.9341ZM28.3355 21.1865C28.4159 16.5098 28.5187 11.8331 29.8202 7.27934C29.592 11.9441 29.4699 16.6148 28.3355 21.1865ZM27.7025 22.8844C27.4839 22.4494 27.3136 19.4136 27.4454 17.2177C27.5578 15.3578 27.7699 13.498 27.9949 11.6471C28.2038 9.94018 28.9718 6.99736 29.4378 6.18441C29.2707 7.10235 29.1004 8.0203 28.9429 8.93824C28.7758 9.91618 28.6215 10.9001 28.4705 11.8811C28.3484 12.67 28.1909 13.459 28.1491 14.2539C28.0238 16.6718 27.9499 19.0896 27.8471 21.5075C27.8278 21.9394 27.7571 22.3684 27.7025 22.8844ZM19.4725 12.166C19.8195 13.552 20.1827 14.9349 20.594 16.3058C21.0118 17.6917 21.497 19.0566 21.9501 20.4305C21.9084 20.4485 21.8666 20.4635 21.8248 20.4815C21.767 20.3825 21.7027 20.2865 21.6513 20.1845C20.9668 18.8346 20.2084 17.5237 19.8099 16.0478C19.119 13.477 18.8651 10.8341 18.3316 8.23928C18.3124 8.15529 18.3445 8.06529 18.4891 7.9543C18.8137 9.35821 19.119 10.7681 19.4692 12.169L19.4725 12.166ZM26.9376 27.6031C26.8766 27.6361 26.8155 27.6721 26.7544 27.7051C26.4524 27.2311 26.1439 26.7631 25.845 26.2862C25.0159 24.9572 24.1996 23.6193 23.3577 22.2934C22.625 21.1445 22.1301 19.9086 21.7734 18.6096C21.5613 17.8387 21.2624 17.0887 21.031 16.3208C20.6904 15.1899 20.2309 14.0829 20.1827 12.862C20.2437 12.967 20.3144 13.066 20.3594 13.177C20.9957 14.8419 21.6963 16.4858 22.2394 18.1777C23.0428 20.6615 24.5049 22.8334 25.694 25.1312C26.1182 25.9502 26.5263 26.7811 26.9408 27.6061L26.9376 27.6031ZM30.3569 24.8823C30.2926 24.8553 30.2251 24.8313 30.1608 24.8043C30.479 23.9973 30.765 23.1754 31.1314 22.3894C31.6134 21.3485 32.1533 20.3315 32.6835 19.3146C33.172 18.3817 33.6894 17.4637 34.181 16.5338C34.316 16.2758 34.3931 15.9878 34.5249 15.7268C34.7788 15.2258 35.0551 14.7369 35.3154 14.2389C35.595 13.6989 35.865 13.153 36.1445 12.613C36.2602 12.388 36.3952 12.172 36.5205 11.9501C36.5655 11.9741 36.6105 11.998 36.6555 12.025C34.9427 16.4858 32.6 20.6645 30.3537 24.8853L30.3569 24.8823ZM33.0081 28.263C33.8243 27.4771 34.5924 26.6401 35.4665 25.9142C36.7455 24.8523 38.0984 23.8713 39.4224 22.8604C40.7496 21.8464 42.0768 20.8355 43.4072 19.8246C43.6386 19.6506 43.8764 19.4886 44.2428 19.2306C43.3333 20.9675 34.8848 27.8551 33.1206 28.389C33.0852 28.347 33.0466 28.305 33.0113 28.26L33.0081 28.263ZM32.2143 28.557C31.6841 29.16 31.1667 29.7719 30.5176 30.3119C30.659 30.0509 30.7779 29.7749 30.945 29.529C31.7901 28.26 32.6578 27.0001 33.7279 25.8962C35.2608 24.3153 36.8901 22.8274 38.6415 21.4625C40.2419 20.2175 41.9033 19.0836 43.8057 18.2887C44.5481 17.9797 45.2615 17.6107 45.991 17.2747C46.097 17.2267 46.2224 17.2177 46.338 17.1907C46.3702 17.2387 46.4055 17.2897 46.4409 17.3407C46.0167 17.5927 45.5764 17.8207 45.1747 18.0997C43.78 19.0686 42.3853 20.0346 41.0196 21.0365C39.9334 21.8314 38.8825 22.6684 37.8285 23.4993C36.5591 24.4983 35.2704 25.4792 34.0589 26.5381C33.3712 27.1381 32.8185 27.8761 32.2143 28.56V28.557ZM35.1066 50.6866C35.3251 50.5607 35.5468 50.4317 35.7686 50.3057C35.775 50.2007 35.7396 50.0567 35.7975 49.9967C36.6523 49.1057 37.4557 48.1698 38.484 47.4438C39.2167 46.9279 39.9173 46.3699 40.6371 45.8359C42.4175 44.516 44.3617 43.5021 46.5534 42.9561C46.7944 42.8961 47.0354 42.8391 47.2764 42.7851C47.2957 42.7821 47.3214 42.8061 47.4242 42.8631C47.1093 43.0011 46.849 43.1361 46.5759 43.2351C44.9498 43.8291 43.5004 44.714 42.1122 45.707C41.5048 46.1419 40.8396 46.5049 40.229 46.9399C38.7058 48.0168 37.0765 48.9678 35.7686 50.3087C35.7686 50.3087 35.7686 50.3087 35.7653 50.3117C35.5661 50.4677 35.3636 50.6236 35.1644 50.7796C35.1451 50.7526 35.1258 50.7226 35.1033 50.6926L35.1066 50.6866ZM36.1992 48.6498C36.8869 47.9718 37.5585 47.2759 38.2912 46.6399C39.0946 45.9379 39.9559 45.296 40.7914 44.63C40.9071 44.537 41.0356 44.456 41.1706 44.387C42.1925 43.8561 43.1919 43.2801 44.246 42.8211C45.3483 42.3382 46.4987 41.9512 47.6428 41.5612C48.3819 41.3092 49.1435 41.1142 49.9019 40.9162C50.49 40.7633 51.0845 40.6463 51.679 40.5203C52.3217 40.3853 52.9645 40.2533 53.6104 40.1273C53.8 40.0913 53.996 40.0823 54.1921 40.0583C54.2113 40.1183 54.2274 40.1753 54.2467 40.2353C53.4915 40.5053 52.7395 40.7753 51.9875 41.0392C50.4193 41.5942 48.7997 41.9662 47.1704 42.3292C45.2326 42.7611 43.3815 43.4421 41.7555 44.549C40.2515 45.572 38.8086 46.6759 37.3689 47.7798C36.8837 48.1518 36.4948 48.6378 35.9871 49.0307C36.0578 48.9018 36.1028 48.7488 36.2024 48.6498H36.1992ZM34.6374 57.4602C35.5854 56.8183 36.5655 56.2153 37.475 55.5283C38.9854 54.3854 40.4379 53.1735 41.9354 52.0186C43.9664 50.4497 45.8849 48.7458 48.1923 47.5248C49.2303 46.9729 50.2201 46.3339 51.2323 45.737C51.3705 45.656 51.5216 45.596 51.6662 45.527C51.6887 45.554 51.7144 45.584 51.7401 45.611C51.634 45.728 51.5408 45.8629 51.4187 45.9619C49.2881 47.6838 47.1768 49.4267 45.0108 51.1036C43.9311 51.9436 42.7485 52.6635 41.6109 53.4375C40.785 54.0014 39.9816 54.5984 39.13 55.1174C37.9345 55.8463 36.7037 56.5273 35.4761 57.2112C35.2255 57.3522 34.9266 57.4152 34.6374 57.4632V57.4602ZM33.8918 57.0522C34.4349 56.6203 34.9909 56.1973 35.5179 55.7503C37.2789 54.2504 38.9918 52.6965 40.801 51.2536C42.0833 50.2307 43.4362 49.2887 44.9466 48.5658C45.9846 48.0678 46.9551 47.4408 47.9577 46.8769C47.9898 46.8589 48.0477 46.8769 48.1698 46.8889C47.3921 47.3778 46.6273 47.7858 45.946 48.2928C44.4838 49.3787 43.0538 50.5037 41.6269 51.6286C40.5118 52.5075 39.4481 53.4495 38.3105 54.3014C37.1151 55.1984 35.865 56.0233 34.6309 56.8723C34.4381 57.0073 34.21 57.0942 33.9979 57.2052C33.9625 57.1542 33.9272 57.1032 33.8918 57.0522ZM35.9774 59.9291C36.6973 59.6201 37.4107 59.2961 38.137 59.0021C38.8825 58.6991 39.6409 58.4292 40.3897 58.1352C41.116 57.8502 41.8422 57.5682 42.5589 57.2652C43.6483 56.8063 44.7248 56.3233 45.8142 55.8583C46.5309 55.5523 47.2539 55.2554 47.9834 54.9704C49.3685 54.4274 50.686 53.7675 51.9168 52.9395C52.2189 52.7355 52.582 52.6155 52.9163 52.4595C52.9452 52.4985 52.9741 52.5405 53.003 52.5795C52.5885 52.8765 52.1643 53.1585 51.7594 53.4675C50.3775 54.5204 48.7772 55.2044 47.2154 55.9603C45.9749 56.5603 44.7762 57.2412 43.5261 57.8232C42.5492 58.2762 41.5466 58.6901 40.5182 59.0201C39.4385 59.3651 38.3201 59.5961 37.2115 59.8571C36.8226 59.9501 36.4177 59.9891 35.9807 59.9321L35.9774 59.9291ZM34.1168 60.0671C34.9619 59.5541 35.7718 58.9751 36.6587 58.5462C38.3812 57.7152 40.1423 56.9623 41.8969 56.1943C44.14 55.2134 46.4698 54.4604 48.8221 53.7705C48.8928 53.7495 48.97 53.7495 49.0439 53.7405C49.0567 53.7675 49.0664 53.7915 49.0792 53.8185C44.1078 55.9243 39.1364 58.0302 34.165 60.1391C34.1489 60.1151 34.1328 60.0941 34.1136 60.0701L34.1168 60.0671ZM35.4793 64.3718C35.5275 64.2998 35.5436 64.2398 35.579 64.2308C36.5687 63.9428 37.5617 63.6518 38.5579 63.3729C38.9468 63.2649 39.3453 63.1959 39.7341 63.0879C41.7812 62.5269 43.8218 61.9359 45.8785 61.405C46.7333 61.186 47.6299 61.12 48.4944 60.937C49.6577 60.691 50.8049 60.379 51.9683 60.1391C52.5338 60.0221 53.1219 59.9921 53.7004 59.9591C53.9382 59.9441 54.1792 60.0221 54.4202 60.0581C54.4234 60.1031 54.4299 60.1481 54.4331 60.1931C53.8803 60.409 53.334 60.646 52.7716 60.838C51.4155 61.303 50.069 61.81 48.6325 62.0199C47.932 62.1219 47.2314 62.2389 46.5373 62.3799C44.9273 62.7069 43.3655 63.2139 41.7169 63.4119C39.7598 63.6458 37.8188 64.0208 35.8714 64.3298C35.7493 64.3508 35.6239 64.3538 35.4761 64.3688L35.4793 64.3718ZM33.5287 64.4558C35.2222 62.5569 42.832 60.313 46.5212 60.7C42.1218 61.9719 37.7899 63.2229 33.5287 64.4558ZM33.8436 70.6864C34.1104 70.5634 34.3706 70.4164 34.6502 70.3174C36.3374 69.7295 37.9217 68.8985 39.6859 68.4965C43.1887 67.6986 46.6594 66.7956 50.0401 65.5897C50.8146 65.3137 51.663 65.2207 52.4824 65.0648C52.6656 65.0288 52.8681 65.0768 53.0641 65.0828C53.0769 65.1218 53.0898 65.1608 53.1026 65.1997C52.9227 65.3077 52.7556 65.4457 52.5628 65.5207C50.7053 66.2287 48.8446 66.9426 46.9743 67.6206C45.6021 68.1186 44.2267 68.6165 42.8192 69.0215C41.929 69.2795 40.9778 69.3395 40.0683 69.5375C38.709 69.8345 37.3657 70.1794 36.0096 70.4914C35.5661 70.5934 35.1162 70.6654 34.6631 70.7314C34.3996 70.7674 34.1296 70.7584 33.8436 70.6864ZM32.3204 70.6354C33.3359 69.9934 34.2517 69.2435 35.3572 68.7335C37.4589 67.7646 39.6859 67.2456 41.9547 66.8136C43.0473 66.6067 44.1175 66.2887 45.2101 66.0637C46.1452 65.8687 47.0932 65.7337 48.0348 65.5717C48.038 65.6107 48.0412 65.6497 48.0477 65.6887C47.9352 65.7367 47.8259 65.7907 47.7102 65.8267C45.8624 66.4207 44.0114 66.9996 42.1058 67.4106C40.6982 67.7106 39.2906 68.0376 37.9281 68.4785C36.7101 68.8715 35.5565 69.4445 34.3674 69.9275C33.7054 70.1974 33.0338 70.4494 32.3268 70.6324L32.3204 70.6354ZM30.3729 79.6828C31.4141 78.8759 32.5293 78.2189 33.7376 77.73C35.203 77.133 36.6812 76.56 38.1723 76.0171C39.8755 75.3961 41.5884 74.7991 43.3108 74.2352C45.3997 73.5512 47.3985 72.6753 49.3427 71.6823C50.1622 71.2654 50.9945 70.8664 51.9522 70.7434C51.5987 70.9714 51.2548 71.2114 50.8885 71.4214C49.3524 72.3153 47.8195 73.2152 46.2738 74.0882C44.3038 75.1981 42.2504 76.1251 40.0491 76.755C37.7449 77.412 35.46 78.123 33.172 78.8219C32.4489 79.0409 31.7355 79.2929 31.0157 79.5209C30.8068 79.5869 30.5915 79.6319 30.3794 79.6828H30.3729ZM30.675 78.6479C31.7644 77.916 32.8442 77.172 33.9464 76.458C35.6882 75.3331 37.6485 74.6942 39.6377 74.1152C40.9456 73.7342 42.2343 73.2872 43.5486 72.9303C44.6123 72.6453 45.705 72.4533 46.7815 72.2193C46.8008 72.2703 46.8201 72.3183 46.8362 72.3693C46.4666 72.5403 46.1067 72.7413 45.721 72.8763C43.2948 73.7222 40.8557 74.5322 38.439 75.3961C37.3014 75.8011 36.196 76.2931 35.0808 76.755C34.0364 77.19 32.992 77.622 31.9637 78.0839C31.5427 78.2729 31.1635 78.5459 30.765 78.7799C30.7361 78.7349 30.7039 78.6899 30.6718 78.6449L30.675 78.6479ZM38.8311 84.0116C37.5167 84.4076 36.1413 84.4286 34.7852 84.5516C33.4516 84.6745 32.1083 84.7345 30.7746 84.8635C30.3376 84.9055 29.9102 85.0675 29.4796 85.1755C31.0542 84.1916 32.8153 83.8676 34.6052 83.6936C35.7589 83.5796 36.9319 83.6246 38.0888 83.5346C39.2232 83.4476 40.3511 83.3066 41.4052 82.8297C42.4785 82.3437 43.5744 81.8907 44.6605 81.4317C44.773 81.3837 44.9048 81.3777 45.1651 81.3238C44.1046 81.9987 43.1341 82.5717 42.064 82.9556C40.9971 83.3366 39.9205 83.6846 38.8343 84.0116H38.8311ZM27.9113 86.3304C28.1234 86.2434 28.3387 86.1655 28.5476 86.0695C29.997 85.4185 31.5459 85.2385 33.1238 85.1335C34.7113 85.0285 36.3052 84.9085 37.8799 84.6925C38.6704 84.5845 39.4256 84.2546 40.1969 84.0206C40.364 83.9696 40.5279 83.9066 40.6918 83.8496C38.8086 84.9055 36.7744 85.6015 34.5795 85.8115C32.6674 85.9945 30.7521 86.1624 28.8401 86.3424C28.5444 86.3694 28.2552 86.4234 27.9628 86.4624C27.9467 86.4174 27.9274 86.3724 27.9113 86.3274V86.3304ZM24.2061 79.2779C23.6855 77.562 22.9142 75.9541 21.9823 74.4182C20.5908 72.1233 18.7044 70.2964 16.2749 68.9825C15.3044 68.4575 14.3886 67.8456 13.447 67.2666C13.3956 67.2336 13.3666 67.1676 13.2638 67.0356C14.5846 67.5186 15.8218 67.9416 17.0334 68.4245C18.5309 69.0215 20.0284 69.6335 21.4906 70.3084C23.0363 71.0194 24.341 72.0453 25.5333 73.2363C27.0244 74.7242 26.7512 74.6642 26.4074 76.1911C26.0667 77.709 25.6072 79.2029 25.1926 80.7088C25.1573 80.8378 25.0802 80.9578 24.9645 81.2068C24.6785 80.4868 24.3892 79.8958 24.2029 79.2779H24.2061ZM25.2569 72.1233C24.2479 70.9774 22.9335 70.2244 21.5452 69.6305C19.2282 68.6375 16.8695 67.7376 14.5203 66.8196C13.1256 66.2737 11.8145 65.5927 10.6287 64.7018C10.3941 64.5248 10.182 64.3208 10.0084 64.0208C10.2077 64.0688 10.4134 64.1108 10.6094 64.1708C11.6988 64.5038 12.7786 64.8578 13.8744 65.1667C15.3109 65.5747 16.773 65.8957 18.1902 66.3457C20.1827 66.9756 22.0176 67.9086 23.573 69.2885C24.1322 69.7835 24.7106 70.2544 25.2601 70.7584C25.9093 71.3524 26.2338 72.0903 26.2917 73.1283C25.8579 72.7113 25.5333 72.4383 25.2569 72.1233ZM17.2679 70.3924C19.0129 71.5264 20.4108 73.0023 21.436 74.7632C22.1205 75.9451 22.6828 77.196 23.2902 78.4199C23.3641 78.5699 23.3866 78.7409 23.4348 78.9029C23.3995 78.9299 23.3641 78.9569 23.3288 78.9839C22.9078 78.4409 22.5093 77.88 22.0562 77.364C21.5034 76.734 20.9121 76.1311 20.3241 75.5311C19.1254 74.3132 17.901 73.1162 16.712 71.8893C16.1978 71.3584 15.764 70.7524 15.253 70.2184C14.8256 69.7715 14.3564 69.3635 13.8776 68.9675C13.3731 68.5445 12.891 68.1066 12.5697 67.5276C14.1379 68.4785 15.7286 69.3965 17.2647 70.3924H17.2679ZM9.25647 65.0408C9.30467 65.0048 9.35287 64.9688 9.40429 64.9328C10.0502 65.5747 10.7379 66.1837 11.3324 66.8676C12.1423 67.8006 12.92 68.7395 13.9001 69.5345C14.6296 70.1254 15.2145 70.8814 15.8636 71.5623C16.7023 72.4413 17.5572 73.3052 18.3831 74.1932C19.7135 75.6241 21.0503 77.049 22.3261 78.5219C22.7632 79.0259 23.017 79.6739 23.3545 80.2558C23.3127 80.2858 23.2741 80.3188 23.2356 80.3488C23.107 80.2558 22.9624 80.1808 22.8532 80.0698C21.5292 78.6959 20.218 77.313 18.8908 75.9421C18.3027 75.3361 17.7146 74.7271 17.0783 74.1692C15.719 72.9753 14.6521 71.5594 13.5884 70.1344C13.3538 69.8195 13.0774 69.5315 12.8043 69.2465C11.7245 68.1186 10.5837 67.0446 9.67745 65.7757C9.51355 65.5477 9.39465 65.2897 9.25647 65.0438V65.0408ZM7.42151 62.0019C8.15421 62.1849 8.88691 62.3709 9.6196 62.5539C11.6538 63.0669 13.688 63.5738 15.719 64.0928C17.4093 64.5248 19.0483 65.0977 20.6229 65.8387C21.3942 66.2017 22.2008 66.5077 22.9271 66.9396C24.4567 67.8486 25.7261 69.0275 26.5327 70.5964C26.7769 71.0704 26.9698 71.5773 26.838 72.2163C26.6388 71.8233 26.5295 71.4604 26.3013 71.1874C25.8321 70.6204 25.3405 70.0564 24.7813 69.5675C23.5698 68.5025 22.3004 67.5186 20.8157 66.7806C19.2154 65.9887 17.5025 65.5867 15.8058 65.1038C13.643 64.4888 11.4481 63.9668 9.37859 63.0849C8.69409 62.7939 8.03209 62.4639 7.35724 62.1489C7.37973 62.1009 7.40223 62.0499 7.42151 62.0019ZM28.3869 66.2257C28.5251 67.0416 27.9788 69.9695 27.4679 71.0824C27.3168 70.7374 27.214 70.4134 27.0469 70.1254C25.7132 67.8636 23.7787 66.2737 21.2399 65.3377C20.3208 64.9988 19.4435 64.5458 18.518 64.2248C17.4704 63.8618 16.3971 63.5648 15.3237 63.2769C13.9579 62.9079 12.5825 62.5779 11.2103 62.2299C10.2784 61.9929 9.34644 61.759 8.41772 61.522C8.29881 61.492 8.18955 61.435 8.07708 61.39C8.07708 61.327 8.07708 61.261 8.07708 61.198C9.17291 61.051 10.272 60.886 11.371 60.766C11.5927 60.742 11.8723 60.838 12.0619 60.964C14.244 62.4099 16.7152 63.2109 19.2122 63.9578C20.5426 64.3568 21.8794 64.7528 23.2291 65.0947C23.9618 65.2777 24.7235 65.3647 25.4754 65.4577C26.4877 65.5807 27.4839 65.7427 28.3869 66.2227V66.2257ZM20.5329 63.7148C19.5464 63.3969 18.5405 63.1329 17.5636 62.7849C16.4485 62.3889 15.3237 61.9899 14.26 61.48C13.1321 60.94 12.0844 60.2501 11.2232 59.3411C11.0207 59.1281 10.7765 58.9541 10.5515 58.7651C10.5676 58.7261 10.5837 58.6842 10.5965 58.6422C10.7604 58.6871 10.9307 58.7171 11.085 58.7831C13.4695 59.8091 15.8475 60.844 18.232 61.864C19.3278 62.3319 20.488 62.5839 21.6577 62.8209C23.528 63.1989 25.3051 63.8378 27.0147 64.6478C27.1947 64.7348 27.3554 64.8578 27.5193 64.9718C27.5482 64.9928 27.5482 65.0558 27.5611 65.1008C25.1798 64.8098 22.8178 64.4468 20.5329 63.7118V63.7148ZM5.47729 60.43C5.78258 60.2171 6.14893 60.2111 6.496 60.1541C7.58862 59.9711 8.68766 59.8181 9.77385 59.6141C10.333 59.5091 10.7058 59.6561 10.9789 60.2441C9.12149 60.4 7.35724 61.24 5.4805 60.427L5.47729 60.43ZM8.73907 58.5942C9.15363 58.5072 9.40108 58.6752 9.67745 59.0381C7.49221 59.6051 5.3391 59.8631 3.12815 59.8241C3.27277 59.7731 3.41738 59.7071 3.56841 59.6771C5.2909 59.3141 7.01981 58.9631 8.74229 58.5942H8.73907ZM15.3591 59.1311C15.7479 59.3081 16.1528 59.4491 16.5513 59.6051C18.0938 60.2081 19.646 60.787 21.2431 61.264C22.3968 61.609 23.4991 62.1219 24.6142 62.5839C25.334 62.8809 26.0346 63.2229 26.7448 63.5378C27.3136 63.7868 27.7474 64.1828 28.1009 64.6958C27.365 64.3358 26.6452 63.9398 25.89 63.6248C24.3314 62.9769 22.7278 62.4579 21.0535 62.1339C19.6781 61.867 18.4056 61.327 17.133 60.763C15.0859 59.8541 13.0196 58.9961 10.95 58.1352C10.0374 57.7572 8.06423 56.4823 7.57897 55.7863C7.98389 55.9453 8.39201 56.0983 8.79693 56.2603C9.63567 56.5963 10.4873 56.9173 11.3132 57.2862C12.6693 57.8862 14.0062 58.5252 15.3559 59.1371L15.3591 59.1311ZM25.3469 59.5031C24.6367 59.4581 23.9265 59.4041 23.2131 59.3651C22.7567 59.3411 22.2972 59.2961 21.8441 59.3291C20.128 59.4521 18.4634 59.0681 16.7827 58.8581C16.3006 58.7981 15.8475 58.5192 15.3816 58.3392C15.3944 58.2762 15.4041 58.2132 15.4169 58.1502C18.8072 57.9432 22.114 58.4142 25.3469 59.5031ZM25.5558 60.1451C25.1155 60.1901 24.6785 60.2591 24.235 60.2771C23.2741 60.313 22.3133 60.325 21.3556 60.349C20.6615 60.367 20.0348 60.1451 19.2861 59.8211C21.4745 59.8571 23.5216 59.7491 25.5558 60.1481V60.1451ZM29.6499 59.6951C29.3382 61.297 29.0489 62.7849 28.7597 64.2698C28.8176 64.3058 28.8754 64.3418 28.93 64.3808C28.8722 64.3538 28.8111 64.3268 28.7533 64.2998C28.7533 64.2908 28.7565 64.2788 28.7597 64.2698C28.6826 64.2218 28.6087 64.1678 28.5541 64.1018C27.8246 63.2019 26.7834 62.7339 25.7454 62.2809C24.7074 61.831 23.6373 61.453 22.4579 60.997C23.3352 60.751 24.1354 60.922 24.9034 60.802C25.6747 60.679 26.462 60.61 27.2204 60.436C28.0045 60.2531 28.7629 59.9711 29.6499 59.6951ZM50.8017 28.227C50.5768 28.272 50.3518 28.326 50.1236 28.362C48.8511 28.56 47.5913 28.77 46.3541 29.163C45.3579 29.481 44.2556 29.493 43.2112 29.685C41.5659 29.9879 39.988 30.4679 38.5194 31.2689C37.7899 31.6678 36.9736 31.9168 36.196 32.2348C36.167 32.1838 36.1381 32.1298 36.1092 32.0788C36.2345 31.9888 36.3502 31.8808 36.4884 31.8118C38.2623 30.9239 40.0041 29.9669 41.9515 29.454C42.7324 29.25 43.5165 29.052 44.3135 28.92C46.0874 28.629 47.8709 28.374 49.6545 28.122C50.024 28.0681 50.4032 28.08 50.7792 28.0621C50.7889 28.116 50.7985 28.17 50.8081 28.227H50.8017ZM31.0574 36.2245C31.0349 36.1735 31.006 36.1226 30.9835 36.0716C31.4881 35.7116 31.9926 35.3546 32.4971 34.9946C32.8988 34.7066 33.3519 34.4577 33.6894 34.1097C34.5602 33.2247 35.7332 32.8708 36.829 32.3848C38.0213 31.8538 39.2264 31.3468 40.4379 30.8519C40.83 30.6899 41.2445 30.5609 41.6591 30.4799C43.2241 30.1769 44.8148 29.9699 46.3541 29.586C47.4789 29.307 48.5779 28.929 49.7444 28.812C49.8891 28.797 50.0337 28.785 50.3261 28.758C49.3331 29.283 48.3851 29.511 47.4467 29.7539C46.0552 30.1169 44.6734 30.5309 43.2626 30.7859C41.3345 31.1369 39.5156 31.8148 37.6774 32.4178C36.5655 32.7808 35.5308 33.4017 34.5153 33.9927C33.4355 34.6226 32.4232 35.3516 31.3788 36.0356C31.276 36.1016 31.1667 36.1615 31.0607 36.2245H31.0574ZM48.8061 33.1887C48.6197 33.1797 48.4365 33.1737 48.2501 33.1647C48.2212 33.1707 48.1891 33.1797 48.1601 33.1857C48.128 33.1917 48.0991 33.1947 48.067 33.2007C47.6588 33.3657 47.2603 33.5487 46.8394 33.6777C43.8186 34.5896 40.8685 35.6846 37.9506 36.8635C37.0476 37.2295 36.1799 37.6795 35.2801 38.0994C35.4729 37.5895 37.9956 35.9126 39.0336 35.4746C40.4733 34.8686 41.9033 34.2417 43.4522 33.9537C44.9819 33.6687 46.5244 33.4467 48.0637 33.2007C48.0959 33.1887 48.128 33.1737 48.1569 33.1617C48.1859 33.1617 48.2148 33.1617 48.2437 33.1647C48.4237 33.1227 48.6036 33.0807 48.7836 33.0387C48.79 33.0897 48.7932 33.1377 48.7996 33.1887H48.8061ZM32.8217 40.5803C33.0402 40.0373 33.7633 39.4073 34.5153 39.0054C38.0052 37.1485 41.7362 35.8316 45.4929 34.5776C46.3284 34.2987 47.1704 34.0317 48.0155 33.7767C48.2758 33.6987 48.5554 33.6807 48.8286 33.6357C48.8511 33.6807 48.8736 33.7227 48.8961 33.7647C48.1377 34.0887 47.3825 34.4127 46.6241 34.7366C44.9819 35.4386 43.3462 36.1496 41.6976 36.8365C40.7239 37.2415 39.7406 37.6255 38.7508 37.9884C36.7166 38.7354 34.6695 39.4523 32.8249 40.5773L32.8217 40.5803ZM36.0803 45.215C38.0695 43.3641 48.263 36.3715 49.2656 36.0926C48.2951 36.8725 47.3053 37.6405 46.3509 38.4474C45.5732 39.1074 44.8405 39.8153 44.0917 40.5083C43.0248 41.4952 41.7908 42.2512 40.4893 42.9171C39.0143 43.6701 37.5521 44.45 36.0803 45.218V45.215ZM33.8404 46.2169C37.4621 41.1202 42.5299 37.8504 48.4687 35.6846C43.494 39.0714 38.3876 42.2872 33.8404 46.2169ZM22.0626 95.8218C21.6063 97.0578 21.1789 98.3027 20.7643 99.5506C20.5362 100.244 20.3883 100.961 20.1537 101.65C19.887 102.433 19.5656 103.201 19.2636 103.972C18.4313 106.084 17.6022 108.199 16.7602 110.305C16.2685 111.535 15.6644 112.711 14.8802 113.794C14.6971 114.046 14.4528 114.256 14.2118 114.514C13.8487 114.271 13.8487 114.088 13.9708 113.818C14.7453 112.102 15.5037 110.38 16.2492 108.655C16.908 107.131 17.5829 105.61 18.1838 104.062C18.9004 102.217 19.5207 100.34 20.2212 98.4887C20.9121 96.6648 21.6705 94.8589 22.3679 93.038C22.6507 92.2941 22.8435 91.5171 23.0974 90.7612C23.663 89.0723 23.9168 87.3024 24.6399 85.6555C24.9613 84.9235 25.1444 84.1286 25.3373 83.3486C25.9896 80.7298 26.6388 78.1079 27.2558 75.4801C27.6896 73.6322 28.0559 71.7693 28.4769 69.9155C28.7662 68.6375 29.1196 67.3746 29.3992 66.0937C29.5535 65.3827 29.6145 64.6538 29.7109 63.9338C29.7849 63.3789 29.772 62.7999 29.9391 62.2719C30.3022 61.114 30.2637 59.9141 30.4533 58.7411C30.675 57.3732 30.9739 56.0143 31.1506 54.6404C31.2952 53.5095 31.4366 52.3515 31.3467 51.2236C31.2406 49.9397 31.3274 48.6738 31.3306 47.3988C31.3306 46.1389 31.4431 44.867 31.1153 43.6251C30.855 42.6411 30.5561 41.6662 30.2765 40.6883C30.0805 40.0103 29.8748 39.3384 29.7013 38.6544C29.6467 38.4414 29.6885 38.2044 29.6852 37.9794C29.7399 37.9734 29.7913 37.9644 29.8427 37.9584C29.9455 38.2944 30.0387 38.6364 30.1544 38.9694C30.4244 39.7523 30.7039 40.5323 30.9803 41.3152C30.9867 41.3392 31.0028 41.3632 31.0028 41.3842C30.9803 42.4672 31.5941 43.4241 31.6712 44.489C31.7098 45.023 31.7612 45.554 31.7934 46.0879C31.8737 47.3419 31.9701 48.5958 32.0183 49.8527C32.0665 51.0166 32.1083 52.1836 32.0633 53.3475C32.0344 54.0914 31.7869 54.8234 31.7323 55.5673C31.6295 56.9713 31.6166 58.3782 31.5202 59.7821C31.4302 61.138 31.2985 62.4849 30.9289 63.8108C30.5401 65.2147 30.2187 66.6397 29.9038 68.0646C29.6017 69.4415 29.4474 70.8514 29.0522 72.2013C28.583 73.8032 28.2713 75.4381 27.8149 77.04C27.4486 78.3239 27.1851 79.6348 26.8476 80.9278C26.4138 82.5897 25.9478 84.2456 25.5076 85.9075C25.3951 86.3304 25.379 86.7774 25.2408 87.1884C24.8906 88.2473 24.4985 89.2943 24.1225 90.3472C23.9747 90.7612 23.8301 91.1751 23.6758 91.5861C23.1359 92.996 22.5768 94.4029 22.0562 95.8189L22.0626 95.8218ZM40.1422 88.9163C39.943 88.9943 39.7502 89.0843 39.5477 89.1473C37.5135 89.7682 35.4504 90.2032 33.3102 90.3742C31.652 90.5062 30.013 90.8662 28.3645 91.1181C28.1459 91.1511 27.9242 91.1601 27.7025 91.1781C28.5605 90.6082 29.531 90.3232 30.4951 90.0472C32.0537 89.6002 33.6508 89.3483 35.2801 89.2493C36.6973 89.1653 38.108 88.9943 39.5188 88.8653C39.718 88.8473 39.9173 88.8473 40.1422 88.9163ZM45.7371 88.1933C43.7318 89.3753 41.7265 90.3322 39.4545 90.6952C38.86 90.7912 38.2912 91.0251 37.7031 91.1781C36.5302 91.4811 35.3636 91.8171 34.1746 92.0511C33.4612 92.1921 32.7124 92.1741 31.9765 92.2251C30.3087 92.3451 28.6376 92.4771 26.9665 92.57C26.4974 92.597 26.0218 92.5011 25.5494 92.4621C25.5397 92.4051 25.5301 92.3511 25.5204 92.2941C25.71 92.2221 25.89 92.1261 26.086 92.0841C28.0624 91.6551 30.0419 91.2591 32.0633 91.0581C34.7627 90.7882 37.4203 90.3352 40.0105 89.4892C41.7298 88.9253 43.539 88.6133 45.3097 88.1933C45.419 88.1663 45.5443 88.1933 45.7371 88.1933Z" fill="#999999" fill-opacity="0.08"/>
</svg>
