<svg width="40" height="40" viewBox="0 0 40 40" fill="none" xmlns="http://www.w3.org/2000/svg">
<path d="M23.0902 25.2433C23.6097 25.7651 24.0006 26.4008 24.2318 27.1L24.9785 29.395C25.0409 29.5719 25.1567 29.725 25.3098 29.8334C25.4629 29.9417 25.6459 29.9999 25.8335 29.9999C26.0211 29.9999 26.2041 29.9417 26.3572 29.8334C26.5103 29.725 26.6261 29.5719 26.6885 29.395L27.4352 27.1C27.6675 26.4024 28.0594 25.7686 28.5796 25.249C29.0998 24.7294 29.734 24.3382 30.4318 24.1066L32.7285 23.36C32.9041 23.2964 33.0558 23.1804 33.1631 23.0275C33.2703 22.8747 33.3279 22.6925 33.3279 22.5058C33.3279 22.3191 33.2703 22.1369 33.1631 21.9841C33.0558 21.8312 32.9041 21.7151 32.7285 21.6516L32.6818 21.64L30.3852 20.8933C29.6875 20.6614 29.0535 20.2701 28.5333 19.7505C28.0132 19.2309 27.6212 18.5974 27.3885 17.9L26.6435 15.605C26.5814 15.4275 26.4657 15.2737 26.3124 15.1649C26.159 15.0561 25.9757 14.9976 25.7877 14.9976C25.5996 14.9976 25.4163 15.0561 25.2629 15.1649C25.1096 15.2737 24.9939 15.4275 24.9318 15.605L24.1852 17.9C23.9577 18.5927 23.5731 19.2234 23.0613 19.7427C22.5495 20.262 21.9245 20.6558 21.2352 20.8933L18.9385 21.64C18.7629 21.7035 18.6112 21.8196 18.5039 21.9724C18.3967 22.1252 18.3391 22.3074 18.3391 22.4941C18.3391 22.6808 18.3967 22.863 18.5039 23.0159C18.6112 23.1687 18.7629 23.2848 18.9385 23.3483L21.2352 24.095C21.9352 24.3283 22.5685 24.7216 23.0902 25.2433ZM26.6668 9.99996V13.4883C26.3473 13.372 26.0079 13.3202 25.6682 13.3359C25.3285 13.3515 24.9953 13.4344 24.6878 13.5796C24.3804 13.7248 24.1047 13.9295 23.8768 14.1819C23.6489 14.4343 23.4733 14.7293 23.3602 15.05L23.3535 15.07L22.6018 17.3816C22.4552 17.8281 22.2077 18.2347 21.8784 18.57C21.5492 18.9053 21.1472 19.1602 20.7035 19.315L18.4035 20.06L18.3852 20.0683C17.8831 20.2455 17.4483 20.574 17.1408 21.0086C16.8333 21.4432 16.6682 21.9626 16.6682 22.495C16.6682 23.0274 16.8333 23.5467 17.1408 23.9813C17.4483 24.4159 17.8831 24.7445 18.3852 24.9216L18.4035 24.9283L20.7135 25.6783C21.1535 25.825 21.5552 26.0716 21.8868 26.395C20.8924 26.6884 19.8433 26.7458 18.8228 26.5627C17.8023 26.3796 16.8385 25.961 16.0082 25.3401C15.1778 24.7193 14.5037 23.9134 14.0394 22.9863C13.575 22.0593 13.3334 21.0368 13.3335 20V10.0016C13.3335 8.23352 14.0359 6.53782 15.2861 5.28758C16.5364 4.03734 18.2321 3.33496 20.0002 3.33496C21.7683 3.33496 23.464 4.03734 24.7142 5.28758C25.9645 6.53782 26.6668 8.23185 26.6668 9.99996ZM20.4168 29.1666C21.3007 29.1674 22.1795 29.0342 23.0235 28.7716L23.4002 29.93L23.4068 29.95C23.5552 30.37 23.8102 30.7433 24.1435 31.0333C23.2105 31.3612 22.2381 31.5641 21.2518 31.6366L21.2502 35.4166C21.2501 35.7333 21.1298 36.0382 20.9135 36.2696C20.6973 36.501 20.4013 36.6418 20.0854 36.6633C19.7694 36.6849 19.457 36.5858 19.2113 36.3859C18.9657 36.186 18.805 35.9004 18.7618 35.5866L18.7502 35.4166V31.6366C15.986 31.4314 13.3949 30.2129 11.4738 28.2149C9.55275 26.2169 8.43685 23.58 8.34016 20.81L8.3335 20.4166V19.5833C8.33359 19.2666 8.4539 18.9617 8.67012 18.7303C8.88633 18.4989 9.18233 18.3582 9.4983 18.3366C9.81427 18.315 10.1266 18.4142 10.3723 18.614C10.618 18.8139 10.7787 19.0995 10.8218 19.4133L10.8335 19.5833V20.4166C10.8333 22.6751 11.7064 24.8461 13.2701 26.4757C14.8338 28.1052 16.967 29.067 19.2235 29.16L19.5835 29.1666H20.4168ZM36.6952 31.6083L37.9718 32.0216L37.9968 32.0283C38.0703 32.0542 38.1368 32.0969 38.1911 32.1528C38.2454 32.2088 38.286 32.2765 38.3098 32.3508C38.3335 32.425 38.3397 32.5038 38.3279 32.5808C38.3161 32.6579 38.2867 32.7312 38.2418 32.795C38.1812 32.88 38.0955 32.9441 37.9968 32.9783L36.7218 33.3916C36.3339 33.5203 35.9813 33.7376 35.6919 34.0264C35.4026 34.3151 35.1846 34.6673 35.0552 35.055L34.6418 36.33C34.6073 36.4284 34.5431 36.5137 34.458 36.574C34.3729 36.6344 34.2712 36.6668 34.1668 36.6668C34.0625 36.6668 33.9608 36.6344 33.8757 36.574C33.7906 36.5137 33.7263 36.4284 33.6918 36.33L33.2768 35.0566C33.1488 34.6677 32.9315 34.3141 32.6424 34.0241C32.3533 33.7342 32.0004 33.5158 31.6118 33.3866L30.3368 32.9716C30.2633 32.9457 30.1968 32.9031 30.1425 32.8471C30.0882 32.7912 30.0476 32.7234 30.0239 32.6492C30.0002 32.5749 29.994 32.4961 30.0057 32.4191C30.0175 32.342 30.047 32.2687 30.0918 32.205C30.1525 32.1199 30.2381 32.0558 30.3368 32.0216L31.6118 31.6083C31.9949 31.4762 32.3423 31.2574 32.6268 30.9688C32.9113 30.6803 33.1252 30.3299 33.2518 29.945L33.6668 28.67C33.7013 28.5715 33.7656 28.4862 33.8507 28.4259C33.9358 28.3655 34.0375 28.3331 34.1418 28.3331C34.2462 28.3331 34.3479 28.3655 34.433 28.4259C34.5181 28.4862 34.5823 28.5715 34.6168 28.67L35.0318 29.9433C35.1604 30.3311 35.3777 30.6836 35.6664 30.9726C35.9552 31.2617 36.3075 31.4794 36.6952 31.6083Z" fill="#DBDBDB"/>
</svg>
