<svg width="24" height="25" viewBox="0 0 24 25" fill="none" xmlns="http://www.w3.org/2000/svg">
<path d="M13.854 15.646C14.1657 15.9591 14.4003 16.3405 14.539 16.76L14.987 18.137C15.0245 18.2431 15.0939 18.335 15.1858 18.4C15.2777 18.465 15.3874 18.5 15.5 18.5C15.6126 18.5 15.7223 18.465 15.8142 18.4C15.9061 18.335 15.9755 18.2431 16.013 18.137L16.461 16.76C16.6004 16.3414 16.8355 15.9612 17.1477 15.6494C17.4598 15.3376 17.8403 15.1029 18.259 14.964L19.637 14.516C19.7423 14.4779 19.8334 14.4082 19.8977 14.3165C19.9621 14.2248 19.9966 14.1155 19.9966 14.0035C19.9966 13.8914 19.9621 13.7821 19.8977 13.6904C19.8334 13.5987 19.7423 13.5291 19.637 13.491L19.609 13.484L18.231 13.036C17.8124 12.8968 17.432 12.6621 17.1199 12.3503C16.8078 12.0386 16.5726 11.6584 16.433 11.24L15.986 9.86298C15.9488 9.75649 15.8793 9.66422 15.7873 9.59893C15.6953 9.53364 15.5853 9.49857 15.4725 9.49857C15.3597 9.49857 15.2497 9.53364 15.1577 9.59893C15.0657 9.66422 14.9962 9.75649 14.959 9.86298L14.511 11.24C14.3745 11.6556 14.1437 12.034 13.8367 12.3456C13.5296 12.6572 13.1546 12.8935 12.741 13.036L11.363 13.484C11.2577 13.5221 11.1666 13.5917 11.1023 13.6834C11.0379 13.7751 11.0034 13.8844 11.0034 13.9965C11.0034 14.1085 11.0379 14.2178 11.1023 14.3095C11.1666 14.4012 11.2577 14.4709 11.363 14.509L12.741 14.957C13.161 15.097 13.541 15.333 13.854 15.646ZM16 6.49998V8.59298C15.8083 8.5232 15.6046 8.49212 15.4008 8.50152C15.197 8.51092 14.9971 8.56062 14.8126 8.64775C14.6281 8.73488 14.4627 8.8577 14.326 9.00913C14.1893 9.16056 14.0839 9.33758 14.016 9.52998L14.012 9.54198L13.561 10.929C13.473 11.1968 13.3245 11.4408 13.127 11.642C12.9294 11.8432 12.6882 11.9961 12.422 12.089L11.042 12.536L11.031 12.541C10.7298 12.6473 10.4689 12.8444 10.2844 13.1052C10.0999 13.3659 10.0008 13.6775 10.0008 13.997C10.0008 14.3164 10.0999 14.628 10.2844 14.8888C10.4689 15.1495 10.7298 15.3467 11.031 15.453L11.042 15.457L12.428 15.907C12.692 15.995 12.933 16.143 13.132 16.337C12.5353 16.513 11.9059 16.5475 11.2936 16.4376C10.6813 16.3278 10.103 16.0766 9.6048 15.7041C9.10657 15.3316 8.7021 14.848 8.42352 14.2918C8.14493 13.7356 7.99992 13.1221 8 12.5V6.50098C8 5.44011 8.42143 4.42269 9.17157 3.67255C9.92172 2.9224 10.9391 2.50098 12 2.50098C13.0609 2.50098 14.0783 2.9224 14.8284 3.67255C15.5786 4.42269 16 5.43911 16 6.49998ZM12.25 18C12.7803 18.0004 13.3076 17.9205 13.814 17.763L14.04 18.458L14.044 18.47C14.133 18.722 14.286 18.946 14.486 19.12C13.9262 19.3167 13.3428 19.4385 12.751 19.482L12.75 21.75C12.7499 21.94 12.6778 22.1229 12.548 22.2618C12.4183 22.4006 12.2407 22.4851 12.0511 22.498C11.8615 22.511 11.6741 22.4515 11.5267 22.3315C11.3793 22.2116 11.2829 22.0402 11.257 21.852L11.25 21.75V19.482C9.59152 19.3588 8.03687 18.6277 6.88421 17.4289C5.73155 16.2301 5.06201 14.648 5.004 12.986L5 12.75V12.25C5.00006 12.06 5.07224 11.877 5.20197 11.7382C5.3317 11.5993 5.5093 11.5149 5.69888 11.502C5.88846 11.489 6.07589 11.5485 6.2233 11.6684C6.37071 11.7883 6.4671 11.9597 6.493 12.148L6.5 12.25V12.75C6.49989 14.105 7.02372 15.4077 7.96194 16.3854C8.90015 17.3631 10.1801 17.9402 11.534 17.996L11.75 18H12.25ZM22.017 19.465L22.783 19.713L22.798 19.717C22.8421 19.7325 22.882 19.7581 22.9146 19.7917C22.9472 19.8253 22.9715 19.8659 22.9858 19.9105C23 19.955 23.0037 20.0023 22.9967 20.0485C22.9896 20.0947 22.9719 20.1387 22.945 20.177C22.9086 20.228 22.8572 20.2665 22.798 20.287L22.033 20.535C21.8002 20.6122 21.5887 20.7426 21.4151 20.9158C21.2415 21.0891 21.1107 21.3004 21.033 21.533L20.785 22.298C20.7643 22.357 20.7258 22.4082 20.6747 22.4444C20.6236 22.4806 20.5626 22.5001 20.5 22.5001C20.4374 22.5001 20.3764 22.4806 20.3253 22.4444C20.2742 22.4082 20.2357 22.357 20.215 22.298L19.966 21.534C19.8892 21.3006 19.7588 21.0885 19.5854 20.9145C19.4119 20.7405 19.2001 20.6095 18.967 20.532L18.202 20.283C18.1579 20.2674 18.118 20.2418 18.0854 20.2083C18.0528 20.1747 18.0285 20.134 18.0142 20.0895C18 20.0449 17.9963 19.9977 18.0033 19.9515C18.0104 19.9052 18.0281 19.8612 18.055 19.823C18.0914 19.7719 18.1428 19.7335 18.202 19.713L18.967 19.465C19.1968 19.3857 19.4053 19.2544 19.576 19.0813C19.7467 18.9082 19.875 18.6979 19.951 18.467L20.2 17.702C20.2207 17.6429 20.2592 17.5917 20.3103 17.5555C20.3614 17.5193 20.4224 17.4999 20.485 17.4999C20.5476 17.4999 20.6086 17.5193 20.6597 17.5555C20.7107 17.5917 20.7493 17.6429 20.77 17.702L21.019 18.466C21.0961 18.6987 21.2265 18.9102 21.3998 19.0836C21.573 19.257 21.7844 19.3876 22.017 19.465Z" fill="#DBDBDB"/>
</svg>
