<svg width="186" height="6" viewBox="0 0 186 6" fill="none" xmlns="http://www.w3.org/2000/svg">
<path d="M185.165 3.00003L183 0.834969L180.835 3.00003L183 5.1651L185.165 3.00003ZM0.834917 3.00002L2.99997 5.16508L5.16504 3.00002L2.99997 0.834953L0.834917 3.00002ZM183 2.62503L180.5 2.62503L180.5 3.37503L183 3.37503L183 2.62503ZM175.5 2.62503L170.5 2.62503L170.5 3.37503L175.5 3.37503L175.5 2.62503ZM165.5 2.62503L160.5 2.62503L160.5 3.37503L165.5 3.37503L165.5 2.62503ZM155.5 2.62503L150.5 2.62503L150.5 3.37503L155.5 3.37503L155.5 2.62503ZM145.5 2.62503L140.5 2.62503L140.5 3.37503L145.5 3.37503L145.5 2.62503ZM135.5 2.62503L130.5 2.62503L130.5 3.37503L135.5 3.37503L135.5 2.62503ZM125.5 2.62503L120.5 2.62503L120.5 3.37503L125.5 3.37503L125.5 2.62503ZM115.5 2.62503L110.5 2.62503L110.5 3.37503L115.5 3.37503L115.5 2.62503ZM105.5 2.62503L100.5 2.62503L100.5 3.37503L105.5 3.37503L105.5 2.62503ZM95.5 2.62502L90.5 2.62502L90.5 3.37502L95.5 3.37502L95.5 2.62502ZM85.5 2.62502L80.5 2.62502L80.5 3.37502L85.5 3.37502L85.5 2.62502ZM75.5 2.62502L70.5 2.62502L70.5 3.37502L75.5 3.37502L75.5 2.62502ZM65.5 2.62502L60.5 2.62502L60.5 3.37502L65.5 3.37502L65.5 2.62502ZM55.5 2.62502L50.5 2.62502L50.5 3.37502L55.5 3.37502L55.5 2.62502ZM45.5 2.62502L40.5 2.62502L40.5 3.37502L45.5 3.37502L45.5 2.62502ZM35.5 2.62502L30.5 2.62502L30.5 3.37502L35.5 3.37502L35.5 2.62502ZM25.5 2.62502L20.5 2.62502L20.5 3.37502L25.5 3.37502L25.5 2.62502ZM15.5 2.62502L10.5 2.62502L10.5 3.37502L15.5 3.37502L15.5 2.62502ZM5.50002 2.62502L2.99997 2.62502L2.99997 3.37502L5.50002 3.37502L5.50002 2.62502Z" fill="url(#paint0_linear_5841_2391)"/>
<defs>
<linearGradient id="paint0_linear_5841_2391" x1="179" y1="1.50011" x2="-5.57505" y2="7.71945" gradientUnits="userSpaceOnUse">
<stop stop-color="#C7C7C7" stop-opacity="0.42"/>
<stop offset="1" stop-color="#C7C7C7" stop-opacity="0"/>
</linearGradient>
</defs>
</svg>
