<svg width="273" height="5" viewBox="0 0 273 5" fill="none" xmlns="http://www.w3.org/2000/svg">
<path d="M272.665 2.50005L270.5 0.334983L268.335 2.50005L270.5 4.66511L272.665 2.50005ZM0.834918 2.50002L2.99999 4.66509L5.16506 2.50002L2.99999 0.33496L0.834918 2.50002ZM270.5 2.12505L268.023 2.12505L268.023 2.87505L270.5 2.87505L270.5 2.12505ZM263.069 2.12505L258.116 2.12505L258.116 2.87505L263.069 2.87505L263.069 2.12505ZM253.162 2.12504L248.208 2.12504L248.208 2.87504L253.162 2.87504L253.162 2.12504ZM243.255 2.12504L238.301 2.12504L238.301 2.87504L243.255 2.87504L243.255 2.12504ZM233.347 2.12504L228.394 2.12504L228.394 2.87504L233.347 2.87504L233.347 2.12504ZM223.44 2.12504L218.486 2.12504L218.486 2.87504L223.44 2.87504L223.44 2.12504ZM213.532 2.12504L208.579 2.12504L208.579 2.87504L213.532 2.87504L213.532 2.12504ZM203.625 2.12504L198.671 2.12504L198.671 2.87504L203.625 2.87504L203.625 2.12504ZM193.718 2.12504L188.764 2.12504L188.764 2.87504L193.718 2.87504L193.718 2.12504ZM183.81 2.12504L178.856 2.12504L178.856 2.87504L183.81 2.87504L183.81 2.12504ZM173.903 2.12504L168.949 2.12504L168.949 2.87504L173.903 2.87504L173.903 2.12504ZM163.995 2.12504L159.042 2.12504L159.042 2.87504L163.995 2.87504L163.995 2.12504ZM154.088 2.12504L149.134 2.12504L149.134 2.87504L154.088 2.87504L154.088 2.12504ZM144.181 2.12504L139.227 2.12503L139.227 2.87503L144.181 2.87504L144.181 2.12504ZM134.273 2.12503L129.319 2.12503L129.319 2.87503L134.273 2.87503L134.273 2.12503ZM124.366 2.12503L119.412 2.12503L119.412 2.87503L124.366 2.87503L124.366 2.12503ZM114.458 2.12503L109.505 2.12503L109.505 2.87503L114.458 2.87503L114.458 2.12503ZM104.551 2.12503L99.5972 2.12503L99.5972 2.87503L104.551 2.87503L104.551 2.12503ZM94.6435 2.12503L89.6898 2.12503L89.6898 2.87503L94.6435 2.87503L94.6435 2.12503ZM84.7361 2.12503L79.7824 2.12503L79.7824 2.87503L84.7361 2.87503L84.7361 2.12503ZM74.8287 2.12503L69.875 2.12503L69.875 2.87503L74.8287 2.87503L74.8287 2.12503ZM64.9213 2.12503L59.9676 2.12503L59.9676 2.87503L64.9213 2.87503L64.9213 2.12503ZM55.0139 2.12503L50.0602 2.12503L50.0602 2.87503L55.0139 2.87503L55.0139 2.12503ZM45.1065 2.12503L40.1528 2.12503L40.1528 2.87503L45.1065 2.87503L45.1065 2.12503ZM35.1991 2.12503L30.2454 2.12503L30.2454 2.87503L35.1991 2.87503L35.1991 2.12503ZM25.2917 2.12502L20.338 2.12502L20.338 2.87502L25.2917 2.87502L25.2917 2.12502ZM15.3842 2.12502L10.4305 2.12502L10.4305 2.87502L15.3842 2.87502L15.3842 2.12502ZM5.47682 2.12502L2.99999 2.12502L2.99999 2.87502L5.47682 2.87502L5.47682 2.12502Z" fill="url(#paint0_linear_5841_2394)"/>
<defs>
<linearGradient id="paint0_linear_5841_2394" x1="264.556" y1="1.00013" x2="-9.36803" y2="14.7169" gradientUnits="userSpaceOnUse">
<stop stop-color="#C7C7C7" stop-opacity="0.42"/>
<stop offset="1" stop-color="#C7C7C7" stop-opacity="0"/>
</linearGradient>
</defs>
</svg>
