<svg width="24" height="24" viewBox="0 0 24 24" fill="none" xmlns="http://www.w3.org/2000/svg">
<path d="M13.854 15.146C14.1657 15.4591 14.4003 15.8405 14.539 16.26L14.987 17.637C15.0245 17.7431 15.0939 17.8351 15.1858 17.9001C15.2777 17.9651 15.3874 18 15.5 18C15.6126 18 15.7223 17.9651 15.8142 17.9001C15.9061 17.8351 15.9755 17.7431 16.013 17.637L16.461 16.26C16.6004 15.8415 16.8355 15.4612 17.1477 15.1494C17.4598 14.8376 17.8403 14.603 18.259 14.464L19.637 14.016C19.7423 13.9779 19.8334 13.9083 19.8977 13.8165C19.9621 13.7248 19.9966 13.6155 19.9966 13.5035C19.9966 13.3915 19.9621 13.2822 19.8977 13.1905C19.8334 13.0988 19.7423 13.0291 19.637 12.991L19.609 12.984L18.231 12.536C17.8124 12.3968 17.432 12.1621 17.1199 11.8503C16.8078 11.5386 16.5726 11.1584 16.433 10.74L15.986 9.36301C15.9488 9.25652 15.8793 9.16425 15.7873 9.09896C15.6953 9.03367 15.5853 8.9986 15.4725 8.9986C15.3597 8.9986 15.2497 9.03367 15.1577 9.09896C15.0657 9.16425 14.9962 9.25652 14.959 9.36301L14.511 10.74C14.3745 11.1556 14.1437 11.5341 13.8367 11.8456C13.5296 12.1572 13.1546 12.3935 12.741 12.536L11.363 12.984C11.2577 13.0221 11.1666 13.0918 11.1023 13.1835C11.0379 13.2752 11.0034 13.3845 11.0034 13.4965C11.0034 13.6085 11.0379 13.7178 11.1023 13.8095C11.1666 13.9013 11.2577 13.9709 11.363 14.009L12.741 14.457C13.161 14.597 13.541 14.833 13.854 15.146ZM16 6.00001V8.09301C15.8083 8.02323 15.6046 7.99215 15.4008 8.00155C15.197 8.01095 14.9971 8.06065 14.8126 8.14778C14.6281 8.23491 14.4627 8.35773 14.326 8.50916C14.1893 8.66059 14.0839 8.83762 14.016 9.03001L14.012 9.04201L13.561 10.429C13.473 10.6969 13.3245 10.9409 13.127 11.142C12.9294 11.3432 12.6882 11.4961 12.422 11.589L11.042 12.036L11.031 12.041C10.7298 12.1473 10.4689 12.3444 10.2844 12.6052C10.0999 12.866 10.0008 13.1776 10.0008 13.497C10.0008 13.8165 10.0999 14.128 10.2844 14.3888C10.4689 14.6496 10.7298 14.8467 11.031 14.953L11.042 14.957L12.428 15.407C12.692 15.495 12.933 15.643 13.132 15.837C12.5353 16.0131 11.9059 16.0475 11.2936 15.9377C10.6813 15.8278 10.103 15.5766 9.6048 15.2041C9.10657 14.8316 8.7021 14.348 8.42352 13.7918C8.14493 13.2356 7.99992 12.6221 8 12V6.00101C8 4.94014 8.42143 3.92273 9.17157 3.17258C9.92172 2.42243 10.9391 2.00101 12 2.00101C13.0609 2.00101 14.0783 2.42243 14.8284 3.17258C15.5786 3.92273 16 4.93914 16 6.00001ZM12.25 17.5C12.7803 17.5005 13.3076 17.4205 13.814 17.263L14.04 17.958L14.044 17.97C14.133 18.222 14.286 18.446 14.486 18.62C13.9262 18.8168 13.3428 18.9385 12.751 18.982L12.75 21.25C12.7499 21.44 12.6778 21.6229 12.548 21.7618C12.4183 21.9007 12.2407 21.9851 12.0511 21.998C11.8615 22.011 11.6741 21.9515 11.5267 21.8316C11.3793 21.7117 11.2829 21.5403 11.257 21.352L11.25 21.25V18.982C9.59152 18.8588 8.03687 18.1278 6.88421 16.929C5.73155 15.7302 5.06201 14.148 5.004 12.486L5 12.25V11.75C5.00006 11.56 5.07224 11.3771 5.20197 11.2382C5.3317 11.0994 5.5093 11.0149 5.69888 11.002C5.88846 10.989 6.07589 11.0485 6.2233 11.1684C6.37071 11.2884 6.4671 11.4598 6.493 11.648L6.5 11.75V12.25C6.49989 13.6051 7.02372 14.9077 7.96194 15.8854C8.90015 16.8632 10.1801 17.4403 11.534 17.496L11.75 17.5H12.25ZM22.017 18.965L22.783 19.213L22.798 19.217C22.8421 19.2326 22.882 19.2582 22.9146 19.2917C22.9472 19.3253 22.9715 19.3659 22.9858 19.4105C23 19.455 23.0037 19.5023 22.9967 19.5485C22.9896 19.5948 22.9719 19.6387 22.945 19.677C22.9086 19.728 22.8572 19.7665 22.798 19.787L22.033 20.035C21.8002 20.1122 21.5887 20.2426 21.4151 20.4158C21.2415 20.5891 21.1107 20.8004 21.033 21.033L20.785 21.798C20.7643 21.8571 20.7258 21.9083 20.6747 21.9445C20.6236 21.9807 20.5626 22.0001 20.5 22.0001C20.4374 22.0001 20.3764 21.9807 20.3253 21.9445C20.2742 21.9083 20.2357 21.8571 20.215 21.798L19.966 21.034C19.8892 20.8006 19.7588 20.5885 19.5854 20.4145C19.4119 20.2405 19.2001 20.1095 18.967 20.032L18.202 19.783C18.1579 19.7674 18.118 19.7419 18.0854 19.7083C18.0528 19.6747 18.0285 19.6341 18.0142 19.5895C18 19.545 17.9963 19.4977 18.0033 19.4515C18.0104 19.4052 18.0281 19.3613 18.055 19.323C18.0914 19.272 18.1428 19.2335 18.202 19.213L18.967 18.965C19.1968 18.8858 19.4053 18.7545 19.576 18.5813C19.7467 18.4082 19.875 18.198 19.951 17.967L20.2 17.202C20.2207 17.1429 20.2592 17.0918 20.3103 17.0556C20.3614 17.0194 20.4224 16.9999 20.485 16.9999C20.5476 16.9999 20.6086 17.0194 20.6597 17.0556C20.7107 17.0918 20.7493 17.1429 20.77 17.202L21.019 17.966C21.0961 18.1987 21.2265 18.4102 21.3998 18.5836C21.573 18.7571 21.7844 18.8876 22.017 18.965Z" fill="url(#paint0_linear_5905_2530)"/>
<defs>
<linearGradient id="paint0_linear_5905_2530" x1="14.0001" y1="2.00101" x2="14.0001" y2="22.0001" gradientUnits="userSpaceOnUse">
<stop stop-color="#1EACA4"/>
<stop offset="1" stop-color="#2E7773"/>
</linearGradient>
</defs>
</svg>
