<svg width="296" height="36" viewBox="0 0 296 36" fill="none" xmlns="http://www.w3.org/2000/svg">
<path d="M110.835 3L113 0.834937L115.165 3L113 5.16506L110.835 3ZM295.165 3.00002L293 5.16508L290.835 3.00002L293 0.834953L295.165 3.00002ZM113 2.625L115.5 2.625L115.5 3.375L113 3.375L113 2.625ZM120.5 2.625L125.5 2.625L125.5 3.375L120.5 3.375L120.5 2.625ZM130.5 2.625L135.5 2.625L135.5 3.375L130.5 3.375L130.5 2.625ZM140.5 2.625L145.5 2.625L145.5 3.375L140.5 3.375L140.5 2.625ZM150.5 2.625L155.5 2.625L155.5 3.375L150.5 3.375L150.5 2.625ZM160.5 2.625L165.5 2.625L165.5 3.375L160.5 3.375L160.5 2.625ZM170.5 2.62501L175.5 2.62501L175.5 3.37501L170.5 3.375L170.5 2.62501ZM180.5 2.62501L185.5 2.62501L185.5 3.37501L180.5 3.37501L180.5 2.62501ZM190.5 2.62501L195.5 2.62501L195.5 3.37501L190.5 3.37501L190.5 2.62501ZM200.5 2.62501L205.5 2.62501L205.5 3.37501L200.5 3.37501L200.5 2.62501ZM210.5 2.62501L215.5 2.62501L215.5 3.37501L210.5 3.37501L210.5 2.62501ZM220.5 2.62501L225.5 2.62501L225.5 3.37501L220.5 3.37501L220.5 2.62501ZM230.5 2.62501L235.5 2.62501L235.5 3.37501L230.5 3.37501L230.5 2.62501ZM240.5 2.62501L245.5 2.62501L245.5 3.37501L240.5 3.37501L240.5 2.62501ZM250.5 2.62501L255.5 2.62501L255.5 3.37501L250.5 3.37501L250.5 2.62501ZM260.5 2.62501L265.5 2.62501L265.5 3.37501L260.5 3.37501L260.5 2.62501ZM270.5 2.62501L275.5 2.62501L275.5 3.37501L270.5 3.37501L270.5 2.62501ZM280.5 2.62501L285.5 2.62502L285.5 3.37502L280.5 3.37501L280.5 2.62501ZM290.5 2.62502L293 2.62502L293 3.37502L290.5 3.37502L290.5 2.62502Z" fill="url(#paint0_linear_5841_2384)"/>
<path d="M78.3349 10.5L80.5 8.33494L82.6651 10.5L80.5 12.6651L78.3349 10.5ZM295.165 10.5L293 12.6651L290.835 10.5L293 8.33496L295.165 10.5ZM80.5 10.125L83.0298 10.125L83.0298 10.875L80.5 10.875L80.5 10.125ZM88.0893 10.125L93.1488 10.125L93.1488 10.875L88.0893 10.875L88.0893 10.125ZM98.2083 10.125L103.268 10.125L103.268 10.875L98.2083 10.875L98.2083 10.125ZM108.327 10.125L113.387 10.125L113.387 10.875L108.327 10.875L108.327 10.125ZM118.446 10.125L123.506 10.125L123.506 10.875L118.446 10.875L118.446 10.125ZM128.565 10.125L133.625 10.125L133.625 10.875L128.565 10.875L128.565 10.125ZM138.685 10.125L143.744 10.125L143.744 10.875L138.685 10.875L138.685 10.125ZM148.804 10.125L153.863 10.125L153.863 10.875L148.804 10.875L148.804 10.125ZM158.923 10.125L163.982 10.125L163.982 10.875L158.923 10.875L158.923 10.125ZM169.042 10.125L174.101 10.125L174.101 10.875L169.042 10.875L169.042 10.125ZM179.161 10.125L184.22 10.125L184.22 10.875L179.161 10.875L179.161 10.125ZM189.28 10.125L194.339 10.125L194.339 10.875L189.28 10.875L189.28 10.125ZM199.399 10.125L204.458 10.125L204.458 10.875L199.399 10.875L199.399 10.125ZM209.518 10.125L214.577 10.125L214.577 10.875L209.518 10.875L209.518 10.125ZM219.637 10.125L224.696 10.125L224.696 10.875L219.637 10.875L219.637 10.125ZM229.756 10.125L234.815 10.125L234.815 10.875L229.756 10.875L229.756 10.125ZM239.875 10.125L244.935 10.125L244.935 10.875L239.875 10.875L239.875 10.125ZM249.994 10.125L255.054 10.125L255.054 10.875L249.994 10.875L249.994 10.125ZM260.113 10.125L265.173 10.125L265.173 10.875L260.113 10.875L260.113 10.125ZM270.232 10.125L275.292 10.125L275.292 10.875L270.232 10.875L270.232 10.125ZM280.351 10.125L285.411 10.125L285.411 10.875L280.351 10.875L280.351 10.125ZM290.47 10.125L293 10.125L293 10.875L290.47 10.875L290.47 10.125Z" fill="url(#paint1_linear_5841_2384)"/>
<path d="M48.3349 18L50.5 15.8349L52.6651 18L50.5 20.1651L48.3349 18ZM295.165 18L293 20.1651L290.835 18L293 15.835L295.165 18ZM50.5 17.625L53.026 17.625L53.026 18.375L50.5 18.375L50.5 17.625ZM58.0781 17.625L63.1302 17.625L63.1302 18.375L58.0781 18.375L58.0781 17.625ZM68.1823 17.625L73.2344 17.625L73.2344 18.375L68.1823 18.375L68.1823 17.625ZM78.2865 17.625L83.3385 17.625L83.3385 18.375L78.2865 18.375L78.2865 17.625ZM88.3906 17.625L93.4427 17.625L93.4427 18.375L88.3906 18.375L88.3906 17.625ZM98.4948 17.625L103.547 17.625L103.547 18.375L98.4948 18.375L98.4948 17.625ZM108.599 17.625L113.651 17.625L113.651 18.375L108.599 18.375L108.599 17.625ZM118.703 17.625L123.755 17.625L123.755 18.375L118.703 18.375L118.703 17.625ZM128.807 17.625L133.859 17.625L133.859 18.375L128.807 18.375L128.807 17.625ZM138.911 17.625L143.964 17.625L143.964 18.375L138.911 18.375L138.911 17.625ZM149.016 17.625L154.068 17.625L154.068 18.375L149.016 18.375L149.016 17.625ZM159.12 17.625L164.172 17.625L164.172 18.375L159.12 18.375L159.12 17.625ZM169.224 17.625L174.276 17.625L174.276 18.375L169.224 18.375L169.224 17.625ZM179.328 17.625L184.38 17.625L184.38 18.375L179.328 18.375L179.328 17.625ZM189.432 17.625L194.484 17.625L194.484 18.375L189.432 18.375L189.432 17.625ZM199.536 17.625L204.589 17.625L204.589 18.375L199.536 18.375L199.536 17.625ZM209.641 17.625L214.693 17.625L214.693 18.375L209.641 18.375L209.641 17.625ZM219.745 17.625L224.797 17.625L224.797 18.375L219.745 18.375L219.745 17.625ZM229.849 17.625L234.901 17.625L234.901 18.375L229.849 18.375L229.849 17.625ZM239.953 17.625L245.005 17.625L245.005 18.375L239.953 18.375L239.953 17.625ZM250.057 17.625L255.109 17.625L255.109 18.375L250.057 18.375L250.057 17.625ZM260.161 17.625L265.213 17.625L265.213 18.375L260.161 18.375L260.161 17.625ZM270.266 17.625L275.318 17.625L275.318 18.375L270.266 18.375L270.266 17.625ZM280.37 17.625L285.422 17.625L285.422 18.375L280.37 18.375L280.37 17.625ZM290.474 17.625L293 17.625L293 18.375L290.474 18.375L290.474 17.625Z" fill="url(#paint2_linear_5841_2384)"/>
<path d="M23.3349 25.5L25.5 23.3349L27.6651 25.5L25.5 27.6651L23.3349 25.5ZM295.165 25.5L293 27.6651L290.835 25.5L293 23.335L295.165 25.5ZM25.5 25.125L27.9769 25.125L27.9769 25.875L25.5 25.875L25.5 25.125ZM32.9306 25.125L37.8843 25.125L37.8843 25.875L32.9306 25.875L32.9306 25.125ZM42.838 25.125L47.7917 25.125L47.7917 25.875L42.838 25.875L42.838 25.125ZM52.7454 25.125L57.6991 25.125L57.6991 25.875L52.7454 25.875L52.7454 25.125ZM62.6528 25.125L67.6065 25.125L67.6065 25.875L62.6528 25.875L62.6528 25.125ZM72.5602 25.125L77.5139 25.125L77.5139 25.875L72.5602 25.875L72.5602 25.125ZM82.4676 25.125L87.4213 25.125L87.4213 25.875L82.4676 25.875L82.4676 25.125ZM92.375 25.125L97.3287 25.125L97.3287 25.875L92.375 25.875L92.375 25.125ZM102.282 25.125L107.236 25.125L107.236 25.875L102.282 25.875L102.282 25.125ZM112.19 25.125L117.144 25.125L117.144 25.875L112.19 25.875L112.19 25.125ZM122.097 25.125L127.051 25.125L127.051 25.875L122.097 25.875L122.097 25.125ZM132.005 25.125L136.958 25.125L136.958 25.875L132.005 25.875L132.005 25.125ZM141.912 25.125L146.866 25.125L146.866 25.875L141.912 25.875L141.912 25.125ZM151.819 25.125L156.773 25.125L156.773 25.875L151.819 25.875L151.819 25.125ZM161.727 25.125L166.681 25.125L166.681 25.875L161.727 25.875L161.727 25.125ZM171.634 25.125L176.588 25.125L176.588 25.875L171.634 25.875L171.634 25.125ZM181.542 25.125L186.495 25.125L186.495 25.875L181.542 25.875L181.542 25.125ZM191.449 25.125L196.403 25.125L196.403 25.875L191.449 25.875L191.449 25.125ZM201.356 25.125L206.31 25.125L206.31 25.875L201.356 25.875L201.356 25.125ZM211.264 25.125L216.218 25.125L216.218 25.875L211.264 25.875L211.264 25.125ZM221.171 25.125L226.125 25.125L226.125 25.875L221.171 25.875L221.171 25.125ZM231.079 25.125L236.032 25.125L236.032 25.875L231.079 25.875L231.079 25.125ZM240.986 25.125L245.94 25.125L245.94 25.875L240.986 25.875L240.986 25.125ZM250.894 25.125L255.847 25.125L255.847 25.875L250.894 25.875L250.894 25.125ZM260.801 25.125L265.755 25.125L265.755 25.875L260.801 25.875L260.801 25.125ZM270.708 25.125L275.662 25.125L275.662 25.875L270.708 25.875L270.708 25.125ZM280.616 25.125L285.569 25.125L285.569 25.875L280.616 25.875L280.616 25.125ZM290.523 25.125L293 25.125L293 25.875L290.523 25.875L290.523 25.125Z" fill="url(#paint3_linear_5841_2384)"/>
<path d="M0.834937 33L3 30.8349L5.16506 33L3 35.1651L0.834937 33ZM295.165 33L293 35.1651L290.835 33L293 30.8349L295.165 33ZM3 32.625H5.5V33.375H3L3 32.625ZM10.5 32.625H15.5V33.375H10.5V32.625ZM20.5 32.625H25.5V33.375H20.5V32.625ZM30.5 32.625H35.5V33.375H30.5V32.625ZM40.5 32.625H45.5V33.375H40.5V32.625ZM50.5 32.625H55.5V33.375H50.5V32.625ZM60.5 32.625L65.5 32.625V33.375L60.5 33.375V32.625ZM70.5 32.625L75.5 32.625V33.375L70.5 33.375V32.625ZM80.5 32.625L85.5 32.625V33.375L80.5 33.375V32.625ZM90.5 32.625L95.5 32.625V33.375L90.5 33.375V32.625ZM100.5 32.625L105.5 32.625V33.375L100.5 33.375V32.625ZM110.5 32.625L115.5 32.625V33.375L110.5 33.375V32.625ZM120.5 32.625L125.5 32.625V33.375L120.5 33.375V32.625ZM130.5 32.625L135.5 32.625V33.375L130.5 33.375V32.625ZM140.5 32.625L145.5 32.625V33.375L140.5 33.375V32.625ZM150.5 32.625L155.5 32.625V33.375L150.5 33.375V32.625ZM160.5 32.625L165.5 32.625V33.375L160.5 33.375V32.625ZM170.5 32.625L175.5 32.625V33.375L170.5 33.375V32.625ZM180.5 32.625L185.5 32.625V33.375L180.5 33.375V32.625ZM190.5 32.625L195.5 32.625V33.375L190.5 33.375V32.625ZM200.5 32.625L205.5 32.625V33.375L200.5 33.375V32.625ZM210.5 32.625L215.5 32.625V33.375L210.5 33.375V32.625ZM220.5 32.625L225.5 32.625V33.375L220.5 33.375V32.625ZM230.5 32.625L235.5 32.625V33.375L230.5 33.375V32.625ZM240.5 32.625L245.5 32.625V33.375L240.5 33.375V32.625ZM250.5 32.625L255.5 32.625V33.375L250.5 33.375V32.625ZM260.5 32.625L265.5 32.625V33.375L260.5 33.375V32.625ZM270.5 32.625L275.5 32.625V33.375L270.5 33.375V32.625ZM280.5 32.625L285.5 32.625V33.375L280.5 33.375V32.625ZM290.5 32.625H293V33.375H290.5V32.625Z" fill="url(#paint4_linear_5841_2384)"/>
<defs>
<linearGradient id="paint0_linear_5841_2384" x1="117" y1="1.50008" x2="301.575" y2="7.71945" gradientUnits="userSpaceOnUse">
<stop stop-color="#C7C7C7" stop-opacity="0.42"/>
<stop offset="1" stop-color="#C7C7C7" stop-opacity="0"/>
</linearGradient>
<linearGradient id="paint1_linear_5841_2384" x1="85.2222" y1="9.00008" x2="303.026" y2="17.6642" gradientUnits="userSpaceOnUse">
<stop stop-color="#C7C7C7" stop-opacity="0.42"/>
<stop offset="1" stop-color="#C7C7C7" stop-opacity="0"/>
</linearGradient>
<linearGradient id="paint2_linear_5841_2384" x1="55.8889" y1="16.5001" x2="304.323" y2="27.7779" gradientUnits="userSpaceOnUse">
<stop stop-color="#C7C7C7" stop-opacity="0.42"/>
<stop offset="1" stop-color="#C7C7C7" stop-opacity="0"/>
</linearGradient>
<linearGradient id="paint3_linear_5841_2384" x1="31.4444" y1="24.0001" x2="305.368" y2="37.7169" gradientUnits="userSpaceOnUse">
<stop stop-color="#C7C7C7" stop-opacity="0.42"/>
<stop offset="1" stop-color="#C7C7C7" stop-opacity="0"/>
</linearGradient>
<linearGradient id="paint4_linear_5841_2384" x1="9.44444" y1="31.5001" x2="306.278" y2="47.6144" gradientUnits="userSpaceOnUse">
<stop stop-color="#C7C7C7" stop-opacity="0.42"/>
<stop offset="1" stop-color="#C7C7C7" stop-opacity="0"/>
</linearGradient>
</defs>
</svg>
