<svg width="24" height="24" viewBox="0 0 24 24" fill="none" xmlns="http://www.w3.org/2000/svg">
<path d="M1.47456 13.0692C1.34583 13.159 1.25505 13.2935 1.2198 13.4465C1.18454 13.5994 1.20734 13.76 1.28376 13.8972L2.83896 16.59C2.99856 16.866 3.36456 16.98 3.65136 16.8396L8.40096 14.5392V22.8H10.801V13.3752L15.6862 11.0076L12.5422 5.55958L1.47456 13.0692ZM22.1494 3.64438C21.5027 2.52604 20.4384 1.71025 19.1904 1.37632C17.9424 1.04239 16.613 1.21765 15.4942 1.86358C14.4022 2.49358 13.6846 3.49438 13.333 4.61038L16.9042 10.7976C18.0454 11.052 19.2718 10.9296 20.3662 10.2996C21.4852 9.6535 22.3017 8.58937 22.6361 7.34128C22.9705 6.0932 22.7954 4.76338 22.1494 3.64438Z" fill="#FAFAFA"/>
</svg>
