<svg width="248" height="6" viewBox="0 0 248 6" fill="none" xmlns="http://www.w3.org/2000/svg">
<path d="M247.665 3.00004L245.5 0.834979L243.335 3.00004L245.5 5.16511L247.665 3.00004ZM0.834944 3.00002L3 5.16508L5.16507 3.00002L3 0.834958L0.834944 3.00002ZM245.5 2.62504L242.974 2.62504L242.974 3.37504L245.5 3.37504L245.5 2.62504ZM237.922 2.62504L232.87 2.62504L232.87 3.37504L237.922 3.37504L237.922 2.62504ZM227.818 2.62504L222.766 2.62504L222.766 3.37504L227.818 3.37504L227.818 2.62504ZM217.714 2.62504L212.661 2.62504L212.661 3.37504L217.714 3.37504L217.714 2.62504ZM207.609 2.62504L202.557 2.62504L202.557 3.37504L207.609 3.37504L207.609 2.62504ZM197.505 2.62504L192.453 2.62504L192.453 3.37504L197.505 3.37504L197.505 2.62504ZM187.401 2.62504L182.349 2.62504L182.349 3.37504L187.401 3.37504L187.401 2.62504ZM177.297 2.62504L172.245 2.62504L172.245 3.37504L177.297 3.37504L177.297 2.62504ZM167.193 2.62504L162.141 2.62503L162.141 3.37503L167.193 3.37504L167.193 2.62504ZM157.089 2.62503L152.036 2.62503L152.036 3.37503L157.089 3.37503L157.089 2.62503ZM146.984 2.62503L141.932 2.62503L141.932 3.37503L146.984 3.37503L146.984 2.62503ZM136.88 2.62503L131.828 2.62503L131.828 3.37503L136.88 3.37503L136.88 2.62503ZM126.776 2.62503L121.724 2.62503L121.724 3.37503L126.776 3.37503L126.776 2.62503ZM116.672 2.62503L111.62 2.62503L111.62 3.37503L116.672 3.37503L116.672 2.62503ZM106.568 2.62503L101.516 2.62503L101.516 3.37503L106.568 3.37503L106.568 2.62503ZM96.4635 2.62503L91.4115 2.62503L91.4115 3.37503L96.4635 3.37503L96.4635 2.62503ZM86.3594 2.62503L81.3073 2.62503L81.3073 3.37503L86.3594 3.37503L86.3594 2.62503ZM76.2552 2.62503L71.2032 2.62503L71.2032 3.37503L76.2552 3.37503L76.2552 2.62503ZM66.1511 2.62503L61.099 2.62503L61.099 3.37503L66.1511 3.37503L66.1511 2.62503ZM56.0469 2.62503L50.9949 2.62503L50.9949 3.37502L56.0469 3.37503L56.0469 2.62503ZM45.9428 2.62502L40.8907 2.62502L40.8907 3.37502L45.9428 3.37502L45.9428 2.62502ZM35.8386 2.62502L30.7865 2.62502L30.7865 3.37502L35.8386 3.37502L35.8386 2.62502ZM25.7345 2.62502L20.6824 2.62502L20.6824 3.37502L25.7345 3.37502L25.7345 2.62502ZM15.6303 2.62502L10.5782 2.62502L10.5782 3.37502L15.6303 3.37502L15.6303 2.62502ZM5.52615 2.62502L3 2.62502L3 3.37502L5.52615 3.37502L5.52615 2.62502Z" fill="url(#paint0_linear_5841_2393)"/>
<defs>
<linearGradient id="paint0_linear_5841_2393" x1="240.111" y1="1.50012" x2="-8.32285" y2="12.7779" gradientUnits="userSpaceOnUse">
<stop stop-color="#C7C7C7" stop-opacity="0.42"/>
<stop offset="1" stop-color="#C7C7C7" stop-opacity="0"/>
</linearGradient>
</defs>
</svg>
