<svg width="218" height="5" viewBox="0 0 218 5" fill="none" xmlns="http://www.w3.org/2000/svg">
<path d="M217.665 2.50004L215.5 0.334974L213.335 2.50004L215.5 4.6651L217.665 2.50004ZM0.834938 2.50002L2.99999 4.66508L5.16506 2.50002L2.99999 0.334955L0.834938 2.50002ZM215.5 2.12504L212.97 2.12504L212.97 2.87504L215.5 2.87504L215.5 2.12504ZM207.911 2.12504L202.851 2.12504L202.851 2.87504L207.911 2.87504L207.911 2.12504ZM197.792 2.12504L192.732 2.12504L192.732 2.87504L197.792 2.87504L197.792 2.12504ZM187.673 2.12503L182.613 2.12503L182.613 2.87503L187.673 2.87503L187.673 2.12503ZM177.554 2.12503L172.494 2.12503L172.494 2.87503L177.554 2.87503L177.554 2.12503ZM167.435 2.12503L162.375 2.12503L162.375 2.87503L167.435 2.87503L167.435 2.12503ZM157.315 2.12503L152.256 2.12503L152.256 2.87503L157.315 2.87503L157.315 2.12503ZM147.196 2.12503L142.137 2.12503L142.137 2.87503L147.196 2.87503L147.196 2.12503ZM137.077 2.12503L132.018 2.12503L132.018 2.87503L137.077 2.87503L137.077 2.12503ZM126.958 2.12503L121.899 2.12503L121.899 2.87503L126.958 2.87503L126.958 2.12503ZM116.839 2.12503L111.78 2.12503L111.78 2.87503L116.839 2.87503L116.839 2.12503ZM106.72 2.12503L101.661 2.12503L101.661 2.87503L106.72 2.87503L106.72 2.12503ZM96.6012 2.12503L91.5417 2.12503L91.5417 2.87503L96.6012 2.87503L96.6012 2.12503ZM86.4821 2.12503L81.4226 2.12503L81.4226 2.87503L86.4821 2.87503L86.4821 2.12503ZM76.3631 2.12503L71.3036 2.12502L71.3036 2.87502L76.3631 2.87502L76.3631 2.12503ZM66.244 2.12502L61.1845 2.12502L61.1845 2.87502L66.244 2.87502L66.244 2.12502ZM56.125 2.12502L51.0655 2.12502L51.0655 2.87502L56.125 2.87502L56.125 2.12502ZM46.006 2.12502L40.9464 2.12502L40.9464 2.87502L46.006 2.87502L46.006 2.12502ZM35.8869 2.12502L30.8274 2.12502L30.8274 2.87502L35.8869 2.87502L35.8869 2.12502ZM25.7679 2.12502L20.7083 2.12502L20.7083 2.87502L25.7679 2.87502L25.7679 2.12502ZM15.6488 2.12502L10.5893 2.12502L10.5893 2.87502L15.6488 2.87502L15.6488 2.12502ZM5.52976 2.12502L2.99999 2.12502L2.99999 2.87502L5.52976 2.87502L5.52976 2.12502Z" fill="url(#paint0_linear_5841_2392)"/>
<defs>
<linearGradient id="paint0_linear_5841_2392" x1="210.778" y1="1.00012" x2="-7.02606" y2="9.66421" gradientUnits="userSpaceOnUse">
<stop stop-color="#C7C7C7" stop-opacity="0.42"/>
<stop offset="1" stop-color="#C7C7C7" stop-opacity="0"/>
</linearGradient>
</defs>
</svg>
