<svg width="296" height="6" viewBox="0 0 296 6" fill="none" xmlns="http://www.w3.org/2000/svg">
<path d="M295.165 3.00005L293 0.834987L290.835 3.00005L293 5.16511L295.165 3.00005ZM0.834922 3L2.99999 5.16506L5.16506 3L2.99999 0.834937L0.834922 3ZM293 2.62505L290.5 2.62505L290.5 3.37505L293 3.37505L293 2.62505ZM285.5 2.62505L280.5 2.62505L280.5 3.37505L285.5 3.37505L285.5 2.62505ZM275.5 2.62505L270.5 2.62505L270.5 3.37505L275.5 3.37505L275.5 2.62505ZM265.5 2.62505L260.5 2.62504L260.5 3.37504L265.5 3.37505L265.5 2.62505ZM255.5 2.62504L250.5 2.62504L250.5 3.37504L255.5 3.37504L255.5 2.62504ZM245.5 2.62504L240.5 2.62504L240.5 3.37504L245.5 3.37504L245.5 2.62504ZM235.5 2.62504L230.5 2.62504L230.5 3.37504L235.5 3.37504L235.5 2.62504ZM225.5 2.62504L220.5 2.62504L220.5 3.37504L225.5 3.37504L225.5 2.62504ZM215.5 2.62504L210.5 2.62504L210.5 3.37504L215.5 3.37504L215.5 2.62504ZM205.5 2.62504L200.5 2.62503L200.5 3.37503L205.5 3.37504L205.5 2.62504ZM195.5 2.62503L190.5 2.62503L190.5 3.37503L195.5 3.37503L195.5 2.62503ZM185.5 2.62503L180.5 2.62503L180.5 3.37503L185.5 3.37503L185.5 2.62503ZM175.5 2.62503L170.5 2.62503L170.5 3.37503L175.5 3.37503L175.5 2.62503ZM165.5 2.62503L160.5 2.62503L160.5 3.37503L165.5 3.37503L165.5 2.62503ZM155.5 2.62503L150.5 2.62503L150.5 3.37503L155.5 3.37503L155.5 2.62503ZM145.5 2.62502L140.5 2.62502L140.5 3.37502L145.5 3.37502L145.5 2.62502ZM135.5 2.62502L130.5 2.62502L130.5 3.37502L135.5 3.37502L135.5 2.62502ZM125.5 2.62502L120.5 2.62502L120.5 3.37502L125.5 3.37502L125.5 2.62502ZM115.5 2.62502L110.5 2.62502L110.5 3.37502L115.5 3.37502L115.5 2.62502ZM105.5 2.62502L100.5 2.62502L100.5 3.37502L105.5 3.37502L105.5 2.62502ZM95.5 2.62502L90.5 2.62502L90.5 3.37502L95.5 3.37502L95.5 2.62502ZM85.5 2.62501L80.5 2.62501L80.5 3.37501L85.5 3.37501L85.5 2.62501ZM75.5 2.62501L70.5 2.62501L70.5 3.37501L75.5 3.37501L75.5 2.62501ZM65.5 2.62501L60.5 2.62501L60.5 3.37501L65.5 3.37501L65.5 2.62501ZM55.5 2.62501L50.5 2.62501L50.5 3.37501L55.5 3.37501L55.5 2.62501ZM45.5 2.62501L40.5 2.62501L40.5 3.37501L45.5 3.37501L45.5 2.62501ZM35.5 2.62501L30.5 2.625L30.5 3.375L35.5 3.37501L35.5 2.62501ZM25.5 2.625L20.5 2.625L20.5 3.375L25.5 3.375L25.5 2.625ZM15.5 2.625L10.5 2.625L10.5 3.375L15.5 3.375L15.5 2.625ZM5.50002 2.625L2.99999 2.625L2.99999 3.375L5.50002 3.375L5.50002 2.625Z" fill="url(#paint0_linear_5841_2395)"/>
<defs>
<linearGradient id="paint0_linear_5841_2395" x1="286.556" y1="1.50013" x2="-10.2782" y2="17.6144" gradientUnits="userSpaceOnUse">
<stop stop-color="#C7C7C7" stop-opacity="0.42"/>
<stop offset="1" stop-color="#C7C7C7" stop-opacity="0"/>
</linearGradient>
</defs>
</svg>
