<svg width="296" height="36" viewBox="0 0 296 36" fill="none" xmlns="http://www.w3.org/2000/svg">
<path d="M185.165 3.00003L183 0.834969L180.835 3.00003L183 5.1651L185.165 3.00003ZM0.834917 3.00002L2.99997 5.16508L5.16504 3.00002L2.99997 0.834953L0.834917 3.00002ZM183 2.62503L180.5 2.62503L180.5 3.37503L183 3.37503L183 2.62503ZM175.5 2.62503L170.5 2.62503L170.5 3.37503L175.5 3.37503L175.5 2.62503ZM165.5 2.62503L160.5 2.62503L160.5 3.37503L165.5 3.37503L165.5 2.62503ZM155.5 2.62503L150.5 2.62503L150.5 3.37503L155.5 3.37503L155.5 2.62503ZM145.5 2.62503L140.5 2.62503L140.5 3.37503L145.5 3.37503L145.5 2.62503ZM135.5 2.62503L130.5 2.62503L130.5 3.37503L135.5 3.37503L135.5 2.62503ZM125.5 2.62503L120.5 2.62503L120.5 3.37503L125.5 3.37503L125.5 2.62503ZM115.5 2.62503L110.5 2.62503L110.5 3.37503L115.5 3.37503L115.5 2.62503ZM105.5 2.62503L100.5 2.62503L100.5 3.37503L105.5 3.37503L105.5 2.62503ZM95.5 2.62502L90.5 2.62502L90.5 3.37502L95.5 3.37502L95.5 2.62502ZM85.5 2.62502L80.5 2.62502L80.5 3.37502L85.5 3.37502L85.5 2.62502ZM75.5 2.62502L70.5 2.62502L70.5 3.37502L75.5 3.37502L75.5 2.62502ZM65.5 2.62502L60.5 2.62502L60.5 3.37502L65.5 3.37502L65.5 2.62502ZM55.5 2.62502L50.5 2.62502L50.5 3.37502L55.5 3.37502L55.5 2.62502ZM45.5 2.62502L40.5 2.62502L40.5 3.37502L45.5 3.37502L45.5 2.62502ZM35.5 2.62502L30.5 2.62502L30.5 3.37502L35.5 3.37502L35.5 2.62502ZM25.5 2.62502L20.5 2.62502L20.5 3.37502L25.5 3.37502L25.5 2.62502ZM15.5 2.62502L10.5 2.62502L10.5 3.37502L15.5 3.37502L15.5 2.62502ZM5.50002 2.62502L2.99997 2.62502L2.99997 3.37502L5.50002 3.37502L5.50002 2.62502Z" fill="url(#paint0_linear_5841_2390)"/>
<path d="M217.665 10.5L215.5 8.33497L213.335 10.5L215.5 12.6651L217.665 10.5ZM0.834938 10.5L2.99999 12.6651L5.16506 10.5L2.99999 8.33496L0.834938 10.5ZM215.5 10.125L212.97 10.125L212.97 10.875L215.5 10.875L215.5 10.125ZM207.911 10.125L202.851 10.125L202.851 10.875L207.911 10.875L207.911 10.125ZM197.792 10.125L192.732 10.125L192.732 10.875L197.792 10.875L197.792 10.125ZM187.673 10.125L182.613 10.125L182.613 10.875L187.673 10.875L187.673 10.125ZM177.554 10.125L172.494 10.125L172.494 10.875L177.554 10.875L177.554 10.125ZM167.435 10.125L162.375 10.125L162.375 10.875L167.435 10.875L167.435 10.125ZM157.315 10.125L152.256 10.125L152.256 10.875L157.315 10.875L157.315 10.125ZM147.196 10.125L142.137 10.125L142.137 10.875L147.196 10.875L147.196 10.125ZM137.077 10.125L132.018 10.125L132.018 10.875L137.077 10.875L137.077 10.125ZM126.958 10.125L121.899 10.125L121.899 10.875L126.958 10.875L126.958 10.125ZM116.839 10.125L111.78 10.125L111.78 10.875L116.839 10.875L116.839 10.125ZM106.72 10.125L101.661 10.125L101.661 10.875L106.72 10.875L106.72 10.125ZM96.6012 10.125L91.5417 10.125L91.5417 10.875L96.6012 10.875L96.6012 10.125ZM86.4821 10.125L81.4226 10.125L81.4226 10.875L86.4821 10.875L86.4821 10.125ZM76.3631 10.125L71.3036 10.125L71.3036 10.875L76.3631 10.875L76.3631 10.125ZM66.244 10.125L61.1845 10.125L61.1845 10.875L66.244 10.875L66.244 10.125ZM56.125 10.125L51.0655 10.125L51.0655 10.875L56.125 10.875L56.125 10.125ZM46.006 10.125L40.9464 10.125L40.9464 10.875L46.006 10.875L46.006 10.125ZM35.8869 10.125L30.8274 10.125L30.8274 10.875L35.8869 10.875L35.8869 10.125ZM25.7679 10.125L20.7083 10.125L20.7083 10.875L25.7679 10.875L25.7679 10.125ZM15.6488 10.125L10.5893 10.125L10.5893 10.875L15.6488 10.875L15.6488 10.125ZM5.52976 10.125L2.99999 10.125L2.99999 10.875L5.52976 10.875L5.52976 10.125Z" fill="url(#paint1_linear_5841_2390)"/>
<path d="M247.665 18L245.5 15.835L243.335 18L245.5 20.1651L247.665 18ZM0.834944 18L3 20.1651L5.16507 18L3 15.835L0.834944 18ZM245.5 17.625L242.974 17.625L242.974 18.375L245.5 18.375L245.5 17.625ZM237.922 17.625L232.87 17.625L232.87 18.375L237.922 18.375L237.922 17.625ZM227.818 17.625L222.766 17.625L222.766 18.375L227.818 18.375L227.818 17.625ZM217.714 17.625L212.661 17.625L212.661 18.375L217.714 18.375L217.714 17.625ZM207.609 17.625L202.557 17.625L202.557 18.375L207.609 18.375L207.609 17.625ZM197.505 17.625L192.453 17.625L192.453 18.375L197.505 18.375L197.505 17.625ZM187.401 17.625L182.349 17.625L182.349 18.375L187.401 18.375L187.401 17.625ZM177.297 17.625L172.245 17.625L172.245 18.375L177.297 18.375L177.297 17.625ZM167.193 17.625L162.141 17.625L162.141 18.375L167.193 18.375L167.193 17.625ZM157.089 17.625L152.036 17.625L152.036 18.375L157.089 18.375L157.089 17.625ZM146.984 17.625L141.932 17.625L141.932 18.375L146.984 18.375L146.984 17.625ZM136.88 17.625L131.828 17.625L131.828 18.375L136.88 18.375L136.88 17.625ZM126.776 17.625L121.724 17.625L121.724 18.375L126.776 18.375L126.776 17.625ZM116.672 17.625L111.62 17.625L111.62 18.375L116.672 18.375L116.672 17.625ZM106.568 17.625L101.516 17.625L101.516 18.375L106.568 18.375L106.568 17.625ZM96.4635 17.625L91.4115 17.625L91.4115 18.375L96.4635 18.375L96.4635 17.625ZM86.3594 17.625L81.3073 17.625L81.3073 18.375L86.3594 18.375L86.3594 17.625ZM76.2552 17.625L71.2032 17.625L71.2032 18.375L76.2552 18.375L76.2552 17.625ZM66.1511 17.625L61.099 17.625L61.099 18.375L66.1511 18.375L66.1511 17.625ZM56.0469 17.625L50.9949 17.625L50.9949 18.375L56.0469 18.375L56.0469 17.625ZM45.9428 17.625L40.8907 17.625L40.8907 18.375L45.9428 18.375L45.9428 17.625ZM35.8386 17.625L30.7865 17.625L30.7865 18.375L35.8386 18.375L35.8386 17.625ZM25.7345 17.625L20.6824 17.625L20.6824 18.375L25.7345 18.375L25.7345 17.625ZM15.6303 17.625L10.5782 17.625L10.5782 18.375L15.6303 18.375L15.6303 17.625ZM5.52615 17.625L3 17.625L3 18.375L5.52615 18.375L5.52615 17.625Z" fill="url(#paint2_linear_5841_2390)"/>
<path d="M272.665 25.5L270.5 23.335L268.335 25.5L270.5 27.6651L272.665 25.5ZM0.834918 25.5L2.99999 27.6651L5.16506 25.5L2.99999 23.335L0.834918 25.5ZM270.5 25.125L268.023 25.125L268.023 25.875L270.5 25.875L270.5 25.125ZM263.069 25.125L258.116 25.125L258.116 25.875L263.069 25.875L263.069 25.125ZM253.162 25.125L248.208 25.125L248.208 25.875L253.162 25.875L253.162 25.125ZM243.255 25.125L238.301 25.125L238.301 25.875L243.255 25.875L243.255 25.125ZM233.347 25.125L228.394 25.125L228.394 25.875L233.347 25.875L233.347 25.125ZM223.44 25.125L218.486 25.125L218.486 25.875L223.44 25.875L223.44 25.125ZM213.532 25.125L208.579 25.125L208.579 25.875L213.532 25.875L213.532 25.125ZM203.625 25.125L198.671 25.125L198.671 25.875L203.625 25.875L203.625 25.125ZM193.718 25.125L188.764 25.125L188.764 25.875L193.718 25.875L193.718 25.125ZM183.81 25.125L178.856 25.125L178.856 25.875L183.81 25.875L183.81 25.125ZM173.903 25.125L168.949 25.125L168.949 25.875L173.903 25.875L173.903 25.125ZM163.995 25.125L159.042 25.125L159.042 25.875L163.995 25.875L163.995 25.125ZM154.088 25.125L149.134 25.125L149.134 25.875L154.088 25.875L154.088 25.125ZM144.181 25.125L139.227 25.125L139.227 25.875L144.181 25.875L144.181 25.125ZM134.273 25.125L129.319 25.125L129.319 25.875L134.273 25.875L134.273 25.125ZM124.366 25.125L119.412 25.125L119.412 25.875L124.366 25.875L124.366 25.125ZM114.458 25.125L109.505 25.125L109.505 25.875L114.458 25.875L114.458 25.125ZM104.551 25.125L99.5972 25.125L99.5972 25.875L104.551 25.875L104.551 25.125ZM94.6435 25.125L89.6898 25.125L89.6898 25.875L94.6435 25.875L94.6435 25.125ZM84.7361 25.125L79.7824 25.125L79.7824 25.875L84.7361 25.875L84.7361 25.125ZM74.8287 25.125L69.875 25.125L69.875 25.875L74.8287 25.875L74.8287 25.125ZM64.9213 25.125L59.9676 25.125L59.9676 25.875L64.9213 25.875L64.9213 25.125ZM55.0139 25.125L50.0602 25.125L50.0602 25.875L55.0139 25.875L55.0139 25.125ZM45.1065 25.125L40.1528 25.125L40.1528 25.875L45.1065 25.875L45.1065 25.125ZM35.1991 25.125L30.2454 25.125L30.2454 25.875L35.1991 25.875L35.1991 25.125ZM25.2917 25.125L20.338 25.125L20.338 25.875L25.2917 25.875L25.2917 25.125ZM15.3842 25.125L10.4305 25.125L10.4305 25.875L15.3842 25.875L15.3842 25.125ZM5.47682 25.125L2.99999 25.125L2.99999 25.875L5.47682 25.875L5.47682 25.125Z" fill="url(#paint3_linear_5841_2390)"/>
<path d="M295.165 33.0001L293 30.835L290.835 33.0001L293 35.1651L295.165 33.0001ZM0.834922 33L2.99999 35.1651L5.16506 33L2.99999 30.8349L0.834922 33ZM293 32.6251L290.5 32.6251L290.5 33.3751L293 33.3751L293 32.6251ZM285.5 32.625L280.5 32.625L280.5 33.375L285.5 33.375L285.5 32.625ZM275.5 32.625L270.5 32.625L270.5 33.375L275.5 33.375L275.5 32.625ZM265.5 32.625L260.5 32.625L260.5 33.375L265.5 33.375L265.5 32.625ZM255.5 32.625L250.5 32.625L250.5 33.375L255.5 33.375L255.5 32.625ZM245.5 32.625L240.5 32.625L240.5 33.375L245.5 33.375L245.5 32.625ZM235.5 32.625L230.5 32.625L230.5 33.375L235.5 33.375L235.5 32.625ZM225.5 32.625L220.5 32.625L220.5 33.375L225.5 33.375L225.5 32.625ZM215.5 32.625L210.5 32.625L210.5 33.375L215.5 33.375L215.5 32.625ZM205.5 32.625L200.5 32.625L200.5 33.375L205.5 33.375L205.5 32.625ZM195.5 32.625L190.5 32.625L190.5 33.375L195.5 33.375L195.5 32.625ZM185.5 32.625L180.5 32.625L180.5 33.375L185.5 33.375L185.5 32.625ZM175.5 32.625L170.5 32.625L170.5 33.375L175.5 33.375L175.5 32.625ZM165.5 32.625L160.5 32.625L160.5 33.375L165.5 33.375L165.5 32.625ZM155.5 32.625L150.5 32.625L150.5 33.375L155.5 33.375L155.5 32.625ZM145.5 32.625L140.5 32.625L140.5 33.375L145.5 33.375L145.5 32.625ZM135.5 32.625L130.5 32.625L130.5 33.375L135.5 33.375L135.5 32.625ZM125.5 32.625L120.5 32.625L120.5 33.375L125.5 33.375L125.5 32.625ZM115.5 32.625L110.5 32.625L110.5 33.375L115.5 33.375L115.5 32.625ZM105.5 32.625L100.5 32.625L100.5 33.375L105.5 33.375L105.5 32.625ZM95.5 32.625L90.5 32.625L90.5 33.375L95.5 33.375L95.5 32.625ZM85.5 32.625L80.5 32.625L80.5 33.375L85.5 33.375L85.5 32.625ZM75.5 32.625L70.5 32.625L70.5 33.375L75.5 33.375L75.5 32.625ZM65.5 32.625L60.5 32.625L60.5 33.375L65.5 33.375L65.5 32.625ZM55.5 32.625L50.5 32.625L50.5 33.375L55.5 33.375L55.5 32.625ZM45.5 32.625L40.5 32.625L40.5 33.375L45.5 33.375L45.5 32.625ZM35.5 32.625L30.5 32.625L30.5 33.375L35.5 33.375L35.5 32.625ZM25.5 32.625L20.5 32.625L20.5 33.375L25.5 33.375L25.5 32.625ZM15.5 32.625L10.5 32.625L10.5 33.375L15.5 33.375L15.5 32.625ZM5.50002 32.625L2.99999 32.625L2.99999 33.375L5.50002 33.375L5.50002 32.625Z" fill="url(#paint4_linear_5841_2390)"/>
<defs>
<linearGradient id="paint0_linear_5841_2390" x1="179" y1="1.50011" x2="-5.57505" y2="7.71945" gradientUnits="userSpaceOnUse">
<stop stop-color="#C7C7C7" stop-opacity="0.42"/>
<stop offset="1" stop-color="#C7C7C7" stop-opacity="0"/>
</linearGradient>
<linearGradient id="paint1_linear_5841_2390" x1="210.778" y1="9.00012" x2="-7.02606" y2="17.6642" gradientUnits="userSpaceOnUse">
<stop stop-color="#C7C7C7" stop-opacity="0.42"/>
<stop offset="1" stop-color="#C7C7C7" stop-opacity="0"/>
</linearGradient>
<linearGradient id="paint2_linear_5841_2390" x1="240.111" y1="16.5001" x2="-8.32285" y2="27.7779" gradientUnits="userSpaceOnUse">
<stop stop-color="#C7C7C7" stop-opacity="0.42"/>
<stop offset="1" stop-color="#C7C7C7" stop-opacity="0"/>
</linearGradient>
<linearGradient id="paint3_linear_5841_2390" x1="264.556" y1="24.0001" x2="-9.36803" y2="37.7169" gradientUnits="userSpaceOnUse">
<stop stop-color="#C7C7C7" stop-opacity="0.42"/>
<stop offset="1" stop-color="#C7C7C7" stop-opacity="0"/>
</linearGradient>
<linearGradient id="paint4_linear_5841_2390" x1="286.556" y1="31.5001" x2="-10.2782" y2="47.6144" gradientUnits="userSpaceOnUse">
<stop stop-color="#C7C7C7" stop-opacity="0.42"/>
<stop offset="1" stop-color="#C7C7C7" stop-opacity="0"/>
</linearGradient>
</defs>
</svg>
