<svg width="33" height="32" viewBox="0 0 33 32" fill="none" xmlns="http://www.w3.org/2000/svg">
<path d="M16.182 3C15.9168 3 15.6625 3.10536 15.4749 3.29289C15.2874 3.48043 15.182 3.73478 15.182 4V19.0133C14.1821 18.165 12.9188 17.6898 11.6077 17.6687C10.2965 17.6475 9.01864 18.0817 7.99181 18.8973C6.96499 19.7129 6.25281 20.8594 5.97668 22.1413C5.70055 23.4232 5.87755 24.7612 6.47751 25.9273C7.07748 27.0933 8.06327 28.0151 9.26685 28.5357C10.4704 29.0562 11.8173 29.1432 13.0778 28.7819C14.3384 28.4205 15.4346 27.6332 16.1796 26.554C16.9246 25.4749 17.2723 24.1708 17.1634 22.864C17.176 22.799 17.1823 22.7329 17.182 22.6667V10.3333H24.182C25.1545 10.3333 26.0871 9.94702 26.7748 9.25939C27.4624 8.57176 27.8487 7.63913 27.8487 6.66667C27.8487 5.69421 27.4624 4.76157 26.7748 4.07394C26.0871 3.38631 25.1545 3 24.182 3H16.182Z" fill="#FAFAFA" fill-opacity="0.84"/>
</svg>
