<svg width="24" height="24" viewBox="0 0 24 24" fill="none" xmlns="http://www.w3.org/2000/svg">
<path d="M12.0015 1.99927C6.48747 1.99927 2.00146 6.48527 2.00146 11.9993V16.1423C2.00146 17.1663 2.89846 17.9993 4.00147 17.9993H5.00147C5.26668 17.9993 5.52104 17.8939 5.70857 17.7064C5.89611 17.5188 6.00147 17.2645 6.00147 16.9993V11.8563C6.00147 11.5911 5.89611 11.3367 5.70857 11.1492C5.52104 10.9616 5.26668 10.8563 5.00147 10.8563H4.09347C4.64947 6.98627 7.97947 3.99927 12.0015 3.99927C16.0235 3.99927 19.3535 6.98627 19.9095 10.8563H19.0015C18.7362 10.8563 18.4819 10.9616 18.2944 11.1492C18.1068 11.3367 18.0015 11.5911 18.0015 11.8563V17.9993C18.0015 19.1023 17.1045 19.9993 16.0015 19.9993H14.0015V18.9993H10.0015V21.9993H16.0015C18.2075 21.9993 20.0015 20.2053 20.0015 17.9993C21.1045 17.9993 22.0015 17.1663 22.0015 16.1423V11.9993C22.0015 6.48527 17.5155 1.99927 12.0015 1.99927Z" fill="#D3D3D3"/>
</svg>
