<svg width="40" height="40" viewBox="0 0 40 40" fill="none" xmlns="http://www.w3.org/2000/svg">
<g clip-path="url(#clip0_5928_2572)">
<path d="M18.2826 4.99868C18.3801 5.42965 18.3025 5.88172 18.0669 6.25551C17.8312 6.6293 17.4568 6.89422 17.0259 6.99201C14.2544 7.62393 11.7575 9.12504 9.8994 11.2763C8.04133 13.4275 6.91941 16.1163 6.69736 18.9502C6.47531 21.7841 7.16476 24.6148 8.66509 27.0291C10.1654 29.4435 12.3981 31.3152 15.0373 32.3711C17.6765 33.427 20.5841 33.6117 23.3357 32.8984C26.0874 32.1851 28.539 30.6111 30.3329 28.4061C32.1268 26.201 33.169 23.4804 33.3075 20.6412C33.4459 17.802 32.6734 14.9928 31.1026 12.6237C30.9814 12.4414 30.8974 12.237 30.8552 12.0222C30.8131 11.8074 30.8136 11.5864 30.8569 11.3718C30.9442 10.9384 31.2002 10.5575 31.5684 10.3128C31.9366 10.0682 32.3869 9.97981 32.8203 10.0672C33.0349 10.1104 33.2388 10.1955 33.4205 10.3176C33.6022 10.4397 33.7581 10.5964 33.8792 10.7787C35.6955 13.509 36.6623 16.7161 36.6576 19.9953C36.6576 29.2003 29.1959 36.662 19.9909 36.662C10.7859 36.662 3.32422 29.2003 3.32422 19.9953C3.32422 12.062 8.86589 5.42535 16.2892 3.74201C16.7202 3.64445 17.1723 3.72202 17.5461 3.95767C17.9198 4.19332 18.1848 4.56776 18.2826 4.99868ZM21.6576 5.01868C21.6573 4.76866 21.7128 4.52174 21.82 4.29585C21.9272 4.06996 22.0833 3.87078 22.277 3.71277C22.4708 3.55476 22.6973 3.4419 22.9402 3.38238C23.183 3.32286 23.436 3.31818 23.6809 3.36868L23.8726 3.42035L28.8509 5.08035C29.2553 5.21401 29.5932 5.49744 29.7952 5.87245C29.9972 6.24746 30.048 6.68558 29.9371 7.09684C29.8261 7.5081 29.562 7.86128 29.1988 8.08386C28.8356 8.30643 28.401 8.38151 27.9842 8.29368L27.7976 8.24368L24.9909 7.30701V19.9953C24.9904 21.0424 24.6612 22.063 24.0497 22.9129C23.4382 23.7629 22.5753 24.3995 21.5827 24.7328C20.5901 25.0662 19.5178 25.0795 18.5173 24.7709C17.5167 24.4623 16.6382 23.8473 16.0058 23.0128C15.3734 22.1783 15.019 21.1662 14.9925 20.1195C14.966 19.0727 15.2688 18.0441 15.8582 17.1786C16.4476 16.3131 17.2938 15.6545 18.2775 15.2957C19.2612 14.9369 20.3327 14.896 21.3409 15.1787L21.6576 15.2787V5.02035V5.01868Z" fill="#FAFAFA" fill-opacity="0.84"/>
</g>
<defs>
<clipPath id="clip0_5928_2572">
<rect width="40" height="40" fill="white"/>
</clipPath>
</defs>
</svg>
